<ttFont>
    <TTGlyph name=".notdef" xMin="205" yMin="0" xMax="1330" yMax="1409">
      <contour>
        <pt x="205" y="1409" on="1"/>
        <pt x="1330" y="1409" on="1"/>
        <pt x="1330" y="0" on="1"/>
        <pt x="205" y="0" on="1"/>
      </contour>
      <contour>
        <pt x="281" y="1333" on="1"/>
        <pt x="281" y="76" on="1"/>
        <pt x="1254" y="76" on="1"/>
        <pt x="1254" y="1333" on="1"/>
      </contour>
    </TTGlyph>
    <TTGlyph name="A" xMin="4" yMin="0" xMax="1362" yMax="1409">
      <contour>
        <pt x="1167" y="0" on="1"/>
        <pt x="1006" y="412" on="1"/>
        <pt x="364" y="412" on="1"/>
        <pt x="202" y="0" on="1"/>
        <pt x="4" y="0" on="1"/>
        <pt x="579" y="1409" on="1"/>
        <pt x="796" y="1409" on="1"/>
        <pt x="1362" y="0" on="1"/>
      </contour>
      <contour>
        <pt x="685" y="1265" on="1"/>
        <pt x="676" y="1237" on="1"/>
        <pt x="651" y="1154" on="0"/>
        <pt x="602" y="1024" on="1"/>
        <pt x="422" y="561" on="1"/>
        <pt x="949" y="561" on="1"/>
        <pt x="768" y="1026" on="1"/>
        <pt x="740" y="1095" on="0"/>
        <pt x="712" y="1182" on="1"/>
      </contour>
    </TTGlyph>
    <TTGlyph name="AE" xMin="24" yMin="0" xMax="1960" yMax="1409">
      <contour>
        <pt x="969" y="0" on="1"/>
        <pt x="969" y="412" on="1"/>
        <pt x="421" y="412" on="1"/>
        <pt x="223" y="0" on="1"/>
        <pt x="24" y="0" on="1"/>
        <pt x="710" y="1409" on="1"/>
        <pt x="1919" y="1409" on="1"/>
        <pt x="1919" y="1253" on="1"/>
        <pt x="1160" y="1253" on="1"/>
        <pt x="1160" y="801" on="1"/>
        <pt x="1859" y="801" on="1"/>
        <pt x="1859" y="647" on="1"/>
        <pt x="1160" y="647" on="1"/>
        <pt x="1160" y="156" on="1"/>
        <pt x="1960" y="156" on="1"/>
        <pt x="1960" y="0" on="1"/>
      </contour>
      <contour>
        <pt x="969" y="1262" on="1"/>
        <pt x="818" y="1262" on="1"/>
        <pt x="790" y="1199" on="1"/>
        <pt x="491" y="561" on="1"/>
        <pt x="969" y="561" on="1"/>
      </contour>
    </TTGlyph>
    <TTGlyph name="AEacute" xMin="24" yMin="0" xMax="1960" yMax="1776">
      <component glyphName="AE" x="0" y="0" flags="0x204"/>
      <component glyphName="acute.uc" x="996" y="0" flags="0x4"/>
    </TTGlyph>
    <TTGlyph name="Aacute" xMin="4" yMin="0" xMax="1362" yMax="1776">
      <component glyphName="A" x="0" y="0" flags="0x204"/>
      <component glyphName="acute.uc" x="475" y="0" flags="0x4"/>
    </TTGlyph>
    <TTGlyph name="Abreve" xMin="4" yMin="0" xMax="1362" yMax="1779">
      <component glyphName="A" x="0" y="0" flags="0x204"/>
      <component glyphName="breve.uc" x="377" y="0" flags="0x4"/>
    </TTGlyph>
    <TTGlyph name="Abreveacute" xMin="4" yMin="0" xMax="1362" yMax="1835">
      <component glyphName="A" x="0" y="0" flags="0x204"/>
      <component glyphName="breveacute" x="686" y="0" flags="0x4"/>
    </TTGlyph>
    <TTGlyph name="Abrevedotbelow" xMin="4" yMin="-311" xMax="1362" yMax="1779">
      <component glyphName="A" x="0" y="0" flags="0x204"/>
      <component glyphName="breve.uc" x="374" y="0" flags="0x4"/>
      <component glyphName="dotbelow.alt1" x="820" y="0" flags="0x4"/>
    </TTGlyph>
    <TTGlyph name="Abrevegrave" xMin="4" yMin="0" xMax="1362" yMax="1835">
      <component glyphName="A" x="0" y="0" flags="0x204"/>
      <component glyphName="brevegrave" x="686" y="0" flags="0x4"/>
    </TTGlyph>
    <TTGlyph name="Abrevehookabove" xMin="4" yMin="0" xMax="1362" yMax="1835">
      <component glyphName="A" x="0" y="0" flags="0x204"/>
      <component glyphName="brevehook" x="686" y="0" flags="0x4"/>
    </TTGlyph>
    <TTGlyph name="Abrevetilde" xMin="4" yMin="0" xMax="1362" yMax="1835">
      <component glyphName="A" x="0" y="0" flags="0x204"/>
      <component glyphName="brevetilde" x="684" y="0" flags="0x4"/>
    </TTGlyph>
    <TTGlyph name="Acircumflex" xMin="4" yMin="0" xMax="1362" yMax="1790">
      <component glyphName="A" x="0" y="0" flags="0x204"/>
      <component glyphName="circumflex.uc" x="352" y="0" flags="0x4"/>
    </TTGlyph>
    <TTGlyph name="Acircumflexacute" xMin="4" yMin="0" xMax="1362" yMax="1835">
      <component glyphName="A" x="0" y="0" flags="0x204"/>
      <component glyphName="circumflexacute" x="685" y="0" flags="0x4"/>
    </TTGlyph>
    <TTGlyph name="Acircumflexdotbelow" xMin="4" yMin="-311" xMax="1362" yMax="1790">
      <component glyphName="A" x="0" y="0" flags="0x204"/>
      <component glyphName="circumflex.uc" x="352" y="0" flags="0x4"/>
      <component glyphName="dotbelow.alt1" x="835" y="0" flags="0x4"/>
    </TTGlyph>
    <TTGlyph name="Acircumflexgrave" xMin="4" yMin="0" xMax="1362" yMax="1835">
      <component glyphName="A" x="0" y="0" flags="0x204"/>
      <component glyphName="circumflexgrave" x="685" y="0" flags="0x4"/>
    </TTGlyph>
    <TTGlyph name="Acircumflexhookabove" xMin="4" yMin="0" xMax="1362" yMax="1835">
      <component glyphName="A" x="0" y="0" flags="0x204"/>
      <component glyphName="circumflexhook" x="685" y="0" flags="0x4"/>
    </TTGlyph>
    <TTGlyph name="Acircumflextilde" xMin="4" yMin="0" xMax="1362" yMax="1835">
      <component glyphName="A" x="0" y="0" flags="0x204"/>
      <component glyphName="circumflextilde" x="684" y="0" flags="0x4"/>
    </TTGlyph>
    <TTGlyph name="Adieresis" xMin="4" yMin="0" xMax="1362" yMax="1714">
      <component glyphName="A" x="0" y="0" flags="0x204"/>
      <component glyphName="dieresis.uc" x="364" y="0" flags="0x4"/>
    </TTGlyph>
    <TTGlyph name="Adotbelow" xMin="4" yMin="-311" xMax="1362" yMax="1409">
      <component glyphName="A" x="0" y="0" flags="0x204"/>
      <component glyphName="dotbelow.alt1" x="820" y="0" flags="0x4"/>
    </TTGlyph>
    <TTGlyph name="Agrave" xMin="4" yMin="0" xMax="1362" yMax="1776">
      <component glyphName="A" x="0" y="0" flags="0x204"/>
      <component glyphName="grave.uc" x="334" y="0" flags="0x4"/>
    </TTGlyph>
    <TTGlyph name="Ahookabove" xMin="4" yMin="0" xMax="1362" yMax="1835">
      <component glyphName="A" x="0" y="0" flags="0x204"/>
      <component glyphName="hookabovecomb" x="980" y="0" flags="0x4"/>
    </TTGlyph>
    <TTGlyph name="Alpha" xMin="4" yMin="0" xMax="1362" yMax="1409">
      <component glyphName="A" x="0" y="0" flags="0x204"/>
    </TTGlyph>
    <TTGlyph name="Alphatonos" xMin="4" yMin="0" xMax="1362" yMax="1411">
      <component glyphName="A" x="0" y="0" flags="0x4"/>
      <component glyphName="tonos" x="-148" y="-132" flags="0x4"/>
    </TTGlyph>
    <TTGlyph name="Amacron" xMin="4" yMin="0" xMax="1362" yMax="1692">
      <component glyphName="A" x="0" y="0" flags="0x204"/>
      <component glyphName="macron" x="360" y="329" flags="0x4"/>
    </TTGlyph>
    <TTGlyph name="Aogonek" xMin="4" yMin="-416" xMax="1379" yMax="1409">
      <component glyphName="A" x="0" y="0" flags="0x204"/>
      <component glyphName="ogonek" x="949" y="11" flags="0x4"/>
    </TTGlyph>
    <TTGlyph name="Aring" xMin="4" yMin="0" xMax="1362" yMax="1787">
      <component glyphName="A" x="0" y="0" flags="0x204"/>
      <component glyphName="ring" x="393" y="136" flags="0x4"/>
    </TTGlyph>
    <TTGlyph name="Aringacute" xMin="4" yMin="0" xMax="1362" yMax="1854">
      <contour>
        <pt x="926" y="1392" on="1"/>
        <pt x="926" y="1337" on="0"/>
        <pt x="867" y="1240" on="0"/>
        <pt x="821" y="1212" on="1"/>
        <pt x="1362" y="0" on="1"/>
        <pt x="1167" y="0" on="1"/>
        <pt x="1006" y="371" on="1"/>
        <pt x="364" y="371" on="1"/>
        <pt x="202" y="0" on="1"/>
        <pt x="4" y="0" on="1"/>
        <pt x="552" y="1209" on="1"/>
        <pt x="503" y="1237" on="0"/>
        <pt x="442" y="1336" on="0"/>
        <pt x="442" y="1392" on="1"/>
        <pt x="442" y="1482" on="0"/>
        <pt x="584" y="1609" on="0"/>
        <pt x="684" y="1609" on="1"/>
        <pt x="784" y="1609" on="0"/>
        <pt x="926" y="1481" on="0"/>
      </contour>
      <contour>
        <pt x="685" y="1138" on="1"/>
        <pt x="676" y="1114" on="1"/>
        <pt x="660" y="1065" on="0"/>
        <pt x="607" y="932" on="0"/>
        <pt x="422" y="505" on="1"/>
        <pt x="949" y="505" on="1"/>
        <pt x="768" y="923" on="1"/>
        <pt x="741" y="983" on="0"/>
        <pt x="712" y="1063" on="1"/>
      </contour>
      <contour>
        <pt x="818" y="1392" on="1"/>
        <pt x="818" y="1442" on="0"/>
        <pt x="740" y="1513" on="0"/>
        <pt x="684" y="1513" on="1"/>
        <pt x="627" y="1513" on="0"/>
        <pt x="549" y="1442" on="0"/>
        <pt x="549" y="1392" on="1"/>
        <pt x="549" y="1345" on="0"/>
        <pt x="621" y="1271" on="0"/>
        <pt x="675" y="1268" on="1"/>
        <pt x="684" y="1268" on="1"/>
        <pt x="742" y="1268" on="0"/>
        <pt x="818" y="1343" on="0"/>
      </contour>
      <contour>
        <pt x="571" y="1657" on="1"/>
        <pt x="571" y="1673" on="1"/>
        <pt x="788" y="1854" on="1"/>
        <pt x="995" y="1854" on="1"/>
        <pt x="995" y="1831" on="1"/>
        <pt x="685" y="1657" on="1"/>
      </contour>
    </TTGlyph>
    <TTGlyph name="Atilde" xMin="4" yMin="0" xMax="1362" yMax="1798">
      <component glyphName="A" x="0" y="0" flags="0x204"/>
      <component glyphName="tilde.uc" x="350" y="0" flags="0x4"/>
    </TTGlyph>
    <TTGlyph name="B" xMin="168" yMin="0" xMax="1258" yMax="1409">
      <contour>
        <pt x="1258" y="397" on="1"/>
        <pt x="1258" y="209" on="0"/>
        <pt x="984" y="0" on="0"/>
        <pt x="740" y="0" on="1"/>
        <pt x="168" y="0" on="1"/>
        <pt x="168" y="1409" on="1"/>
        <pt x="680" y="1409" on="1"/>
        <pt x="1176" y="1409" on="0"/>
        <pt x="1176" y="1067" on="1"/>
        <pt x="1176" y="942" on="0"/>
        <pt x="1036" y="772" on="0"/>
        <pt x="908" y="743" on="1"/>
        <pt x="1076" y="723" on="0"/>
        <pt x="1258" y="538" on="0"/>
      </contour>
      <contour>
        <pt x="984" y="1044" on="1"/>
        <pt x="984" y="1158" on="0"/>
        <pt x="828" y="1256" on="0"/>
        <pt x="680" y="1256" on="1"/>
        <pt x="359" y="1256" on="1"/>
        <pt x="359" y="810" on="1"/>
        <pt x="680" y="810" on="1"/>
        <pt x="833" y="810" on="0"/>
        <pt x="984" y="925" on="0"/>
      </contour>
      <contour>
        <pt x="1065" y="412" on="1"/>
        <pt x="1065" y="661" on="0"/>
        <pt x="715" y="661" on="1"/>
        <pt x="359" y="661" on="1"/>
        <pt x="359" y="153" on="1"/>
        <pt x="730" y="153" on="1"/>
        <pt x="905" y="153" on="0"/>
        <pt x="1065" y="283" on="0"/>
      </contour>
    </TTGlyph>
    <TTGlyph name="Beta" xMin="168" yMin="0" xMax="1258" yMax="1409">
      <component glyphName="B" x="0" y="0" flags="0x204"/>
    </TTGlyph>
    <TTGlyph name="C" xMin="104" yMin="-20" xMax="1401" yMax="1430">
      <contour>
        <pt x="792" y="1274" on="1"/>
        <pt x="558" y="1274" on="0"/>
        <pt x="298" y="973" on="0"/>
        <pt x="298" y="711" on="1"/>
        <pt x="298" y="452" on="0"/>
        <pt x="569" y="137" on="0"/>
        <pt x="800" y="137" on="1"/>
        <pt x="1096" y="137" on="0"/>
        <pt x="1245" y="430" on="1"/>
        <pt x="1401" y="352" on="1"/>
        <pt x="1314" y="170" on="0"/>
        <pt x="999" y="-20" on="0"/>
        <pt x="791" y="-20" on="1"/>
        <pt x="578" y="-20" on="0"/>
        <pt x="267" y="157" on="0"/>
        <pt x="104" y="486" on="0"/>
        <pt x="104" y="711" on="1"/>
        <pt x="104" y="1048" on="0"/>
        <pt x="468" y="1430" on="0"/>
        <pt x="790" y="1430" on="1"/>
        <pt x="1015" y="1430" on="0"/>
        <pt x="1317" y="1254" on="0"/>
        <pt x="1388" y="1081" on="1"/>
        <pt x="1207" y="1021" on="1"/>
        <pt x="1158" y="1144" on="0"/>
        <pt x="941" y="1274" on="0"/>
      </contour>
    </TTGlyph>
    <TTGlyph name="Cacute" xMin="104" yMin="-20" xMax="1401" yMax="1776">
      <component glyphName="C" x="0" y="0" flags="0x204"/>
      <component glyphName="acute.uc" x="595" y="0" flags="0x4"/>
    </TTGlyph>
    <TTGlyph name="Ccaron" xMin="104" yMin="-20" xMax="1401" yMax="1790">
      <component glyphName="C" x="0" y="0" flags="0x204"/>
      <component glyphName="caron.uc" x="460" y="0" flags="0x4"/>
    </TTGlyph>
    <TTGlyph name="Ccedilla" xMin="104" yMin="-434" xMax="1401" yMax="1430">
      <component glyphName="C" x="0" y="0" flags="0x204"/>
      <component glyphName="cedilla" x="510" y="0" flags="0x4"/>
    </TTGlyph>
    <TTGlyph name="Ccircumflex" xMin="104" yMin="-20" xMax="1401" yMax="1790">
      <component glyphName="C" x="0" y="0" flags="0x204"/>
      <component glyphName="circumflex.uc" x="460" y="0" flags="0x4"/>
    </TTGlyph>
    <TTGlyph name="Cdotaccent" xMin="104" yMin="-20" xMax="1401" yMax="1777">
      <component glyphName="C" x="0" y="0" flags="0x204"/>
      <component glyphName="dotaccent" x="546" y="293" flags="0x4"/>
    </TTGlyph>
    <TTGlyph name="Chi" xMin="46" yMin="0" xMax="1323" yMax="1409">
      <component glyphName="X" x="0" y="0" flags="0x204"/>
    </TTGlyph>
    <TTGlyph name="D" xMin="168" yMin="0" xMax="1381" yMax="1409">
      <contour>
        <pt x="1381" y="719" on="1"/>
        <pt x="1381" y="501" on="0"/>
        <pt x="1211" y="174" on="0"/>
        <pt x="899" y="0" on="0"/>
        <pt x="695" y="0" on="1"/>
        <pt x="168" y="0" on="1"/>
        <pt x="168" y="1409" on="1"/>
        <pt x="634" y="1409" on="1"/>
        <pt x="992" y="1409" on="0"/>
        <pt x="1381" y="1050" on="0"/>
      </contour>
      <contour>
        <pt x="1189" y="719" on="1"/>
        <pt x="1189" y="981" on="0"/>
        <pt x="902" y="1256" on="0"/>
        <pt x="630" y="1256" on="1"/>
        <pt x="359" y="1256" on="1"/>
        <pt x="359" y="153" on="1"/>
        <pt x="673" y="153" on="1"/>
        <pt x="828" y="153" on="0"/>
        <pt x="1063" y="289" on="0"/>
        <pt x="1189" y="545" on="0"/>
      </contour>
    </TTGlyph>
    <TTGlyph name="Dcaron" xMin="168" yMin="0" xMax="1381" yMax="1790">
      <component glyphName="D" x="0" y="0" flags="0x204"/>
      <component glyphName="caron.uc" x="358" y="0" flags="0x4"/>
    </TTGlyph>
    <TTGlyph name="Dcroat" xMin="14" yMin="0" xMax="1381" yMax="1409">
      <component glyphName="Eth" x="0" y="0" flags="0x204"/>
    </TTGlyph>
    <TTGlyph name="Delta" xMin="61" yMin="0" xMax="1306" yMax="1409">
      <contour>
        <pt x="579" y="1409" on="1"/>
        <pt x="796" y="1409" on="1"/>
        <pt x="1306" y="141" on="1"/>
        <pt x="1306" y="0" on="1"/>
        <pt x="61" y="0" on="1"/>
        <pt x="62" y="141" on="1"/>
      </contour>
      <contour>
        <pt x="1106" y="156" on="1"/>
        <pt x="768" y="1018" on="1"/>
        <pt x="738" y="1092" on="0"/>
        <pt x="687" y="1253" on="0"/>
        <pt x="685" y="1265" on="1"/>
        <pt x="676" y="1233" on="1"/>
        <pt x="645" y="1122" on="0"/>
        <pt x="602" y="1016" on="1"/>
        <pt x="263" y="156" on="1"/>
      </contour>
    </TTGlyph>
    <TTGlyph name="E" xMin="168" yMin="0" xMax="1278" yMax="1409">
      <contour>
        <pt x="168" y="0" on="1"/>
        <pt x="168" y="1409" on="1"/>
        <pt x="1237" y="1409" on="1"/>
        <pt x="1237" y="1253" on="1"/>
        <pt x="359" y="1253" on="1"/>
        <pt x="359" y="801" on="1"/>
        <pt x="1177" y="801" on="1"/>
        <pt x="1177" y="647" on="1"/>
        <pt x="359" y="647" on="1"/>
        <pt x="359" y="156" on="1"/>
        <pt x="1278" y="156" on="1"/>
        <pt x="1278" y="0" on="1"/>
      </contour>
    </TTGlyph>
    <TTGlyph name="Eacute" xMin="168" yMin="0" xMax="1278" yMax="1776">
      <component glyphName="E" x="0" y="0" flags="0x204"/>
      <component glyphName="acute.uc" x="479" y="0" flags="0x4"/>
    </TTGlyph>
    <TTGlyph name="Ebreve" xMin="168" yMin="0" xMax="1278" yMax="1779">
      <component glyphName="E" x="0" y="0" flags="0x204"/>
      <component glyphName="breve.uc" x="393" y="0" flags="0x4"/>
    </TTGlyph>
    <TTGlyph name="Ecaron" xMin="168" yMin="0" xMax="1278" yMax="1790">
      <component glyphName="E" x="0" y="0" flags="0x204"/>
      <component glyphName="caron.uc" x="367" y="0" flags="0x4"/>
    </TTGlyph>
    <TTGlyph name="Ecircumflex" xMin="168" yMin="0" xMax="1278" yMax="1790">
      <component glyphName="E" x="0" y="0" flags="0x204"/>
      <component glyphName="circumflex.uc" x="375" y="0" flags="0x4"/>
    </TTGlyph>
    <TTGlyph name="Ecircumflexacute" xMin="168" yMin="0" xMax="1278" yMax="1835">
      <component glyphName="E" x="0" y="0" flags="0x204"/>
      <component glyphName="circumflexacute" x="725" y="0" flags="0x4"/>
    </TTGlyph>
    <TTGlyph name="Ecircumflexdotbelow" xMin="168" yMin="-311" xMax="1278" yMax="1790">
      <component glyphName="E" x="0" y="0" flags="0x204"/>
      <component glyphName="circumflex.uc" x="375" y="0" flags="0x4"/>
      <component glyphName="dotbelow.alt1" x="860" y="0" flags="0x4"/>
    </TTGlyph>
    <TTGlyph name="Ecircumflexgrave" xMin="168" yMin="0" xMax="1278" yMax="1835">
      <component glyphName="E" x="0" y="0" flags="0x204"/>
      <component glyphName="circumflexgrave" x="721" y="0" flags="0x4"/>
    </TTGlyph>
    <TTGlyph name="Ecircumflexhookabove" xMin="168" yMin="0" xMax="1278" yMax="1835">
      <component glyphName="E" x="0" y="0" flags="0x204"/>
      <component glyphName="circumflexhook" x="705" y="0" flags="0x4"/>
    </TTGlyph>
    <TTGlyph name="Ecircumflextilde" xMin="168" yMin="0" xMax="1278" yMax="1835">
      <component glyphName="E" x="0" y="0" flags="0x204"/>
      <component glyphName="circumflextilde" x="720" y="0" flags="0x4"/>
    </TTGlyph>
    <TTGlyph name="Edieresis" xMin="168" yMin="0" xMax="1278" yMax="1714">
      <component glyphName="E" x="0" y="0" flags="0x204"/>
      <component glyphName="dieresis.uc" x="377" y="0" flags="0x4"/>
    </TTGlyph>
    <TTGlyph name="Edotaccent" xMin="168" yMin="0" xMax="1278" yMax="1777">
      <component glyphName="E" x="0" y="0" flags="0x204"/>
      <component glyphName="dotaccent" x="457" y="293" flags="0x4"/>
    </TTGlyph>
    <TTGlyph name="Edotbelow" xMin="168" yMin="-311" xMax="1278" yMax="1409">
      <component glyphName="E" x="0" y="0" flags="0x204"/>
      <component glyphName="dotbelow.alt1" x="860" y="0" flags="0x4"/>
    </TTGlyph>
    <TTGlyph name="Egrave" xMin="168" yMin="0" xMax="1278" yMax="1776">
      <component glyphName="E" x="0" y="0" flags="0x204"/>
      <component glyphName="grave.uc" x="319" y="0" flags="0x4"/>
    </TTGlyph>
    <TTGlyph name="Ehookabove" xMin="168" yMin="0" xMax="1278" yMax="1835">
      <component glyphName="E" x="0" y="0" flags="0x204"/>
      <component glyphName="hookabovecomb" x="987" y="0" flags="0x4"/>
    </TTGlyph>
    <TTGlyph name="Emacron" xMin="168" yMin="0" xMax="1278" yMax="1692">
      <component glyphName="E" x="0" y="0" flags="0x204"/>
      <component glyphName="macron" x="378" y="329" flags="0x4"/>
    </TTGlyph>
    <TTGlyph name="Eng" xMin="165" yMin="-20" xMax="1332" yMax="1429">
      <contour>
        <pt x="941" y="-20" on="1"/>
        <pt x="846" y="-20" on="0"/>
        <pt x="682" y="54" on="0"/>
        <pt x="623" y="128" on="1"/>
        <pt x="750" y="243" on="1"/>
        <pt x="840" y="133" on="0"/>
        <pt x="946" y="133" on="1"/>
        <pt x="1019" y="133" on="0"/>
        <pt x="1104" y="212" on="0"/>
        <pt x="1142" y="374" on="0"/>
        <pt x="1142" y="546" on="1"/>
        <pt x="1142" y="868" on="1"/>
        <pt x="1142" y="1081" on="0"/>
        <pt x="985" y="1274" on="0"/>
        <pt x="808" y="1274" on="1"/>
        <pt x="689" y="1274" on="0"/>
        <pt x="481" y="1170" on="0"/>
        <pt x="360" y="992" on="0"/>
        <pt x="360" y="891" on="1"/>
        <pt x="360" y="0" on="1"/>
        <pt x="169" y="0" on="1"/>
        <pt x="169" y="1092" on="1"/>
        <pt x="165" y="1409" on="1"/>
        <pt x="349" y="1409" on="1"/>
        <pt x="356" y="1255" on="0"/>
        <pt x="356" y="1158" on="1"/>
        <pt x="360" y="1158" on="1"/>
        <pt x="432" y="1287" on="0"/>
        <pt x="703" y="1429" on="0"/>
        <pt x="866" y="1429" on="1"/>
        <pt x="1112" y="1429" on="0"/>
        <pt x="1332" y="1171" on="0"/>
        <pt x="1332" y="889" on="1"/>
        <pt x="1332" y="542" on="1"/>
        <pt x="1332" y="320" on="0"/>
        <pt x="1255" y="93" on="0"/>
        <pt x="1085" y="-20" on="0"/>
      </contour>
    </TTGlyph>
    <TTGlyph name="Eng.alt1" xMin="168" yMin="-425" xMax="1373" yMax="1429">
      <contour>
        <pt x="944" y="-425" on="1"/>
        <pt x="849" y="-425" on="0"/>
        <pt x="685" y="-351" on="0"/>
        <pt x="626" y="-277" on="1"/>
        <pt x="753" y="-162" on="1"/>
        <pt x="843" y="-272" on="0"/>
        <pt x="949" y="-272" on="1"/>
        <pt x="1077" y="-272" on="0"/>
        <pt x="1183" y="-58" on="0"/>
        <pt x="1183" y="191" on="1"/>
        <pt x="1183" y="818" on="1"/>
        <pt x="1183" y="1033" on="0"/>
        <pt x="987" y="1274" on="0"/>
        <pt x="811" y="1274" on="1"/>
        <pt x="692" y="1274" on="0"/>
        <pt x="484" y="1170" on="0"/>
        <pt x="363" y="992" on="0"/>
        <pt x="363" y="891" on="1"/>
        <pt x="363" y="0" on="1"/>
        <pt x="172" y="0" on="1"/>
        <pt x="172" y="1092" on="1"/>
        <pt x="168" y="1409" on="1"/>
        <pt x="352" y="1409" on="1"/>
        <pt x="359" y="1255" on="0"/>
        <pt x="359" y="1158" on="1"/>
        <pt x="363" y="1158" on="1"/>
        <pt x="435" y="1287" on="0"/>
        <pt x="706" y="1429" on="0"/>
        <pt x="869" y="1429" on="1"/>
        <pt x="1112" y="1429" on="0"/>
        <pt x="1373" y="1124" on="0"/>
        <pt x="1373" y="839" on="1"/>
        <pt x="1373" y="187" on="1"/>
        <pt x="1373" y="-132" on="0"/>
        <pt x="1161" y="-425" on="0"/>
      </contour>
    </TTGlyph>
    <TTGlyph name="Eng.alt2" xMin="168" yMin="-425" xMax="1312" yMax="1409">
      <contour>
        <pt x="1312" y="-134" on="1"/>
        <pt x="1312" y="-284" on="0"/>
        <pt x="1187" y="-425" on="0"/>
        <pt x="1065" y="-425" on="1"/>
        <pt x="983" y="-425" on="0"/>
        <pt x="918" y="-411" on="1"/>
        <pt x="918" y="-259" on="1"/>
        <pt x="970" y="-270" on="0"/>
        <pt x="1010" y="-270" on="1"/>
        <pt x="1055" y="-270" on="0"/>
        <pt x="1104" y="-242" on="0"/>
        <pt x="1125" y="-177" on="0"/>
        <pt x="1125" y="-94" on="1"/>
        <pt x="1125" y="-3" on="1"/>
        <pt x="328" y="1200" on="1"/>
        <pt x="333" y="1103" on="1"/>
        <pt x="338" y="936" on="1"/>
        <pt x="338" y="0" on="1"/>
        <pt x="168" y="0" on="1"/>
        <pt x="168" y="1409" on="1"/>
        <pt x="390" y="1409" on="1"/>
        <pt x="1152" y="261" on="1"/>
        <pt x="1140" y="457" on="0"/>
        <pt x="1140" y="545" on="1"/>
        <pt x="1140" y="1409" on="1"/>
        <pt x="1312" y="1409" on="1"/>
      </contour>
    </TTGlyph>
    <TTGlyph name="Eng.alt3" xMin="168" yMin="-20" xMax="1373" yMax="1429">
      <contour>
        <pt x="761" y="-20" on="1"/>
        <pt x="581" y="-20" on="0"/>
        <pt x="319" y="101" on="0"/>
        <pt x="182" y="328" on="0"/>
        <pt x="172" y="489" on="1"/>
        <pt x="363" y="489" on="1"/>
        <pt x="373" y="362" on="0"/>
        <pt x="466" y="205" on="0"/>
        <pt x="627" y="131" on="0"/>
        <pt x="765" y="131" on="1"/>
        <pt x="977" y="131" on="0"/>
        <pt x="1183" y="390" on="0"/>
        <pt x="1183" y="665" on="1"/>
        <pt x="1183" y="818" on="1"/>
        <pt x="1183" y="1033" on="0"/>
        <pt x="987" y="1274" on="0"/>
        <pt x="811" y="1274" on="1"/>
        <pt x="692" y="1274" on="0"/>
        <pt x="484" y="1170" on="0"/>
        <pt x="363" y="992" on="0"/>
        <pt x="363" y="891" on="1"/>
        <pt x="363" y="700" on="1"/>
        <pt x="172" y="700" on="1"/>
        <pt x="172" y="1092" on="1"/>
        <pt x="168" y="1409" on="1"/>
        <pt x="352" y="1409" on="1"/>
        <pt x="359" y="1255" on="0"/>
        <pt x="359" y="1178" on="1"/>
        <pt x="363" y="1178" on="1"/>
        <pt x="435" y="1297" on="0"/>
        <pt x="699" y="1429" on="0"/>
        <pt x="869" y="1429" on="1"/>
        <pt x="1112" y="1429" on="0"/>
        <pt x="1373" y="1124" on="0"/>
        <pt x="1373" y="839" on="1"/>
        <pt x="1373" y="661" on="1"/>
        <pt x="1373" y="321" on="0"/>
        <pt x="1064" y="-20" on="0"/>
      </contour>
    </TTGlyph>
    <TTGlyph name="Eogonek" xMin="168" yMin="-427" xMax="1278" yMax="1409">
      <component glyphName="E" x="0" y="0" flags="0x204"/>
      <component glyphName="ogonek" x="848" y="0" flags="0x4"/>
    </TTGlyph>
    <TTGlyph name="Epsilon" xMin="168" yMin="0" xMax="1278" yMax="1409">
      <component glyphName="E" x="0" y="0" flags="0x204"/>
    </TTGlyph>
    <TTGlyph name="Epsilontonos" xMin="-11" yMin="0" xMax="1518" yMax="1411">
      <component glyphName="E" x="240" y="0" flags="0x4"/>
      <component glyphName="tonos" x="-216" y="-132" flags="0x4"/>
    </TTGlyph>
    <TTGlyph name="Eta" xMin="168" yMin="0" xMax="1312" yMax="1409">
      <component glyphName="H" x="0" y="0" flags="0x204"/>
    </TTGlyph>
    <TTGlyph name="Etatonos" xMin="-14" yMin="0" xMax="1549" yMax="1411">
      <component glyphName="H" x="237" y="0" flags="0x4"/>
      <component glyphName="tonos" x="-219" y="-132" flags="0x4"/>
    </TTGlyph>
    <TTGlyph name="Eth" xMin="14" yMin="0" xMax="1381" yMax="1409">
      <contour>
        <pt x="14" y="801" on="1"/>
        <pt x="168" y="801" on="1"/>
        <pt x="168" y="1409" on="1"/>
        <pt x="634" y="1409" on="1"/>
        <pt x="992" y="1409" on="0"/>
        <pt x="1381" y="1050" on="0"/>
        <pt x="1381" y="719" on="1"/>
        <pt x="1381" y="501" on="0"/>
        <pt x="1211" y="174" on="0"/>
        <pt x="899" y="0" on="0"/>
        <pt x="695" y="0" on="1"/>
        <pt x="168" y="0" on="1"/>
        <pt x="168" y="647" on="1"/>
        <pt x="14" y="647" on="1"/>
      </contour>
      <contour>
        <pt x="1189" y="719" on="1"/>
        <pt x="1189" y="981" on="0"/>
        <pt x="902" y="1256" on="0"/>
        <pt x="630" y="1256" on="1"/>
        <pt x="359" y="1256" on="1"/>
        <pt x="359" y="801" on="1"/>
        <pt x="765" y="801" on="1"/>
        <pt x="765" y="647" on="1"/>
        <pt x="359" y="647" on="1"/>
        <pt x="359" y="153" on="1"/>
        <pt x="673" y="153" on="1"/>
        <pt x="828" y="153" on="0"/>
        <pt x="1063" y="289" on="0"/>
        <pt x="1189" y="545" on="0"/>
      </contour>
    </TTGlyph>
    <TTGlyph name="Etilde" xMin="168" yMin="0" xMax="1278" yMax="1798">
      <component glyphName="E" x="0" y="0" flags="0x204"/>
      <component glyphName="tilde.uc" x="390" y="0" flags="0x4"/>
    </TTGlyph>
    <TTGlyph name="Euro" xMin="16" yMin="-20" xMax="1110" yMax="1430">
      <contour>
        <pt x="691" y="126" on="1"/>
        <pt x="791" y="126" on="0"/>
        <pt x="911" y="226" on="0"/>
        <pt x="925" y="317" on="1"/>
        <pt x="1110" y="303" on="1"/>
        <pt x="1080" y="148" on="0"/>
        <pt x="861" y="-20" on="0"/>
        <pt x="687" y="-20" on="1"/>
        <pt x="470" y="-20" on="0"/>
        <pt x="217" y="242" on="0"/>
        <pt x="187" y="502" on="1"/>
        <pt x="16" y="502" on="1"/>
        <pt x="56" y="631" on="1"/>
        <pt x="176" y="631" on="1"/>
        <pt x="173" y="709" on="1"/>
        <pt x="176" y="795" on="1"/>
        <pt x="16" y="795" on="1"/>
        <pt x="56" y="922" on="1"/>
        <pt x="185" y="922" on="1"/>
        <pt x="217" y="1179" on="0"/>
        <pt x="465" y="1430" on="0"/>
        <pt x="684" y="1430" on="1"/>
        <pt x="859" y="1430" on="0"/>
        <pt x="1078" y="1261" on="0"/>
        <pt x="1107" y="1107" on="1"/>
        <pt x="922" y="1093" on="1"/>
        <pt x="908" y="1184" on="0"/>
        <pt x="787" y="1284" on="0"/>
        <pt x="681" y="1284" on="1"/>
        <pt x="539" y="1284" on="0"/>
        <pt x="388" y="1110" on="0"/>
        <pt x="367" y="922" on="1"/>
        <pt x="813" y="922" on="1"/>
        <pt x="773" y="795" on="1"/>
        <pt x="360" y="795" on="1"/>
        <pt x="357" y="771" on="0"/>
        <pt x="357" y="709" on="1"/>
        <pt x="357" y="669" on="0"/>
        <pt x="361" y="631" on="1"/>
        <pt x="813" y="631" on="1"/>
        <pt x="773" y="502" on="1"/>
        <pt x="369" y="502" on="1"/>
        <pt x="391" y="307" on="0"/>
        <pt x="553" y="126" on="0"/>
      </contour>
    </TTGlyph>
    <TTGlyph name="F" xMin="168" yMin="0" xMax="1169" yMax="1409">
      <contour>
        <pt x="359" y="1253" on="1"/>
        <pt x="359" y="729" on="1"/>
        <pt x="1145" y="729" on="1"/>
        <pt x="1145" y="571" on="1"/>
        <pt x="359" y="571" on="1"/>
        <pt x="359" y="0" on="1"/>
        <pt x="168" y="0" on="1"/>
        <pt x="168" y="1409" on="1"/>
        <pt x="1169" y="1409" on="1"/>
        <pt x="1169" y="1253" on="1"/>
      </contour>
    </TTGlyph>
    <TTGlyph name="G" xMin="103" yMin="-20" xMax="1440" yMax="1430">
      <contour>
        <pt x="103" y="711" on="1"/>
        <pt x="103" y="1054" on="0"/>
        <pt x="471" y="1430" on="0"/>
        <pt x="804" y="1430" on="1"/>
        <pt x="1038" y="1430" on="0"/>
        <pt x="1330" y="1272" on="0"/>
        <pt x="1409" y="1098" on="1"/>
        <pt x="1227" y="1044" on="1"/>
        <pt x="1167" y="1164" on="0"/>
        <pt x="956" y="1274" on="0"/>
        <pt x="799" y="1274" on="1"/>
        <pt x="555" y="1274" on="0"/>
        <pt x="297" y="979" on="0"/>
        <pt x="297" y="711" on="1"/>
        <pt x="297" y="444" on="0"/>
        <pt x="571" y="135" on="0"/>
        <pt x="813" y="135" on="1"/>
        <pt x="951" y="135" on="0"/>
        <pt x="1190" y="219" on="0"/>
        <pt x="1264" y="291" on="1"/>
        <pt x="1264" y="545" on="1"/>
        <pt x="843" y="545" on="1"/>
        <pt x="843" y="705" on="1"/>
        <pt x="1440" y="705" on="1"/>
        <pt x="1440" y="219" on="1"/>
        <pt x="1328" y="105" on="0"/>
        <pt x="1003" y="-20" on="0"/>
        <pt x="813" y="-20" on="1"/>
        <pt x="592" y="-20" on="0"/>
        <pt x="272" y="156" on="0"/>
        <pt x="103" y="487" on="0"/>
      </contour>
    </TTGlyph>
    <TTGlyph name="Gamma" xMin="168" yMin="1" xMax="1071" yMax="1410">
      <contour>
        <pt x="1071" y="1410" on="1"/>
        <pt x="1071" y="1254" on="1"/>
        <pt x="359" y="1254" on="1"/>
        <pt x="359" y="1" on="1"/>
        <pt x="168" y="1" on="1"/>
        <pt x="168" y="1410" on="1"/>
      </contour>
    </TTGlyph>
    <TTGlyph name="Gbreve" xMin="103" yMin="-20" xMax="1440" yMax="1779">
      <component glyphName="G" x="0" y="0" flags="0x204"/>
      <component glyphName="breve.uc" x="502" y="0" flags="0x4"/>
    </TTGlyph>
    <TTGlyph name="Gcircumflex" xMin="103" yMin="-20" xMax="1440" yMax="1790">
      <component glyphName="G" x="0" y="0" flags="0x204"/>
      <component glyphName="circumflex.uc" x="475" y="0" flags="0x4"/>
    </TTGlyph>
    <TTGlyph name="Gcommaaccent" xMin="103" yMin="-434" xMax="1440" yMax="1430">
      <component glyphName="G" x="0" y="0" flags="0x204"/>
      <component glyphName="commaaccent" x="590" y="0" flags="0x4"/>
    </TTGlyph>
    <TTGlyph name="Gdotaccent" xMin="103" yMin="-20" xMax="1440" yMax="1777">
      <component glyphName="G" x="0" y="0" flags="0x204"/>
      <component glyphName="dotaccent" x="565" y="293" flags="0x4"/>
    </TTGlyph>
    <TTGlyph name="H" xMin="168" yMin="0" xMax="1312" yMax="1409">
      <contour>
        <pt x="1121" y="0" on="1"/>
        <pt x="1121" y="653" on="1"/>
        <pt x="359" y="653" on="1"/>
        <pt x="359" y="0" on="1"/>
        <pt x="168" y="0" on="1"/>
        <pt x="168" y="1409" on="1"/>
        <pt x="359" y="1409" on="1"/>
        <pt x="359" y="813" on="1"/>
        <pt x="1121" y="813" on="1"/>
        <pt x="1121" y="1409" on="1"/>
        <pt x="1312" y="1409" on="1"/>
        <pt x="1312" y="0" on="1"/>
      </contour>
    </TTGlyph>
    <TTGlyph name="Hbar" xMin="14" yMin="0" xMax="1465" yMax="1409">
      <contour>
        <pt x="1126" y="0" on="1"/>
        <pt x="1126" y="653" on="1"/>
        <pt x="359" y="653" on="1"/>
        <pt x="359" y="0" on="1"/>
        <pt x="168" y="0" on="1"/>
        <pt x="168" y="1025" on="1"/>
        <pt x="14" y="1025" on="1"/>
        <pt x="14" y="1179" on="1"/>
        <pt x="168" y="1179" on="1"/>
        <pt x="168" y="1409" on="1"/>
        <pt x="359" y="1409" on="1"/>
        <pt x="359" y="1179" on="1"/>
        <pt x="1126" y="1179" on="1"/>
        <pt x="1126" y="1409" on="1"/>
        <pt x="1312" y="1409" on="1"/>
        <pt x="1312" y="1179" on="1"/>
        <pt x="1465" y="1179" on="1"/>
        <pt x="1465" y="1025" on="1"/>
        <pt x="1312" y="1025" on="1"/>
        <pt x="1312" y="0" on="1"/>
      </contour>
      <contour>
        <pt x="1126" y="813" on="1"/>
        <pt x="1126" y="1025" on="1"/>
        <pt x="359" y="1025" on="1"/>
        <pt x="359" y="813" on="1"/>
      </contour>
    </TTGlyph>
    <TTGlyph name="Hcircumflex" xMin="168" yMin="0" xMax="1312" yMax="1790">
      <component glyphName="H" x="0" y="0" flags="0x204"/>
      <component glyphName="circumflex.uc" x="409" y="0" flags="0x4"/>
    </TTGlyph>
    <TTGlyph name="I" xMin="189" yMin="0" xMax="380" yMax="1409">
      <contour>
        <pt x="189" y="0" on="1"/>
        <pt x="189" y="1409" on="1"/>
        <pt x="380" y="1409" on="1"/>
        <pt x="380" y="0" on="1"/>
      </contour>
    </TTGlyph>
    <TTGlyph name="IJ" xMin="170" yMin="-20" xMax="1353" yMax="1409">
      <component glyphName="I" x="-19" y="0" flags="0x4"/>
      <component glyphName="J" x="481" y="0" flags="0x4"/>
    </TTGlyph>
    <TTGlyph name="Iacute" xMin="142" yMin="0" xMax="566" yMax="1776">
      <component glyphName="I" x="0" y="0" flags="0x204"/>
      <component glyphName="acute.uc" x="70" y="0" flags="0x4"/>
    </TTGlyph>
    <TTGlyph name="Ibreve" xMin="-46" yMin="0" xMax="620" yMax="1779">
      <component glyphName="I" x="0" y="0" flags="0x204"/>
      <component glyphName="breve.uc" x="-22" y="0" flags="0x4"/>
    </TTGlyph>
    <TTGlyph name="Icircumflex" xMin="-46" yMin="0" xMax="616" yMax="1790">
      <component glyphName="I" x="0" y="0" flags="0x204"/>
      <component glyphName="circumflex.uc" x="-46" y="0" flags="0x4"/>
    </TTGlyph>
    <TTGlyph name="Idieresis" xMin="7" yMin="0" xMax="564" yMax="1714">
      <component glyphName="I" x="0" y="0" flags="0x204"/>
      <component glyphName="dieresis.uc" x="-38" y="0" flags="0x4"/>
    </TTGlyph>
    <TTGlyph name="Idotaccent" xMin="189" yMin="0" xMax="380" yMax="1777">
      <component glyphName="I" x="0" y="0" flags="0x204"/>
      <component glyphName="dotaccent" x="39" y="293" flags="0x4"/>
    </TTGlyph>
    <TTGlyph name="Idotbelow" xMin="188" yMin="-311" xMax="380" yMax="1409">
      <component glyphName="I" x="0" y="0" flags="0x204"/>
      <component glyphName="dotbelow.alt1" x="429" y="0" flags="0x4"/>
    </TTGlyph>
    <TTGlyph name="Igrave" xMin="9" yMin="0" xMax="433" yMax="1776">
      <component glyphName="I" x="0" y="0" flags="0x204"/>
      <component glyphName="grave.uc" x="-97" y="0" flags="0x4"/>
    </TTGlyph>
    <TTGlyph name="Ihookabove" xMin="81" yMin="0" xMax="514" yMax="1835">
      <component glyphName="I" x="0" y="0" flags="0x4"/>
      <component glyphName="hookabovecomb" x="570" y="0" flags="0x4"/>
    </TTGlyph>
    <TTGlyph name="Imacron" xMin="12" yMin="0" xMax="561" yMax="1692">
      <component glyphName="I" x="0" y="0" flags="0x204"/>
      <component glyphName="macron" x="-39" y="329" flags="0x4"/>
    </TTGlyph>
    <TTGlyph name="Iogonek" xMin="92" yMin="-427" xMax="442" yMax="1409">
      <component glyphName="I" x="0" y="0" flags="0x204"/>
      <component glyphName="ogonek" x="12" y="0" flags="0x4"/>
    </TTGlyph>
    <TTGlyph name="Iota" xMin="189" yMin="0" xMax="380" yMax="1409">
      <component glyphName="I" x="0" y="0" flags="0x204"/>
    </TTGlyph>
    <TTGlyph name="Iotadieresis" xMin="7" yMin="0" xMax="564" yMax="1714">
      <component glyphName="I" x="0" y="0" flags="0x204"/>
      <component glyphName="dieresis.uc" x="-38" y="0" flags="0x4"/>
    </TTGlyph>
    <TTGlyph name="Iotatonos" xMin="-24" yMin="0" xMax="597" yMax="1411">
      <component glyphName="I" x="217" y="0" flags="0x4"/>
      <component glyphName="tonos" x="-229" y="-132" flags="0x4"/>
    </TTGlyph>
    <TTGlyph name="Itilde" xMin="-72" yMin="0" xMax="645" yMax="1798">
      <component glyphName="I" x="0" y="0" flags="0x204"/>
      <component glyphName="tilde.uc" x="-49" y="0" flags="0x4"/>
    </TTGlyph>
    <TTGlyph name="J" xMin="32" yMin="-20" xMax="872" yMax="1409">
      <contour>
        <pt x="457" y="-20" on="1"/>
        <pt x="99" y="-20" on="0"/>
        <pt x="32" y="350" on="1"/>
        <pt x="219" y="381" on="1"/>
        <pt x="237" y="265" on="0"/>
        <pt x="363" y="135" on="0"/>
        <pt x="458" y="135" on="1"/>
        <pt x="562" y="135" on="0"/>
        <pt x="682" y="278" on="0"/>
        <pt x="682" y="416" on="1"/>
        <pt x="682" y="1253" on="1"/>
        <pt x="411" y="1253" on="1"/>
        <pt x="411" y="1409" on="1"/>
        <pt x="872" y="1409" on="1"/>
        <pt x="872" y="420" on="1"/>
        <pt x="872" y="215" on="0"/>
        <pt x="650" y="-20" on="0"/>
      </contour>
    </TTGlyph>
    <TTGlyph name="Jcircumflex" xMin="32" yMin="-20" xMax="973" yMax="1790">
      <component glyphName="J" x="0" y="0" flags="0x204"/>
      <component glyphName="circumflex.uc" x="311" y="0" flags="0x4"/>
    </TTGlyph>
    <TTGlyph name="K" xMin="168" yMin="0" xMax="1343" yMax="1409">
      <contour>
        <pt x="1106" y="0" on="1"/>
        <pt x="543" y="680" on="1"/>
        <pt x="359" y="540" on="1"/>
        <pt x="359" y="0" on="1"/>
        <pt x="168" y="0" on="1"/>
        <pt x="168" y="1409" on="1"/>
        <pt x="359" y="1409" on="1"/>
        <pt x="359" y="703" on="1"/>
        <pt x="1038" y="1409" on="1"/>
        <pt x="1263" y="1409" on="1"/>
        <pt x="663" y="797" on="1"/>
        <pt x="1343" y="0" on="1"/>
      </contour>
    </TTGlyph>
    <TTGlyph name="Kappa" xMin="168" yMin="0" xMax="1343" yMax="1409">
      <component glyphName="K" x="0" y="0" flags="0x204"/>
    </TTGlyph>
    <TTGlyph name="Kcommaaccent" xMin="168" yMin="-434" xMax="1343" yMax="1409">
      <component glyphName="K" x="0" y="0" flags="0x204"/>
      <component glyphName="commaaccent" x="477" y="0" flags="0x4"/>
    </TTGlyph>
    <TTGlyph name="L" xMin="168" yMin="0" xMax="1071" yMax="1409">
      <contour>
        <pt x="168" y="0" on="1"/>
        <pt x="168" y="1409" on="1"/>
        <pt x="359" y="1409" on="1"/>
        <pt x="359" y="156" on="1"/>
        <pt x="1071" y="156" on="1"/>
        <pt x="1071" y="0" on="1"/>
      </contour>
    </TTGlyph>
    <TTGlyph name="Lacute" xMin="168" yMin="0" xMax="1071" yMax="1776">
      <component glyphName="L" x="0" y="0" flags="0x204"/>
      <component glyphName="acute.uc" x="173" y="0" flags="0x4"/>
    </TTGlyph>
    <TTGlyph name="Lambda" xMin="10" yMin="1" xMax="1358" yMax="1410">
      <contour>
        <pt x="1358" y="1" on="1"/>
        <pt x="1157" y="1" on="1"/>
        <pt x="769" y="993" on="1"/>
        <pt x="685" y="1242" on="1"/>
        <pt x="601" y="993" on="1"/>
        <pt x="211" y="1" on="1"/>
        <pt x="10" y="1" on="1"/>
        <pt x="585" y="1410" on="1"/>
        <pt x="783" y="1410" on="1"/>
      </contour>
    </TTGlyph>
    <TTGlyph name="Lcaron" xMin="168" yMin="0" xMax="1071" yMax="1409">
      <component glyphName="L" x="0" y="0" flags="0x204"/>
      <component glyphName="caroncommaaccent" x="533" y="0" flags="0x4"/>
    </TTGlyph>
    <TTGlyph name="Lcommaaccent" xMin="168" yMin="-434" xMax="1071" yMax="1409">
      <component glyphName="L" x="0" y="0" flags="0x204"/>
      <component glyphName="commaaccent" x="389" y="0" flags="0x4"/>
    </TTGlyph>
    <TTGlyph name="Ldot" xMin="168" yMin="0" xMax="1071" yMax="1409">
      <component glyphName="L" x="0" y="0" flags="0x204"/>
      <component glyphName="dotaccent" x="469" y="-625" flags="0x4"/>
    </TTGlyph>
    <TTGlyph name="Lslash" xMin="20" yMin="0" xMax="1071" yMax="1409">
      <contour>
        <pt x="616" y="797" on="1"/>
        <pt x="359" y="648" on="1"/>
        <pt x="359" y="156" on="1"/>
        <pt x="1071" y="156" on="1"/>
        <pt x="1071" y="0" on="1"/>
        <pt x="168" y="0" on="1"/>
        <pt x="168" y="538" on="1"/>
        <pt x="20" y="453" on="1"/>
        <pt x="20" y="611" on="1"/>
        <pt x="168" y="696" on="1"/>
        <pt x="168" y="1409" on="1"/>
        <pt x="359" y="1409" on="1"/>
        <pt x="359" y="806" on="1"/>
        <pt x="616" y="954" on="1"/>
      </contour>
    </TTGlyph>
    <TTGlyph name="M" xMin="168" yMin="0" xMax="1538" yMax="1409">
      <contour>
        <pt x="1366" y="0" on="1"/>
        <pt x="1366" y="940" on="1"/>
        <pt x="1366" y="1096" on="0"/>
        <pt x="1375" y="1240" on="1"/>
        <pt x="1326" y="1061" on="0"/>
        <pt x="1287" y="960" on="1"/>
        <pt x="923" y="0" on="1"/>
        <pt x="789" y="0" on="1"/>
        <pt x="420" y="960" on="1"/>
        <pt x="364" y="1130" on="1"/>
        <pt x="331" y="1240" on="1"/>
        <pt x="334" y="1129" on="1"/>
        <pt x="338" y="940" on="1"/>
        <pt x="338" y="0" on="1"/>
        <pt x="168" y="0" on="1"/>
        <pt x="168" y="1409" on="1"/>
        <pt x="419" y="1409" on="1"/>
        <pt x="794" y="432" on="1"/>
        <pt x="814" y="373" on="0"/>
        <pt x="851" y="238" on="0"/>
        <pt x="857" y="208" on="1"/>
        <pt x="865" y="248" on="0"/>
        <pt x="916" y="411" on="0"/>
        <pt x="925" y="432" on="1"/>
        <pt x="1293" y="1409" on="1"/>
        <pt x="1538" y="1409" on="1"/>
        <pt x="1538" y="0" on="1"/>
      </contour>
    </TTGlyph>
    <TTGlyph name="Mu" xMin="168" yMin="0" xMax="1538" yMax="1409">
      <component glyphName="M" x="0" y="0" flags="0x204"/>
    </TTGlyph>
    <TTGlyph name="N" xMin="168" yMin="0" xMax="1312" yMax="1409">
      <contour>
        <pt x="1082" y="0" on="1"/>
        <pt x="328" y="1200" on="1"/>
        <pt x="333" y="1103" on="1"/>
        <pt x="338" y="936" on="1"/>
        <pt x="338" y="0" on="1"/>
        <pt x="168" y="0" on="1"/>
        <pt x="168" y="1409" on="1"/>
        <pt x="390" y="1409" on="1"/>
        <pt x="1152" y="201" on="1"/>
        <pt x="1140" y="397" on="0"/>
        <pt x="1140" y="485" on="1"/>
        <pt x="1140" y="1409" on="1"/>
        <pt x="1312" y="1409" on="1"/>
        <pt x="1312" y="0" on="1"/>
      </contour>
    </TTGlyph>
    <TTGlyph name="Nacute" xMin="168" yMin="0" xMax="1312" yMax="1776">
      <component glyphName="N" x="0" y="0" flags="0x204"/>
      <component glyphName="acute.uc" x="529" y="0" flags="0x4"/>
    </TTGlyph>
    <TTGlyph name="Ncaron" xMin="168" yMin="0" xMax="1312" yMax="1790">
      <component glyphName="N" x="0" y="0" flags="0x204"/>
      <component glyphName="caron.uc" x="403" y="0" flags="0x4"/>
    </TTGlyph>
    <TTGlyph name="Ncommaaccent" xMin="168" yMin="-434" xMax="1312" yMax="1409">
      <component glyphName="N" x="0" y="0" flags="0x204"/>
      <component glyphName="commaaccent" x="508" y="0" flags="0x4"/>
    </TTGlyph>
    <TTGlyph name="Ntilde" xMin="168" yMin="0" xMax="1312" yMax="1798">
      <component glyphName="N" x="0" y="0" flags="0x204"/>
      <component glyphName="tilde.uc" x="417" y="0" flags="0x4"/>
    </TTGlyph>
    <TTGlyph name="Nu" xMin="168" yMin="0" xMax="1312" yMax="1409">
      <component glyphName="N" x="0" y="0" flags="0x204"/>
    </TTGlyph>
    <TTGlyph name="O" xMin="97" yMin="-20" xMax="1495" yMax="1430">
      <contour>
        <pt x="1495" y="711" on="1"/>
        <pt x="1495" y="490" on="0"/>
        <pt x="1326" y="158" on="0"/>
        <pt x="1010" y="-20" on="0"/>
        <pt x="795" y="-20" on="1"/>
        <pt x="578" y="-20" on="0"/>
        <pt x="263" y="156" on="0"/>
        <pt x="97" y="489" on="0"/>
        <pt x="97" y="711" on="1"/>
        <pt x="97" y="1049" on="0"/>
        <pt x="467" y="1430" on="0"/>
        <pt x="797" y="1430" on="1"/>
        <pt x="1012" y="1430" on="0"/>
        <pt x="1328" y="1259" on="0"/>
        <pt x="1495" y="933" on="0"/>
      </contour>
      <contour>
        <pt x="1300" y="711" on="1"/>
        <pt x="1300" y="974" on="0"/>
        <pt x="1037" y="1274" on="0"/>
        <pt x="797" y="1274" on="1"/>
        <pt x="555" y="1274" on="0"/>
        <pt x="291" y="978" on="0"/>
        <pt x="291" y="711" on="1"/>
        <pt x="291" y="446" on="0"/>
        <pt x="558" y="135" on="0"/>
        <pt x="795" y="135" on="1"/>
        <pt x="1039" y="135" on="0"/>
        <pt x="1300" y="436" on="0"/>
      </contour>
    </TTGlyph>
    <TTGlyph name="OE" xMin="97" yMin="-10" xMax="1958" yMax="1420">
      <contour>
        <pt x="999" y="0" on="1"/>
        <pt x="932" y="-10" on="0"/>
        <pt x="789" y="-10" on="1"/>
        <pt x="466" y="-10" on="0"/>
        <pt x="97" y="376" on="0"/>
        <pt x="97" y="711" on="1"/>
        <pt x="97" y="1043" on="0"/>
        <pt x="465" y="1420" on="0"/>
        <pt x="791" y="1420" on="1"/>
        <pt x="898" y="1420" on="0"/>
        <pt x="1003" y="1409" on="1"/>
        <pt x="1917" y="1409" on="1"/>
        <pt x="1917" y="1253" on="1"/>
        <pt x="1114" y="1253" on="1"/>
        <pt x="1114" y="801" on="1"/>
        <pt x="1857" y="801" on="1"/>
        <pt x="1857" y="647" on="1"/>
        <pt x="1114" y="647" on="1"/>
        <pt x="1114" y="156" on="1"/>
        <pt x="1958" y="156" on="1"/>
        <pt x="1958" y="0" on="1"/>
      </contour>
      <contour>
        <pt x="789" y="145" on="1"/>
        <pt x="871" y="145" on="0"/>
        <pt x="923" y="149" on="1"/>
        <pt x="923" y="1260" on="1"/>
        <pt x="879" y="1264" on="0"/>
        <pt x="806" y="1264" on="0"/>
        <pt x="791" y="1264" on="1"/>
        <pt x="546" y="1264" on="0"/>
        <pt x="291" y="978" on="0"/>
        <pt x="291" y="711" on="1"/>
        <pt x="291" y="443" on="0"/>
        <pt x="554" y="145" on="0"/>
      </contour>
    </TTGlyph>
    <TTGlyph name="Oacute" xMin="97" yMin="-20" xMax="1495" yMax="1776">
      <component glyphName="O" x="0" y="0" flags="0x204"/>
      <component glyphName="acute.uc" x="549" y="0" flags="0x4"/>
    </TTGlyph>
    <TTGlyph name="Obreve" xMin="97" yMin="-20" xMax="1495" yMax="1779">
      <component glyphName="O" x="0" y="0" flags="0x204"/>
      <component glyphName="breve.uc" x="487" y="0" flags="0x4"/>
    </TTGlyph>
    <TTGlyph name="Ocircumflex" xMin="97" yMin="-20" xMax="1495" yMax="1790">
      <component glyphName="O" x="0" y="0" flags="0x204"/>
      <component glyphName="circumflex.uc" x="469" y="0" flags="0x4"/>
    </TTGlyph>
    <TTGlyph name="Ocircumflexacute" xMin="97" yMin="-20" xMax="1495" yMax="1835">
      <component glyphName="O" x="0" y="0" flags="0x204"/>
      <component glyphName="circumflexacute" x="796" y="0" flags="0x4"/>
    </TTGlyph>
    <TTGlyph name="Ocircumflexdotbelow" xMin="97" yMin="-311" xMax="1495" yMax="1795">
      <component glyphName="O" x="0" y="0" flags="0x204"/>
      <component glyphName="circumflex.uc" x="456" y="5" flags="0x4"/>
      <component glyphName="dotbelow.alt1" x="940" y="0" flags="0x4"/>
    </TTGlyph>
    <TTGlyph name="Ocircumflexgrave" xMin="97" yMin="-20" xMax="1495" yMax="1835">
      <component glyphName="O" x="0" y="0" flags="0x204"/>
      <component glyphName="circumflexgrave" x="796" y="0" flags="0x4"/>
    </TTGlyph>
    <TTGlyph name="Ocircumflexhookabove" xMin="97" yMin="-20" xMax="1495" yMax="1835">
      <component glyphName="O" x="0" y="0" flags="0x204"/>
      <component glyphName="circumflexhook" x="796" y="0" flags="0x4"/>
    </TTGlyph>
    <TTGlyph name="Ocircumflextilde" xMin="97" yMin="-20" xMax="1495" yMax="1835">
      <component glyphName="O" x="0" y="0" flags="0x204"/>
      <component glyphName="circumflextilde" x="796" y="0" flags="0x4"/>
    </TTGlyph>
    <TTGlyph name="Odieresis" xMin="97" yMin="-20" xMax="1495" yMax="1714">
      <component glyphName="O" x="0" y="0" flags="0x204"/>
      <component glyphName="dieresis.uc" x="471" y="0" flags="0x4"/>
    </TTGlyph>
    <TTGlyph name="Odotbelow" xMin="97" yMin="-311" xMax="1495" yMax="1430">
      <component glyphName="O" x="0" y="0" flags="0x204"/>
      <component glyphName="dotbelow.alt1" x="940" y="0" flags="0x4"/>
    </TTGlyph>
    <TTGlyph name="Ograve" xMin="97" yMin="-20" xMax="1495" yMax="1776">
      <component glyphName="O" x="0" y="0" flags="0x204"/>
      <component glyphName="grave.uc" x="438" y="0" flags="0x4"/>
    </TTGlyph>
    <TTGlyph name="Ohm" xMin="108" yMin="0" xMax="1464" yMax="1430">
      <contour>
        <pt x="786" y="1430" on="1"/>
        <pt x="1089" y="1430" on="0"/>
        <pt x="1436" y="1095" on="0"/>
        <pt x="1436" y="801" on="1"/>
        <pt x="1436" y="600" on="0"/>
        <pt x="1221" y="260" on="0"/>
        <pt x="1012" y="145" on="1"/>
        <pt x="1093" y="150" on="1"/>
        <pt x="1220" y="156" on="1"/>
        <pt x="1464" y="156" on="1"/>
        <pt x="1464" y="0" on="1"/>
        <pt x="875" y="0" on="1"/>
        <pt x="875" y="224" on="1"/>
        <pt x="1054" y="319" on="0"/>
        <pt x="1241" y="604" on="0"/>
        <pt x="1241" y="788" on="1"/>
        <pt x="1241" y="1020" on="0"/>
        <pt x="1003" y="1274" on="0"/>
        <pt x="787" y="1274" on="1"/>
        <pt x="569" y="1274" on="0"/>
        <pt x="331" y="1020" on="0"/>
        <pt x="331" y="788" on="1"/>
        <pt x="331" y="605" on="0"/>
        <pt x="517" y="320" on="0"/>
        <pt x="697" y="224" on="1"/>
        <pt x="697" y="0" on="1"/>
        <pt x="108" y="0" on="1"/>
        <pt x="108" y="156" on="1"/>
        <pt x="352" y="156" on="1"/>
        <pt x="479" y="150" on="1"/>
        <pt x="560" y="145" on="1"/>
        <pt x="352" y="258" on="0"/>
        <pt x="136" y="599" on="0"/>
        <pt x="136" y="801" on="1"/>
        <pt x="136" y="1095" on="0"/>
        <pt x="483" y="1430" on="0"/>
      </contour>
    </TTGlyph>
    <TTGlyph name="Ohookabove" xMin="97" yMin="-20" xMax="1495" yMax="1835">
      <component glyphName="O" x="0" y="0" flags="0x204"/>
      <component glyphName="hookabovecomb" x="1080" y="0" flags="0x4"/>
    </TTGlyph>
    <TTGlyph name="Ohorn" xMin="97" yMin="-20" xMax="1709" yMax="1430">
      <contour>
        <pt x="1495" y="711" on="1"/>
        <pt x="1495" y="490" on="0"/>
        <pt x="1326" y="158" on="0"/>
        <pt x="1010" y="-20" on="0"/>
        <pt x="795" y="-20" on="1"/>
        <pt x="578" y="-20" on="0"/>
        <pt x="263" y="156" on="0"/>
        <pt x="97" y="489" on="0"/>
        <pt x="97" y="711" on="1"/>
        <pt x="97" y="1049" on="0"/>
        <pt x="467" y="1430" on="0"/>
        <pt x="797" y="1430" on="1"/>
        <pt x="1041" y="1430" on="0"/>
        <pt x="1373" y="1215" on="0"/>
        <pt x="1445" y="1019" on="1"/>
        <pt x="1533" y="1063" on="0"/>
        <pt x="1602" y="1169" on="0"/>
        <pt x="1602" y="1242" on="1"/>
        <pt x="1514" y="1242" on="1"/>
        <pt x="1514" y="1409" on="1"/>
        <pt x="1709" y="1409" on="1"/>
        <pt x="1709" y="1303" on="1"/>
        <pt x="1709" y="1180" on="0"/>
        <pt x="1594" y="997" on="0"/>
        <pt x="1469" y="936" on="1"/>
        <pt x="1495" y="830" on="0"/>
      </contour>
      <contour>
        <pt x="1300" y="711" on="1"/>
        <pt x="1300" y="974" on="0"/>
        <pt x="1037" y="1274" on="0"/>
        <pt x="797" y="1274" on="1"/>
        <pt x="555" y="1274" on="0"/>
        <pt x="291" y="978" on="0"/>
        <pt x="291" y="711" on="1"/>
        <pt x="291" y="446" on="0"/>
        <pt x="558" y="135" on="0"/>
        <pt x="795" y="135" on="1"/>
        <pt x="1039" y="135" on="0"/>
        <pt x="1300" y="436" on="0"/>
      </contour>
    </TTGlyph>
    <TTGlyph name="Ohornacute" xMin="97" yMin="-20" xMax="1709" yMax="1776">
      <component glyphName="Ohorn" x="0" y="0" flags="0x204"/>
      <component glyphName="acute.uc" x="569" y="0" flags="0x4"/>
    </TTGlyph>
    <TTGlyph name="Ohorndotbelow" xMin="97" yMin="-311" xMax="1709" yMax="1430">
      <component glyphName="Ohorn" x="0" y="0" flags="0x204"/>
      <component glyphName="dotbelow.alt1" x="940" y="0" flags="0x4"/>
    </TTGlyph>
    <TTGlyph name="Ohorngrave" xMin="97" yMin="-20" xMax="1709" yMax="1776">
      <component glyphName="Ohorn" x="0" y="0" flags="0x204"/>
      <component glyphName="grave.uc" x="428" y="0" flags="0x4"/>
    </TTGlyph>
    <TTGlyph name="Ohornhookabove" xMin="97" yMin="-20" xMax="1709" yMax="1835">
      <component glyphName="Ohorn" x="0" y="0" flags="0x204"/>
      <component glyphName="hookabovecomb" x="1080" y="0" flags="0x4"/>
    </TTGlyph>
    <TTGlyph name="Ohorntilde" xMin="97" yMin="-20" xMax="1709" yMax="1798">
      <component glyphName="Ohorn" x="0" y="0" flags="0x204"/>
      <component glyphName="tilde.uc" x="459" y="0" flags="0x4"/>
    </TTGlyph>
    <TTGlyph name="Ohungarumlaut" xMin="97" yMin="-20" xMax="1495" yMax="1777">
      <component glyphName="O" x="0" y="0" flags="0x204"/>
      <component glyphName="hungarumlaut.uc" x="482" y="0" flags="0x4"/>
    </TTGlyph>
    <TTGlyph name="Omacron" xMin="97" yMin="-20" xMax="1495" yMax="1692">
      <component glyphName="O" x="0" y="0" flags="0x204"/>
      <component glyphName="macron" x="470" y="329" flags="0x4"/>
    </TTGlyph>
    <TTGlyph name="Omega" xMin="87" yMin="0" xMax="1443" yMax="1430">
      <contour>
        <pt x="765" y="1430" on="1"/>
        <pt x="1068" y="1430" on="0"/>
        <pt x="1415" y="1095" on="0"/>
        <pt x="1415" y="801" on="1"/>
        <pt x="1415" y="600" on="0"/>
        <pt x="1200" y="260" on="0"/>
        <pt x="991" y="145" on="1"/>
        <pt x="1072" y="150" on="1"/>
        <pt x="1199" y="156" on="1"/>
        <pt x="1443" y="156" on="1"/>
        <pt x="1443" y="0" on="1"/>
        <pt x="854" y="0" on="1"/>
        <pt x="854" y="224" on="1"/>
        <pt x="1033" y="319" on="0"/>
        <pt x="1220" y="604" on="0"/>
        <pt x="1220" y="788" on="1"/>
        <pt x="1220" y="1020" on="0"/>
        <pt x="982" y="1274" on="0"/>
        <pt x="766" y="1274" on="1"/>
        <pt x="548" y="1274" on="0"/>
        <pt x="310" y="1020" on="0"/>
        <pt x="310" y="788" on="1"/>
        <pt x="310" y="605" on="0"/>
        <pt x="496" y="320" on="0"/>
        <pt x="676" y="224" on="1"/>
        <pt x="676" y="0" on="1"/>
        <pt x="87" y="0" on="1"/>
        <pt x="87" y="156" on="1"/>
        <pt x="331" y="156" on="1"/>
        <pt x="458" y="150" on="1"/>
        <pt x="539" y="145" on="1"/>
        <pt x="331" y="258" on="0"/>
        <pt x="115" y="599" on="0"/>
        <pt x="115" y="801" on="1"/>
        <pt x="115" y="1095" on="0"/>
        <pt x="462" y="1430" on="0"/>
      </contour>
    </TTGlyph>
    <TTGlyph name="Omegatonos" xMin="-69" yMin="0" xMax="1453" yMax="1430">
      <component glyphName="Omega" x="10" y="0" flags="0x4"/>
      <component glyphName="tonos" x="-274" y="-132" flags="0x4"/>
    </TTGlyph>
    <TTGlyph name="Omicron" xMin="97" yMin="-20" xMax="1495" yMax="1430">
      <component glyphName="O" x="0" y="0" flags="0x204"/>
    </TTGlyph>
    <TTGlyph name="Omicrontonos" xMin="-69" yMin="-20" xMax="1491" yMax="1430">
      <component glyphName="O" x="-4" y="0" flags="0x4"/>
      <component glyphName="tonos" x="-274" y="-132" flags="0x4"/>
    </TTGlyph>
    <TTGlyph name="Oslash" xMin="71" yMin="-53" xMax="1524" yMax="1466">
      <contour>
        <pt x="1495" y="711" on="1"/>
        <pt x="1495" y="490" on="0"/>
        <pt x="1326" y="158" on="0"/>
        <pt x="1010" y="-20" on="0"/>
        <pt x="795" y="-20" on="1"/>
        <pt x="549" y="-20" on="0"/>
        <pt x="381" y="92" on="1"/>
        <pt x="261" y="-53" on="1"/>
        <pt x="71" y="-53" on="1"/>
        <pt x="271" y="188" on="1"/>
        <pt x="97" y="380" on="0"/>
        <pt x="97" y="711" on="1"/>
        <pt x="97" y="1049" on="0"/>
        <pt x="467" y="1430" on="0"/>
        <pt x="797" y="1430" on="1"/>
        <pt x="1044" y="1430" on="0"/>
        <pt x="1211" y="1320" on="1"/>
        <pt x="1332" y="1466" on="1"/>
        <pt x="1524" y="1466" on="1"/>
        <pt x="1323" y="1224" on="1"/>
        <pt x="1495" y="1034" on="0"/>
      </contour>
      <contour>
        <pt x="1300" y="711" on="1"/>
        <pt x="1300" y="935" on="0"/>
        <pt x="1202" y="1079" on="1"/>
        <pt x="493" y="226" on="1"/>
        <pt x="615" y="135" on="0"/>
        <pt x="795" y="135" on="1"/>
        <pt x="1039" y="135" on="0"/>
        <pt x="1300" y="436" on="0"/>
      </contour>
      <contour>
        <pt x="291" y="711" on="1"/>
        <pt x="291" y="482" on="0"/>
        <pt x="392" y="333" on="1"/>
        <pt x="1099" y="1186" on="1"/>
        <pt x="975" y="1274" on="0"/>
        <pt x="797" y="1274" on="1"/>
        <pt x="555" y="1274" on="0"/>
        <pt x="291" y="978" on="0"/>
      </contour>
    </TTGlyph>
    <TTGlyph name="Oslashacute" xMin="71" yMin="-53" xMax="1524" yMax="1776">
      <component glyphName="Oslash" x="0" y="0" flags="0x204"/>
      <component glyphName="acute.uc" x="587" y="0" flags="0x4"/>
    </TTGlyph>
    <TTGlyph name="Otilde" xMin="97" yMin="-20" xMax="1495" yMax="1798">
      <component glyphName="O" x="0" y="0" flags="0x204"/>
      <component glyphName="tilde.uc" x="449" y="0" flags="0x4"/>
    </TTGlyph>
    <TTGlyph name="P" xMin="168" yMin="0" xMax="1258" yMax="1409">
      <contour>
        <pt x="1258" y="985" on="1"/>
        <pt x="1258" y="785" on="0"/>
        <pt x="997" y="549" on="0"/>
        <pt x="773" y="549" on="1"/>
        <pt x="359" y="549" on="1"/>
        <pt x="359" y="0" on="1"/>
        <pt x="168" y="0" on="1"/>
        <pt x="168" y="1409" on="1"/>
        <pt x="761" y="1409" on="1"/>
        <pt x="998" y="1409" on="0"/>
        <pt x="1258" y="1187" on="0"/>
      </contour>
      <contour>
        <pt x="1066" y="983" on="1"/>
        <pt x="1066" y="1256" on="0"/>
        <pt x="738" y="1256" on="1"/>
        <pt x="359" y="1256" on="1"/>
        <pt x="359" y="700" on="1"/>
        <pt x="746" y="700" on="1"/>
        <pt x="1066" y="700" on="0"/>
      </contour>
    </TTGlyph>
    <TTGlyph name="Phi" xMin="117" yMin="-11" xMax="1518" yMax="1419">
      <contour>
        <pt x="1518" y="736" on="1"/>
        <pt x="1518" y="583" on="0"/>
        <pt x="1391" y="346" on="0"/>
        <pt x="1153" y="216" on="0"/>
        <pt x="993" y="216" on="1"/>
        <pt x="910" y="216" on="1"/>
        <pt x="910" y="-11" on="1"/>
        <pt x="725" y="-11" on="1"/>
        <pt x="725" y="216" on="1"/>
        <pt x="642" y="216" on="1"/>
        <pt x="481" y="216" on="0"/>
        <pt x="243" y="347" on="0"/>
        <pt x="117" y="584" on="0"/>
        <pt x="117" y="736" on="1"/>
        <pt x="117" y="974" on="0"/>
        <pt x="396" y="1237" on="0"/>
        <pt x="653" y="1237" on="1"/>
        <pt x="725" y="1237" on="1"/>
        <pt x="725" y="1419" on="1"/>
        <pt x="910" y="1419" on="1"/>
        <pt x="910" y="1237" on="1"/>
        <pt x="981" y="1237" on="1"/>
        <pt x="1239" y="1237" on="0"/>
        <pt x="1518" y="973" on="0"/>
      </contour>
      <contour>
        <pt x="1326" y="732" on="1"/>
        <pt x="1326" y="1099" on="0"/>
        <pt x="958" y="1099" on="1"/>
        <pt x="910" y="1099" on="1"/>
        <pt x="910" y="353" on="1"/>
        <pt x="966" y="353" on="1"/>
        <pt x="1140" y="353" on="0"/>
        <pt x="1326" y="545" on="0"/>
      </contour>
      <contour>
        <pt x="309" y="732" on="1"/>
        <pt x="309" y="545" on="0"/>
        <pt x="495" y="353" on="0"/>
        <pt x="669" y="353" on="1"/>
        <pt x="725" y="353" on="1"/>
        <pt x="725" y="1099" on="1"/>
        <pt x="673" y="1099" on="1"/>
        <pt x="491" y="1099" on="0"/>
        <pt x="309" y="919" on="0"/>
      </contour>
    </TTGlyph>
    <TTGlyph name="Pi" xMin="168" yMin="0" xMax="1312" yMax="1409">
      <contour>
        <pt x="1121" y="0" on="1"/>
        <pt x="1121" y="1248" on="1"/>
        <pt x="359" y="1248" on="1"/>
        <pt x="359" y="0" on="1"/>
        <pt x="168" y="0" on="1"/>
        <pt x="168" y="1409" on="1"/>
        <pt x="1312" y="1409" on="1"/>
        <pt x="1312" y="0" on="1"/>
      </contour>
    </TTGlyph>
    <TTGlyph name="Psi" xMin="145" yMin="0" xMax="1566" yMax="1409">
      <contour>
        <pt x="763" y="0" on="1"/>
        <pt x="763" y="427" on="1"/>
        <pt x="680" y="427" on="1"/>
        <pt x="519" y="427" on="0"/>
        <pt x="275" y="558" on="0"/>
        <pt x="145" y="795" on="0"/>
        <pt x="145" y="946" on="1"/>
        <pt x="145" y="1409" on="1"/>
        <pt x="336" y="1409" on="1"/>
        <pt x="336" y="942" on="1"/>
        <pt x="336" y="770" on="0"/>
        <pt x="535" y="568" on="0"/>
        <pt x="707" y="568" on="1"/>
        <pt x="763" y="568" on="1"/>
        <pt x="763" y="1409" on="1"/>
        <pt x="948" y="1409" on="1"/>
        <pt x="948" y="568" on="1"/>
        <pt x="1004" y="568" on="1"/>
        <pt x="1180" y="568" on="0"/>
        <pt x="1375" y="767" on="0"/>
        <pt x="1375" y="942" on="1"/>
        <pt x="1375" y="1409" on="1"/>
        <pt x="1566" y="1409" on="1"/>
        <pt x="1566" y="946" on="1"/>
        <pt x="1566" y="797" on="0"/>
        <pt x="1435" y="559" on="0"/>
        <pt x="1192" y="427" on="0"/>
        <pt x="1031" y="427" on="1"/>
        <pt x="948" y="427" on="1"/>
        <pt x="948" y="0" on="1"/>
      </contour>
    </TTGlyph>
    <TTGlyph name="Q" xMin="97" yMin="-387" xMax="1495" yMax="1430">
      <contour>
        <pt x="1495" y="711" on="1"/>
        <pt x="1495" y="413" on="0"/>
        <pt x="1195" y="29" on="0"/>
        <pt x="928" y="-6" on="1"/>
        <pt x="969" y="-132" on="0"/>
        <pt x="1102" y="-244" on="0"/>
        <pt x="1204" y="-244" on="1"/>
        <pt x="1259" y="-244" on="0"/>
        <pt x="1319" y="-231" on="1"/>
        <pt x="1319" y="-365" on="1"/>
        <pt x="1226" y="-387" on="0"/>
        <pt x="1141" y="-387" on="1"/>
        <pt x="990" y="-387" on="0"/>
        <pt x="795" y="-216" on="0"/>
        <pt x="733" y="-16" on="1"/>
        <pt x="535" y="-6" on="0"/>
        <pt x="248" y="175" on="0"/>
        <pt x="97" y="498" on="0"/>
        <pt x="97" y="711" on="1"/>
        <pt x="97" y="1049" on="0"/>
        <pt x="467" y="1430" on="0"/>
        <pt x="797" y="1430" on="1"/>
        <pt x="1012" y="1430" on="0"/>
        <pt x="1328" y="1259" on="0"/>
        <pt x="1495" y="933" on="0"/>
      </contour>
      <contour>
        <pt x="1300" y="711" on="1"/>
        <pt x="1300" y="974" on="0"/>
        <pt x="1037" y="1274" on="0"/>
        <pt x="797" y="1274" on="1"/>
        <pt x="555" y="1274" on="0"/>
        <pt x="291" y="978" on="0"/>
        <pt x="291" y="711" on="1"/>
        <pt x="291" y="446" on="0"/>
        <pt x="558" y="135" on="0"/>
        <pt x="795" y="135" on="1"/>
        <pt x="1039" y="135" on="0"/>
        <pt x="1300" y="436" on="0"/>
      </contour>
    </TTGlyph>
    <TTGlyph name="R" xMin="168" yMin="0" xMax="1384" yMax="1409">
      <contour>
        <pt x="1164" y="0" on="1"/>
        <pt x="798" y="585" on="1"/>
        <pt x="359" y="585" on="1"/>
        <pt x="359" y="0" on="1"/>
        <pt x="168" y="0" on="1"/>
        <pt x="168" y="1409" on="1"/>
        <pt x="831" y="1409" on="1"/>
        <pt x="1069" y="1409" on="0"/>
        <pt x="1328" y="1196" on="0"/>
        <pt x="1328" y="1006" on="1"/>
        <pt x="1328" y="849" on="0"/>
        <pt x="1145" y="635" on="0"/>
        <pt x="984" y="607" on="1"/>
        <pt x="1384" y="0" on="1"/>
      </contour>
      <contour>
        <pt x="1136" y="1004" on="1"/>
        <pt x="1136" y="1127" on="0"/>
        <pt x="969" y="1256" on="0"/>
        <pt x="812" y="1256" on="1"/>
        <pt x="359" y="1256" on="1"/>
        <pt x="359" y="736" on="1"/>
        <pt x="820" y="736" on="1"/>
        <pt x="971" y="736" on="0"/>
        <pt x="1136" y="877" on="0"/>
      </contour>
    </TTGlyph>
    <TTGlyph name="Racute" xMin="168" yMin="0" xMax="1384" yMax="1776">
      <component glyphName="R" x="0" y="0" flags="0x204"/>
      <component glyphName="acute.uc" x="481" y="0" flags="0x4"/>
    </TTGlyph>
    <TTGlyph name="Rcaron" xMin="168" yMin="0" xMax="1384" yMax="1790">
      <component glyphName="R" x="0" y="0" flags="0x204"/>
      <component glyphName="caron.uc" x="358" y="0" flags="0x4"/>
    </TTGlyph>
    <TTGlyph name="Rcommaaccent" xMin="168" yMin="-434" xMax="1384" yMax="1409">
      <component glyphName="R" x="0" y="0" flags="0x204"/>
      <component glyphName="commaaccent" x="517" y="0" flags="0x4"/>
    </TTGlyph>
    <TTGlyph name="Rho" xMin="168" yMin="0" xMax="1258" yMax="1409">
      <component glyphName="P" x="0" y="0" flags="0x204"/>
    </TTGlyph>
    <TTGlyph name="S" xMin="93" yMin="-20" xMax="1272" yMax="1430">
      <contour>
        <pt x="1272" y="389" on="1"/>
        <pt x="1272" y="194" on="0"/>
        <pt x="967" y="-20" on="0"/>
        <pt x="690" y="-20" on="1"/>
        <pt x="175" y="-20" on="0"/>
        <pt x="93" y="338" on="1"/>
        <pt x="278" y="375" on="1"/>
        <pt x="310" y="248" on="0"/>
        <pt x="518" y="129" on="0"/>
        <pt x="697" y="129" on="1"/>
        <pt x="882" y="129" on="0"/>
        <pt x="1083" y="256" on="0"/>
        <pt x="1083" y="379" on="1"/>
        <pt x="1083" y="448" on="0"/>
        <pt x="1020" y="534" on="0"/>
        <pt x="906" y="590" on="0"/>
        <pt x="748" y="628" on="0"/>
        <pt x="652" y="650" on="1"/>
        <pt x="485" y="687" on="0"/>
        <pt x="312" y="761" on="0"/>
        <pt x="212" y="852" on="0"/>
        <pt x="159" y="974" on="0"/>
        <pt x="159" y="1053" on="1"/>
        <pt x="159" y="1234" on="0"/>
        <pt x="436" y="1430" on="0"/>
        <pt x="694" y="1430" on="1"/>
        <pt x="934" y="1430" on="0"/>
        <pt x="1188" y="1283" on="0"/>
        <pt x="1239" y="1106" on="1"/>
        <pt x="1051" y="1073" on="1"/>
        <pt x="1020" y="1185" on="0"/>
        <pt x="846" y="1286" on="0"/>
        <pt x="692" y="1286" on="1"/>
        <pt x="523" y="1286" on="0"/>
        <pt x="345" y="1174" on="0"/>
        <pt x="345" y="1063" on="1"/>
        <pt x="345" y="998" on="0"/>
        <pt x="414" y="913" on="0"/>
        <pt x="544" y="854" on="0"/>
        <pt x="738" y="811" on="1"/>
        <pt x="803" y="796" on="0"/>
        <pt x="932" y="765" on="0"/>
        <pt x="1050" y="722" on="0"/>
        <pt x="1153" y="664" on="0"/>
        <pt x="1229" y="580" on="0"/>
        <pt x="1272" y="466" on="0"/>
      </contour>
    </TTGlyph>
    <TTGlyph name="Sacute" xMin="93" yMin="-20" xMax="1272" yMax="1776">
      <component glyphName="S" x="0" y="0" flags="0x204"/>
      <component glyphName="acute.uc" x="470" y="0" flags="0x4"/>
    </TTGlyph>
    <TTGlyph name="Scaron" xMin="93" yMin="-20" xMax="1272" yMax="1790">
      <component glyphName="S" x="0" y="0" flags="0x204"/>
      <component glyphName="caron.uc" x="371" y="0" flags="0x4"/>
    </TTGlyph>
    <TTGlyph name="Scedilla" xMin="93" yMin="-434" xMax="1272" yMax="1430">
      <component glyphName="S" x="0" y="0" flags="0x204"/>
      <component glyphName="cedilla" x="422" y="0" flags="0x4"/>
    </TTGlyph>
    <TTGlyph name="Scircumflex" xMin="93" yMin="-20" xMax="1272" yMax="1790">
      <component glyphName="S" x="0" y="0" flags="0x204"/>
      <component glyphName="circumflex.uc" x="370" y="0" flags="0x4"/>
    </TTGlyph>
    <TTGlyph name="Scommaaccent" xMin="93" yMin="-434" xMax="1272" yMax="1430">
      <component glyphName="S" x="0" y="0" flags="0x204"/>
      <component glyphName="commaaccent" x="480" y="0" flags="0x4"/>
    </TTGlyph>
    <TTGlyph name="Sigma" xMin="108" yMin="0" xMax="1185" yMax="1409">
      <contour>
        <pt x="108" y="0" on="1"/>
        <pt x="108" y="162" on="1"/>
        <pt x="646" y="741" on="1"/>
        <pt x="125" y="1248" on="1"/>
        <pt x="125" y="1409" on="1"/>
        <pt x="1124" y="1409" on="1"/>
        <pt x="1124" y="1253" on="1"/>
        <pt x="340" y="1253" on="1"/>
        <pt x="798" y="808" on="1"/>
        <pt x="798" y="684" on="1"/>
        <pt x="308" y="156" on="1"/>
        <pt x="1185" y="156" on="1"/>
        <pt x="1185" y="0" on="1"/>
      </contour>
    </TTGlyph>
    <TTGlyph name="T" xMin="46" yMin="0" xMax="1204" yMax="1409">
      <contour>
        <pt x="720" y="1253" on="1"/>
        <pt x="720" y="0" on="1"/>
        <pt x="530" y="0" on="1"/>
        <pt x="530" y="1253" on="1"/>
        <pt x="46" y="1253" on="1"/>
        <pt x="46" y="1409" on="1"/>
        <pt x="1204" y="1409" on="1"/>
        <pt x="1204" y="1253" on="1"/>
      </contour>
    </TTGlyph>
    <TTGlyph name="Tau" xMin="46" yMin="0" xMax="1204" yMax="1409">
      <component glyphName="T" x="0" y="0" flags="0x204"/>
    </TTGlyph>
    <TTGlyph name="Tbar" xMin="46" yMin="0" xMax="1204" yMax="1409">
      <contour>
        <pt x="720" y="1253" on="1"/>
        <pt x="720" y="801" on="1"/>
        <pt x="1001" y="801" on="1"/>
        <pt x="1001" y="647" on="1"/>
        <pt x="720" y="647" on="1"/>
        <pt x="720" y="0" on="1"/>
        <pt x="530" y="0" on="1"/>
        <pt x="530" y="647" on="1"/>
        <pt x="251" y="647" on="1"/>
        <pt x="251" y="801" on="1"/>
        <pt x="530" y="801" on="1"/>
        <pt x="530" y="1253" on="1"/>
        <pt x="46" y="1253" on="1"/>
        <pt x="46" y="1409" on="1"/>
        <pt x="1204" y="1409" on="1"/>
        <pt x="1204" y="1253" on="1"/>
      </contour>
    </TTGlyph>
    <TTGlyph name="Tcaron" xMin="46" yMin="0" xMax="1204" yMax="1790">
      <component glyphName="T" x="0" y="0" flags="0x204"/>
      <component glyphName="caron.uc" x="289" y="0" flags="0x4"/>
    </TTGlyph>
    <TTGlyph name="Tcommaaccent" xMin="46" yMin="-434" xMax="1204" yMax="1409">
      <component glyphName="T" x="0" y="0" flags="0x204"/>
      <component glyphName="cedilla" x="350" y="0" flags="0x4"/>
    </TTGlyph>
    <TTGlyph name="Theta" xMin="97" yMin="-20" xMax="1495" yMax="1430">
      <contour>
        <pt x="1495" y="711" on="1"/>
        <pt x="1495" y="490" on="0"/>
        <pt x="1326" y="158" on="0"/>
        <pt x="1010" y="-20" on="0"/>
        <pt x="795" y="-20" on="1"/>
        <pt x="578" y="-20" on="0"/>
        <pt x="263" y="156" on="0"/>
        <pt x="97" y="489" on="0"/>
        <pt x="97" y="711" on="1"/>
        <pt x="97" y="1049" on="0"/>
        <pt x="467" y="1430" on="0"/>
        <pt x="797" y="1430" on="1"/>
        <pt x="1012" y="1430" on="0"/>
        <pt x="1328" y="1259" on="0"/>
        <pt x="1495" y="933" on="0"/>
      </contour>
      <contour>
        <pt x="1300" y="711" on="1"/>
        <pt x="1300" y="974" on="0"/>
        <pt x="1037" y="1274" on="0"/>
        <pt x="797" y="1274" on="1"/>
        <pt x="555" y="1274" on="0"/>
        <pt x="291" y="978" on="0"/>
        <pt x="291" y="711" on="1"/>
        <pt x="291" y="446" on="0"/>
        <pt x="558" y="135" on="0"/>
        <pt x="795" y="135" on="1"/>
        <pt x="1039" y="135" on="0"/>
        <pt x="1300" y="436" on="0"/>
      </contour>
      <contour>
        <pt x="502" y="794" on="1"/>
        <pt x="1089" y="794" on="1"/>
        <pt x="1089" y="634" on="1"/>
        <pt x="502" y="634" on="1"/>
      </contour>
    </TTGlyph>
    <TTGlyph name="Thorn" xMin="168" yMin="0" xMax="1258" yMax="1409">
      <contour>
        <pt x="1258" y="735" on="1"/>
        <pt x="1258" y="607" on="0"/>
        <pt x="1142" y="408" on="0"/>
        <pt x="923" y="297" on="0"/>
        <pt x="773" y="297" on="1"/>
        <pt x="359" y="297" on="1"/>
        <pt x="359" y="0" on="1"/>
        <pt x="168" y="0" on="1"/>
        <pt x="168" y="1409" on="1"/>
        <pt x="359" y="1409" on="1"/>
        <pt x="359" y="1157" on="1"/>
        <pt x="761" y="1157" on="1"/>
        <pt x="1000" y="1157" on="0"/>
        <pt x="1258" y="935" on="0"/>
      </contour>
      <contour>
        <pt x="1066" y="731" on="1"/>
        <pt x="1066" y="865" on="0"/>
        <pt x="902" y="1014" on="0"/>
        <pt x="738" y="1014" on="1"/>
        <pt x="359" y="1014" on="1"/>
        <pt x="359" y="438" on="1"/>
        <pt x="746" y="438" on="1"/>
        <pt x="899" y="438" on="0"/>
        <pt x="1066" y="593" on="0"/>
      </contour>
    </TTGlyph>
    <TTGlyph name="U" xMin="158" yMin="-20" xMax="1321" yMax="1409">
      <contour>
        <pt x="731" y="-20" on="1"/>
        <pt x="558" y="-20" on="0"/>
        <pt x="300" y="106" on="0"/>
        <pt x="158" y="346" on="0"/>
        <pt x="158" y="512" on="1"/>
        <pt x="158" y="1409" on="1"/>
        <pt x="349" y="1409" on="1"/>
        <pt x="349" y="528" on="1"/>
        <pt x="349" y="335" on="0"/>
        <pt x="545" y="135" on="0"/>
        <pt x="730" y="135" on="1"/>
        <pt x="920" y="135" on="0"/>
        <pt x="1131" y="342" on="0"/>
        <pt x="1131" y="541" on="1"/>
        <pt x="1131" y="1409" on="1"/>
        <pt x="1321" y="1409" on="1"/>
        <pt x="1321" y="530" on="1"/>
        <pt x="1321" y="359" on="0"/>
        <pt x="1176" y="111" on="0"/>
        <pt x="911" y="-20" on="0"/>
      </contour>
    </TTGlyph>
    <TTGlyph name="Uacute" xMin="158" yMin="-20" xMax="1321" yMax="1776">
      <component glyphName="U" x="0" y="0" flags="0x204"/>
      <component glyphName="acute.uc" x="493" y="0" flags="0x4"/>
    </TTGlyph>
    <TTGlyph name="Ubreve" xMin="158" yMin="-20" xMax="1321" yMax="1779">
      <component glyphName="U" x="0" y="0" flags="0x204"/>
      <component glyphName="breve.uc" x="430" y="0" flags="0x4"/>
    </TTGlyph>
    <TTGlyph name="Ucircumflex" xMin="158" yMin="-20" xMax="1321" yMax="1790">
      <component glyphName="U" x="0" y="0" flags="0x204"/>
      <component glyphName="circumflex.uc" x="408" y="0" flags="0x4"/>
    </TTGlyph>
    <TTGlyph name="Udieresis" xMin="158" yMin="-20" xMax="1321" yMax="1714">
      <component glyphName="U" x="0" y="0" flags="0x204"/>
      <component glyphName="dieresis.uc" x="414" y="0" flags="0x4"/>
    </TTGlyph>
    <TTGlyph name="Udotbelow" xMin="158" yMin="-311" xMax="1321" yMax="1409">
      <component glyphName="U" x="0" y="0" flags="0x204"/>
      <component glyphName="dotbelow.alt1" x="878" y="0" flags="0x4"/>
    </TTGlyph>
    <TTGlyph name="Ugrave" xMin="158" yMin="-20" xMax="1321" yMax="1776">
      <component glyphName="U" x="0" y="0" flags="0x204"/>
      <component glyphName="grave.uc" x="397" y="0" flags="0x4"/>
    </TTGlyph>
    <TTGlyph name="Uhookabove" xMin="158" yMin="-20" xMax="1321" yMax="1835">
      <component glyphName="U" x="0" y="0" flags="0x204"/>
      <component glyphName="hookabovecomb" x="1000" y="0" flags="0x4"/>
    </TTGlyph>
    <TTGlyph name="Uhorn" xMin="158" yMin="-20" xMax="1664" yMax="1409">
      <contour>
        <pt x="731" y="-20" on="1"/>
        <pt x="558" y="-20" on="0"/>
        <pt x="300" y="106" on="0"/>
        <pt x="158" y="346" on="0"/>
        <pt x="158" y="512" on="1"/>
        <pt x="158" y="1409" on="1"/>
        <pt x="349" y="1409" on="1"/>
        <pt x="349" y="528" on="1"/>
        <pt x="349" y="335" on="0"/>
        <pt x="545" y="135" on="0"/>
        <pt x="730" y="135" on="1"/>
        <pt x="920" y="135" on="0"/>
        <pt x="1131" y="342" on="0"/>
        <pt x="1131" y="541" on="1"/>
        <pt x="1131" y="1409" on="1"/>
        <pt x="1321" y="1409" on="1"/>
        <pt x="1321" y="1006" on="1"/>
        <pt x="1442" y="1031" on="0"/>
        <pt x="1557" y="1147" on="0"/>
        <pt x="1557" y="1242" on="1"/>
        <pt x="1469" y="1242" on="1"/>
        <pt x="1469" y="1409" on="1"/>
        <pt x="1664" y="1409" on="1"/>
        <pt x="1664" y="1303" on="1"/>
        <pt x="1664" y="1141" on="0"/>
        <pt x="1495" y="941" on="0"/>
        <pt x="1321" y="915" on="1"/>
        <pt x="1321" y="530" on="1"/>
        <pt x="1321" y="359" on="0"/>
        <pt x="1176" y="111" on="0"/>
        <pt x="911" y="-20" on="0"/>
      </contour>
    </TTGlyph>
    <TTGlyph name="Uhornacute" xMin="158" yMin="-20" xMax="1664" yMax="1776">
      <component glyphName="Uhorn" x="0" y="0" flags="0x204"/>
      <component glyphName="acute.uc" x="535" y="0" flags="0x4"/>
    </TTGlyph>
    <TTGlyph name="Uhorndotbelow" xMin="158" yMin="-311" xMax="1664" yMax="1409">
      <component glyphName="Uhorn" x="0" y="0" flags="0x204"/>
      <component glyphName="dotbelow.alt1" x="874" y="0" flags="0x4"/>
    </TTGlyph>
    <TTGlyph name="Uhorngrave" xMin="158" yMin="-20" xMax="1664" yMax="1776">
      <component glyphName="Uhorn" x="0" y="0" flags="0x204"/>
      <component glyphName="grave.uc" x="346" y="0" flags="0x4"/>
    </TTGlyph>
    <TTGlyph name="Uhornhookabove" xMin="158" yMin="-20" xMax="1664" yMax="1835">
      <component glyphName="Uhorn" x="0" y="0" flags="0x204"/>
      <component glyphName="hookabovecomb" x="1020" y="0" flags="0x4"/>
    </TTGlyph>
    <TTGlyph name="Uhorntilde" xMin="158" yMin="-20" xMax="1664" yMax="1798">
      <component glyphName="Uhorn" x="0" y="0" flags="0x204"/>
      <component glyphName="tilde.uc" x="424" y="0" flags="0x4"/>
    </TTGlyph>
    <TTGlyph name="Uhungarumlaut" xMin="158" yMin="-20" xMax="1321" yMax="1777">
      <component glyphName="U" x="0" y="0" flags="0x204"/>
      <component glyphName="hungarumlaut.uc" x="413" y="0" flags="0x4"/>
    </TTGlyph>
    <TTGlyph name="Umacron" xMin="158" yMin="-20" xMax="1321" yMax="1692">
      <component glyphName="U" x="0" y="0" flags="0x204"/>
      <component glyphName="macron" x="415" y="329" flags="0x4"/>
    </TTGlyph>
    <TTGlyph name="Uogonek" xMin="158" yMin="-427" xMax="1321" yMax="1409">
      <component glyphName="U" x="0" y="0" flags="0x4"/>
      <component glyphName="ogonek" x="544" y="0" flags="0x4"/>
    </TTGlyph>
    <TTGlyph name="Upsilon" xMin="45" yMin="0" xMax="1321" yMax="1409">
      <component glyphName="Y" x="0" y="0" flags="0x204"/>
    </TTGlyph>
    <TTGlyph name="Upsilondieresis" xMin="45" yMin="0" xMax="1321" yMax="1714">
      <contour>
        <pt x="777" y="584" on="1"/>
        <pt x="777" y="0" on="1"/>
        <pt x="587" y="0" on="1"/>
        <pt x="589" y="584" on="1"/>
        <pt x="45" y="1409" on="1"/>
        <pt x="250" y="1409" on="1"/>
        <pt x="684" y="738" on="1"/>
        <pt x="1116" y="1409" on="1"/>
        <pt x="1321" y="1409" on="1"/>
      </contour>
      <contour>
        <pt x="802" y="1530" on="1"/>
        <pt x="802" y="1714" on="1"/>
        <pt x="965" y="1714" on="1"/>
        <pt x="965" y="1530" on="1"/>
      </contour>
      <contour>
        <pt x="408" y="1530" on="1"/>
        <pt x="408" y="1714" on="1"/>
        <pt x="573" y="1714" on="1"/>
        <pt x="573" y="1530" on="1"/>
      </contour>
    </TTGlyph>
    <TTGlyph name="Upsilontonos" xMin="65" yMin="0" xMax="1707" yMax="1411">
      <component glyphName="Y" x="386" y="0" flags="0x4"/>
      <component glyphName="tonos" x="-140" y="-132" flags="0x4"/>
    </TTGlyph>
    <TTGlyph name="Uring" xMin="158" yMin="-20" xMax="1321" yMax="1854">
      <component glyphName="U" x="0" y="0" flags="0x204"/>
      <component glyphName="ring" x="447" y="203" flags="0x4"/>
    </TTGlyph>
    <TTGlyph name="Utilde" xMin="158" yMin="-20" xMax="1321" yMax="1798">
      <component glyphName="U" x="0" y="0" flags="0x204"/>
      <component glyphName="tilde.uc" x="404" y="0" flags="0x4"/>
    </TTGlyph>
    <TTGlyph name="V" xMin="9" yMin="0" xMax="1357" yMax="1409">
      <contour>
        <pt x="782" y="0" on="1"/>
        <pt x="584" y="0" on="1"/>
        <pt x="9" y="1409" on="1"/>
        <pt x="210" y="1409" on="1"/>
        <pt x="600" y="417" on="1"/>
        <pt x="684" y="168" on="1"/>
        <pt x="768" y="417" on="1"/>
        <pt x="1156" y="1409" on="1"/>
        <pt x="1357" y="1409" on="1"/>
      </contour>
    </TTGlyph>
    <TTGlyph name="W" xMin="9" yMin="0" xMax="1926" yMax="1409">
      <contour>
        <pt x="1511" y="0" on="1"/>
        <pt x="1283" y="0" on="1"/>
        <pt x="1039" y="895" on="1"/>
        <pt x="1015" y="979" on="0"/>
        <pt x="969" y="1196" on="1"/>
        <pt x="943" y="1080" on="0"/>
        <pt x="907" y="924" on="0"/>
        <pt x="652" y="0" on="1"/>
        <pt x="424" y="0" on="1"/>
        <pt x="9" y="1409" on="1"/>
        <pt x="208" y="1409" on="1"/>
        <pt x="461" y="514" on="1"/>
        <pt x="506" y="346" on="0"/>
        <pt x="544" y="168" on="1"/>
        <pt x="568" y="278" on="0"/>
        <pt x="631" y="538" on="0"/>
        <pt x="877" y="1409" on="1"/>
        <pt x="1060" y="1409" on="1"/>
        <pt x="1305" y="532" on="1"/>
        <pt x="1361" y="317" on="0"/>
        <pt x="1393" y="168" on="1"/>
        <pt x="1402" y="203" on="1"/>
        <pt x="1429" y="318" on="0"/>
        <pt x="1463" y="463" on="0"/>
        <pt x="1727" y="1409" on="1"/>
        <pt x="1926" y="1409" on="1"/>
      </contour>
    </TTGlyph>
    <TTGlyph name="Wacute" xMin="9" yMin="0" xMax="1926" yMax="1776">
      <component glyphName="W" x="0" y="0" flags="0x204"/>
      <component glyphName="acute.uc" x="759" y="0" flags="0x4"/>
    </TTGlyph>
    <TTGlyph name="Wcircumflex" xMin="9" yMin="0" xMax="1926" yMax="1790">
      <component glyphName="W" x="0" y="0" flags="0x204"/>
      <component glyphName="circumflex.uc" x="633" y="0" flags="0x4"/>
    </TTGlyph>
    <TTGlyph name="Wdieresis" xMin="9" yMin="0" xMax="1926" yMax="1714">
      <component glyphName="W" x="0" y="0" flags="0x204"/>
      <component glyphName="dieresis.uc" x="646" y="0" flags="0x4"/>
    </TTGlyph>
    <TTGlyph name="Wgrave" xMin="9" yMin="0" xMax="1926" yMax="1776">
      <component glyphName="W" x="0" y="0" flags="0x204"/>
      <component glyphName="grave.uc" x="577" y="0" flags="0x4"/>
    </TTGlyph>
    <TTGlyph name="X" xMin="46" yMin="0" xMax="1323" yMax="1409">
      <contour>
        <pt x="1112" y="0" on="1"/>
        <pt x="689" y="616" on="1"/>
        <pt x="257" y="0" on="1"/>
        <pt x="46" y="0" on="1"/>
        <pt x="582" y="732" on="1"/>
        <pt x="87" y="1409" on="1"/>
        <pt x="298" y="1409" on="1"/>
        <pt x="690" y="856" on="1"/>
        <pt x="1071" y="1409" on="1"/>
        <pt x="1282" y="1409" on="1"/>
        <pt x="800" y="739" on="1"/>
        <pt x="1323" y="0" on="1"/>
      </contour>
    </TTGlyph>
    <TTGlyph name="Xi" xMin="90" yMin="0" xMax="1241" yMax="1409">
      <contour>
        <pt x="125" y="1409" on="1"/>
        <pt x="1206" y="1409" on="1"/>
        <pt x="1206" y="1253" on="1"/>
        <pt x="125" y="1253" on="1"/>
      </contour>
      <contour>
        <pt x="1241" y="156" on="1"/>
        <pt x="1241" y="0" on="1"/>
        <pt x="90" y="0" on="1"/>
        <pt x="90" y="156" on="1"/>
      </contour>
      <contour>
        <pt x="1086" y="801" on="1"/>
        <pt x="1086" y="647" on="1"/>
        <pt x="245" y="647" on="1"/>
        <pt x="245" y="801" on="1"/>
      </contour>
    </TTGlyph>
    <TTGlyph name="Y" xMin="45" yMin="0" xMax="1321" yMax="1409">
      <contour>
        <pt x="777" y="584" on="1"/>
        <pt x="777" y="0" on="1"/>
        <pt x="587" y="0" on="1"/>
        <pt x="587" y="584" on="1"/>
        <pt x="45" y="1409" on="1"/>
        <pt x="255" y="1409" on="1"/>
        <pt x="684" y="738" on="1"/>
        <pt x="1111" y="1409" on="1"/>
        <pt x="1321" y="1409" on="1"/>
      </contour>
    </TTGlyph>
    <TTGlyph name="Yacute" xMin="45" yMin="0" xMax="1321" yMax="1776">
      <component glyphName="Y" x="0" y="0" flags="0x204"/>
      <component glyphName="acute.uc" x="464" y="0" flags="0x4"/>
    </TTGlyph>
    <TTGlyph name="Ycircumflex" xMin="45" yMin="0" xMax="1321" yMax="1790">
      <component glyphName="Y" x="0" y="0" flags="0x204"/>
      <component glyphName="circumflex.uc" x="347" y="0" flags="0x4"/>
    </TTGlyph>
    <TTGlyph name="Ydieresis" xMin="45" yMin="0" xMax="1321" yMax="1714">
      <component glyphName="Y" x="0" y="0" flags="0x204"/>
      <component glyphName="dieresis.uc" x="360" y="0" flags="0x4"/>
    </TTGlyph>
    <TTGlyph name="Ydotbelow" xMin="45" yMin="-311" xMax="1321" yMax="1409">
      <component glyphName="Y" x="0" y="0" flags="0x204"/>
      <component glyphName="dotbelow.alt1" x="834" y="0" flags="0x4"/>
    </TTGlyph>
    <TTGlyph name="Ygrave" xMin="45" yMin="0" xMax="1321" yMax="1776">
      <component glyphName="Y" x="0" y="0" flags="0x204"/>
      <component glyphName="grave.uc" x="290" y="0" flags="0x4"/>
    </TTGlyph>
    <TTGlyph name="Yhookabove" xMin="45" yMin="0" xMax="1321" yMax="1835">
      <component glyphName="Y" x="0" y="0" flags="0x204"/>
      <component glyphName="hookabovecomb" x="961" y="0" flags="0x4"/>
    </TTGlyph>
    <TTGlyph name="Ytilde" xMin="45" yMin="0" xMax="1321" yMax="1798">
      <component glyphName="Y" x="0" y="0" flags="0x204"/>
      <component glyphName="tilde.uc" x="360" y="0" flags="0x4"/>
    </TTGlyph>
    <TTGlyph name="Z" xMin="65" yMin="0" xMax="1187" yMax="1409">
      <contour>
        <pt x="1187" y="0" on="1"/>
        <pt x="65" y="0" on="1"/>
        <pt x="65" y="143" on="1"/>
        <pt x="923" y="1253" on="1"/>
        <pt x="138" y="1253" on="1"/>
        <pt x="138" y="1409" on="1"/>
        <pt x="1140" y="1409" on="1"/>
        <pt x="1140" y="1270" on="1"/>
        <pt x="282" y="156" on="1"/>
        <pt x="1187" y="156" on="1"/>
      </contour>
    </TTGlyph>
    <TTGlyph name="Zacute" xMin="65" yMin="0" xMax="1187" yMax="1776">
      <component glyphName="Z" x="0" y="0" flags="0x204"/>
      <component glyphName="acute.uc" x="416" y="0" flags="0x4"/>
    </TTGlyph>
    <TTGlyph name="Zcaron" xMin="65" yMin="0" xMax="1187" yMax="1790">
      <component glyphName="Z" x="0" y="0" flags="0x204"/>
      <component glyphName="caron.uc" x="312" y="0" flags="0x4"/>
    </TTGlyph>
    <TTGlyph name="Zdotaccent" xMin="65" yMin="0" xMax="1187" yMax="1777">
      <component glyphName="Z" x="0" y="0" flags="0x204"/>
      <component glyphName="dotaccent" x="380" y="293" flags="0x4"/>
    </TTGlyph>
    <TTGlyph name="Zeta" xMin="65" yMin="0" xMax="1187" yMax="1409">
      <component glyphName="Z" x="0" y="0" flags="0x204"/>
    </TTGlyph>
    <TTGlyph name="a" xMin="87" yMin="-20" xMax="1139" yMax="1102">
      <contour>
        <pt x="414" y="-20" on="1"/>
        <pt x="251" y="-20" on="0"/>
        <pt x="87" y="152" on="0"/>
        <pt x="87" y="302" on="1"/>
        <pt x="87" y="470" on="0"/>
        <pt x="308" y="650" on="0"/>
        <pt x="554" y="656" on="1"/>
        <pt x="797" y="660" on="1"/>
        <pt x="797" y="719" on="1"/>
        <pt x="797" y="851" on="0"/>
        <pt x="685" y="965" on="0"/>
        <pt x="565" y="965" on="1"/>
        <pt x="444" y="965" on="0"/>
        <pt x="334" y="883" on="0"/>
        <pt x="323" y="793" on="1"/>
        <pt x="135" y="810" on="1"/>
        <pt x="181" y="1102" on="0"/>
        <pt x="569" y="1102" on="1"/>
        <pt x="773" y="1102" on="0"/>
        <pt x="979" y="915" on="0"/>
        <pt x="979" y="738" on="1"/>
        <pt x="979" y="272" on="1"/>
        <pt x="979" y="192" on="0"/>
        <pt x="1021" y="111" on="0"/>
        <pt x="1080" y="111" on="1"/>
        <pt x="1106" y="111" on="0"/>
        <pt x="1139" y="118" on="1"/>
        <pt x="1139" y="6" on="1"/>
        <pt x="1071" y="-10" on="0"/>
        <pt x="1000" y="-10" on="1"/>
        <pt x="900" y="-10" on="0"/>
        <pt x="809" y="95" on="0"/>
        <pt x="803" y="207" on="1"/>
        <pt x="797" y="207" on="1"/>
        <pt x="728" y="83" on="0"/>
        <pt x="545" y="-20" on="0"/>
      </contour>
      <contour>
        <pt x="455" y="115" on="1"/>
        <pt x="554" y="115" on="0"/>
        <pt x="708" y="205" on="0"/>
        <pt x="797" y="362" on="0"/>
        <pt x="797" y="445" on="1"/>
        <pt x="797" y="534" on="1"/>
        <pt x="600" y="530" on="1"/>
        <pt x="473" y="528" on="0"/>
        <pt x="342" y="480" on="0"/>
        <pt x="272" y="380" on="0"/>
        <pt x="272" y="299" on="1"/>
        <pt x="272" y="211" on="0"/>
        <pt x="367" y="115" on="0"/>
      </contour>
    </TTGlyph>
    <TTGlyph name="aacute" xMin="87" yMin="-20" xMax="1139" yMax="1508">
      <component glyphName="a" x="0" y="0" flags="0x204"/>
      <component glyphName="acute" x="340" y="0" flags="0x4"/>
    </TTGlyph>
    <TTGlyph name="abreve" xMin="87" yMin="-20" xMax="1139" yMax="1510">
      <component glyphName="a" x="0" y="0" flags="0x204"/>
      <component glyphName="breve" x="263" y="0" flags="0x4"/>
    </TTGlyph>
    <TTGlyph name="abreveacute" xMin="87" yMin="-20" xMax="1139" yMax="1776">
      <component glyphName="a" x="0" y="0" flags="0x204"/>
      <component glyphName="breveacute.lc" x="561" y="0" flags="0x4"/>
    </TTGlyph>
    <TTGlyph name="abrevedotbelow" xMin="87" yMin="-311" xMax="1139" yMax="1510">
      <component glyphName="a" x="0" y="0" flags="0x204"/>
      <component glyphName="breve" x="260" y="0" flags="0x4"/>
      <component glyphName="dotbelow.alt1" x="712" y="0" flags="0x4"/>
    </TTGlyph>
    <TTGlyph name="abrevegrave" xMin="87" yMin="-20" xMax="1139" yMax="1776">
      <component glyphName="a" x="0" y="0" flags="0x204"/>
      <component glyphName="brevegrave.lc" x="561" y="0" flags="0x4"/>
    </TTGlyph>
    <TTGlyph name="abrevehookabove" xMin="87" yMin="-20" xMax="1139" yMax="1835">
      <component glyphName="a" x="0" y="0" flags="0x204"/>
      <component glyphName="brevehook.lc" x="561" y="0" flags="0x4"/>
    </TTGlyph>
    <TTGlyph name="abrevetilde" xMin="87" yMin="-20" xMax="1139" yMax="1775">
      <component glyphName="a" x="0" y="0" flags="0x204"/>
      <component glyphName="brevetilde.lc" x="561" y="0" flags="0x4"/>
    </TTGlyph>
    <TTGlyph name="acircumflex" xMin="87" yMin="-20" xMax="1139" yMax="1491">
      <component glyphName="a" x="0" y="0" flags="0x204"/>
      <component glyphName="circumflex" x="218" y="0" flags="0x4"/>
    </TTGlyph>
    <TTGlyph name="acircumflexacute" xMin="87" yMin="-20" xMax="1139" yMax="1574">
      <component glyphName="a" x="0" y="0" flags="0x204"/>
      <component glyphName="circumflexacute.lc" x="581" y="0" flags="0x4"/>
    </TTGlyph>
    <TTGlyph name="acircumflexdotbelow" xMin="87" yMin="-311" xMax="1139" yMax="1491">
      <component glyphName="a" x="0" y="0" flags="0x204"/>
      <component glyphName="circumflex" x="222" y="0" flags="0x4"/>
      <component glyphName="dotbelow.alt1" x="727" y="0" flags="0x4"/>
    </TTGlyph>
    <TTGlyph name="acircumflexgrave" xMin="49" yMin="-20" xMax="1139" yMax="1574">
      <component glyphName="a" x="0" y="0" flags="0x204"/>
      <component glyphName="circumflexgrave.lc" x="581" y="0" flags="0x4"/>
    </TTGlyph>
    <TTGlyph name="acircumflexhookabove" xMin="87" yMin="-20" xMax="1139" yMax="1653">
      <component glyphName="a" x="0" y="0" flags="0x204"/>
      <component glyphName="circumflexhook.lc" x="561" y="0" flags="0x4"/>
    </TTGlyph>
    <TTGlyph name="acircumflextilde" xMin="87" yMin="-20" xMax="1139" yMax="1775">
      <component glyphName="a" x="0" y="0" flags="0x204"/>
      <component glyphName="circumflextilde.lc" x="561" y="0" flags="0x4"/>
    </TTGlyph>
    <TTGlyph name="acute" xMin="72" yMin="1201" xMax="496" yMax="1508">
      <contour>
        <pt x="72" y="1201" on="1"/>
        <pt x="72" y="1221" on="1"/>
        <pt x="289" y="1508" on="1"/>
        <pt x="496" y="1508" on="1"/>
        <pt x="496" y="1479" on="1"/>
        <pt x="166" y="1201" on="1"/>
      </contour>
    </TTGlyph>
    <TTGlyph name="acute.alt1" xMin="72" yMin="1201" xMax="496" yMax="1508">
      <component glyphName="acute" x="0" y="0" flags="0x4"/>
    </TTGlyph>
    <TTGlyph name="acute.alt2" xMin="72" yMin="1201" xMax="496" yMax="1508">
      <component glyphName="acute" x="0" y="0" flags="0x4"/>
    </TTGlyph>
    <TTGlyph name="acute.alt3" xMin="72" yMin="1201" xMax="496" yMax="1508">
      <component glyphName="acute" x="0" y="0" flags="0x4"/>
    </TTGlyph>
    <TTGlyph name="acute.alt4" xMin="72" yMin="1201" xMax="496" yMax="1508">
      <component glyphName="acute" x="0" y="0" flags="0x4"/>
    </TTGlyph>
    <TTGlyph name="acute.alt5" xMin="72" yMin="1201" xMax="496" yMax="1508">
      <component glyphName="acute" x="0" y="0" flags="0x4"/>
    </TTGlyph>
    <TTGlyph name="acute.uc" xMin="72" yMin="1530" xMax="496" yMax="1776">
      <contour>
        <pt x="72" y="1530" on="1"/>
        <pt x="72" y="1550" on="1"/>
        <pt x="289" y="1776" on="1"/>
        <pt x="496" y="1776" on="1"/>
        <pt x="496" y="1747" on="1"/>
        <pt x="186" y="1530" on="1"/>
      </contour>
    </TTGlyph>
    <TTGlyph name="acutecomb" xMin="-363" yMin="1548" xMax="-26" yMax="1827">
      <contour>
        <pt x="-363" y="1548" on="1"/>
        <pt x="-363" y="1568" on="1"/>
        <pt x="-233" y="1827" on="1"/>
        <pt x="-26" y="1827" on="1"/>
        <pt x="-26" y="1798" on="1"/>
        <pt x="-269" y="1548" on="1"/>
      </contour>
    </TTGlyph>
    <TTGlyph name="adieresis" xMin="87" yMin="-20" xMax="1139" yMax="1403">
      <component glyphName="a" x="0" y="0" flags="0x204"/>
      <component glyphName="dieresis" x="235" y="0" flags="0x4"/>
    </TTGlyph>
    <TTGlyph name="adotbelow" xMin="87" yMin="-311" xMax="1139" yMax="1102">
      <component glyphName="a" x="0" y="0" flags="0x204"/>
      <component glyphName="dotbelow.alt1" x="712" y="0" flags="0x4"/>
    </TTGlyph>
    <TTGlyph name="ae" xMin="66" yMin="-20" xMax="1730" yMax="1102">
      <contour>
        <pt x="968" y="503" on="1"/>
        <pt x="968" y="486" on="1"/>
        <pt x="970" y="305" on="0"/>
        <pt x="1120" y="115" on="0"/>
        <pt x="1260" y="115" on="1"/>
        <pt x="1377" y="115" on="0"/>
        <pt x="1518" y="209" on="0"/>
        <pt x="1543" y="281" on="1"/>
        <pt x="1701" y="236" on="1"/>
        <pt x="1604" y="-20" on="0"/>
        <pt x="1260" y="-20" on="1"/>
        <pt x="939" y="-20" on="0"/>
        <pt x="837" y="237" on="1"/>
        <pt x="758" y="97" on="0"/>
        <pt x="548" y="-20" on="0"/>
        <pt x="402" y="-20" on="1"/>
        <pt x="235" y="-20" on="0"/>
        <pt x="66" y="152" on="0"/>
        <pt x="66" y="302" on="1"/>
        <pt x="66" y="476" on="0"/>
        <pt x="304" y="652" on="0"/>
        <pt x="546" y="656" on="1"/>
        <pt x="786" y="660" on="1"/>
        <pt x="786" y="719" on="1"/>
        <pt x="786" y="854" on="0"/>
        <pt x="675" y="965" on="0"/>
        <pt x="554" y="965" on="1"/>
        <pt x="428" y="965" on="0"/>
        <pt x="315" y="885" on="0"/>
        <pt x="302" y="793" on="1"/>
        <pt x="114" y="810" on="1"/>
        <pt x="160" y="1102" on="0"/>
        <pt x="558" y="1102" on="1"/>
        <pt x="808" y="1102" on="0"/>
        <pt x="907" y="963" on="1"/>
        <pt x="1025" y="1102" on="0"/>
        <pt x="1253" y="1102" on="1"/>
        <pt x="1730" y="1102" on="0"/>
        <pt x="1730" y="527" on="1"/>
        <pt x="1730" y="503" on="1"/>
      </contour>
      <contour>
        <pt x="786" y="534" on="1"/>
        <pt x="591" y="530" on="1"/>
        <pt x="458" y="527" on="0"/>
        <pt x="317" y="474" on="0"/>
        <pt x="251" y="373" on="0"/>
        <pt x="251" y="299" on="1"/>
        <pt x="251" y="212" on="0"/>
        <pt x="351" y="115" on="0"/>
        <pt x="444" y="115" on="1"/>
        <pt x="546" y="115" on="0"/>
        <pt x="699" y="204" on="0"/>
        <pt x="786" y="359" on="0"/>
        <pt x="786" y="445" on="1"/>
      </contour>
      <contour>
        <pt x="1544" y="641" on="1"/>
        <pt x="1529" y="812" on="0"/>
        <pt x="1385" y="969" on="0"/>
        <pt x="1250" y="969" on="1"/>
        <pt x="1123" y="969" on="0"/>
        <pt x="976" y="798" on="0"/>
        <pt x="970" y="641" on="1"/>
      </contour>
    </TTGlyph>
    <TTGlyph name="aeacute" xMin="66" yMin="-20" xMax="1730" yMax="1508">
      <component glyphName="ae" x="0" y="0" flags="0x204"/>
      <component glyphName="acute" x="687" y="0" flags="0x4"/>
    </TTGlyph>
    <TTGlyph name="agrave" xMin="87" yMin="-20" xMax="1139" yMax="1508">
      <component glyphName="a" x="0" y="0" flags="0x204"/>
      <component glyphName="grave" x="188" y="0" flags="0x4"/>
    </TTGlyph>
    <TTGlyph name="ahookabove" xMin="87" yMin="-20" xMax="1139" yMax="1526">
      <component glyphName="a" x="0" y="0" flags="0x204"/>
      <component glyphName="hookabovecomb" x="820" y="-309" flags="0x4"/>
    </TTGlyph>
    <TTGlyph name="alef" xMin="66" yMin="0" xMax="1260" yMax="1227">
      <contour>
        <pt x="125" y="1227" on="1"/>
        <pt x="352" y="1227" on="1"/>
        <pt x="803" y="606" on="1"/>
        <pt x="953" y="746" on="0"/>
        <pt x="981" y="1004" on="1"/>
        <pt x="1004" y="1227" on="1"/>
        <pt x="1194" y="1227" on="1"/>
        <pt x="1171" y="1008" on="1"/>
        <pt x="1161" y="901" on="0"/>
        <pt x="1101" y="729" on="0"/>
        <pt x="1002" y="579" on="0"/>
        <pt x="899" y="477" on="1"/>
        <pt x="1260" y="0" on="1"/>
        <pt x="1026" y="0" on="1"/>
        <pt x="498" y="717" on="1"/>
        <pt x="455" y="696" on="0"/>
        <pt x="402" y="633" on="0"/>
        <pt x="365" y="531" on="0"/>
        <pt x="340" y="403" on="1"/>
        <pt x="260" y="0" on="1"/>
        <pt x="66" y="0" on="1"/>
        <pt x="150" y="399" on="1"/>
        <pt x="186" y="570" on="0"/>
        <pt x="246" y="712" on="0"/>
        <pt x="337" y="800" on="0"/>
        <pt x="414" y="831" on="1"/>
      </contour>
    </TTGlyph>
    <TTGlyph name="alefdagesh" xMin="66" yMin="0" xMax="1260" yMax="1227">
      <component glyphName="alef" x="0" y="0" flags="0x204"/>
      <component glyphName="dagesh" x="569" y="-585" flags="0x4"/>
    </TTGlyph>
    <TTGlyph name="aleflamed" xMin="80" yMin="0" xMax="1260" yMax="1665">
      <contour>
        <pt x="238" y="1071" on="1"/>
        <pt x="80" y="1071" on="1"/>
        <pt x="80" y="1665" on="1"/>
        <pt x="266" y="1665" on="1"/>
        <pt x="266" y="1227" on="1"/>
        <pt x="352" y="1227" on="1"/>
        <pt x="803" y="606" on="1"/>
        <pt x="953" y="746" on="0"/>
        <pt x="981" y="1004" on="1"/>
        <pt x="1004" y="1227" on="1"/>
        <pt x="1194" y="1227" on="1"/>
        <pt x="1171" y="1008" on="1"/>
        <pt x="1161" y="901" on="0"/>
        <pt x="1101" y="729" on="0"/>
        <pt x="1002" y="579" on="0"/>
        <pt x="899" y="477" on="1"/>
        <pt x="1260" y="0" on="1"/>
        <pt x="1026" y="0" on="1"/>
      </contour>
    </TTGlyph>
    <TTGlyph name="aleflamedhatafsegol" xMin="80" yMin="-385" xMax="1260" yMax="1665">
      <component glyphName="aleflamed" x="0" y="0" flags="0x204"/>
      <component glyphName="hatafsegol" x="664" y="0" flags="0x4"/>
    </TTGlyph>
    <TTGlyph name="aleflamedsegol" xMin="80" yMin="-385" xMax="1260" yMax="1665">
      <component glyphName="aleflamed" x="0" y="0" flags="0x204"/>
      <component glyphName="segol" x="645" y="0" flags="0x4"/>
    </TTGlyph>
    <TTGlyph name="aleflamedtsere" xMin="80" yMin="-348" xMax="1260" yMax="1665">
      <component glyphName="aleflamed" x="0" y="0" flags="0x204"/>
      <component glyphName="tsere" x="651" y="0" flags="0x4"/>
    </TTGlyph>
    <TTGlyph name="alefmapiq" xMin="66" yMin="0" xMax="1260" yMax="1227">
      <component glyphName="alef" x="0" y="0" flags="0x204"/>
      <component glyphName="dagesh" x="569" y="-585" flags="0x4"/>
    </TTGlyph>
    <TTGlyph name="alefpatah" xMin="66" yMin="-231" xMax="1260" yMax="1227">
      <component glyphName="alef" x="0" y="0" flags="0x204"/>
      <component glyphName="patah" x="643" y="0" flags="0x4"/>
    </TTGlyph>
    <TTGlyph name="alefqamats" xMin="66" yMin="-348" xMax="1260" yMax="1227">
      <component glyphName="alef" x="0" y="0" flags="0x204"/>
      <component glyphName="qamats" x="643" y="0" flags="0x4"/>
    </TTGlyph>
    <TTGlyph name="alefwide" xMin="66" yMin="0" xMax="1260" yMax="1227">
      <component glyphName="alef" x="0" y="0" flags="0x204"/>
    </TTGlyph>
    <TTGlyph name="alpha" xMin="86" yMin="-20" xMax="1125" yMax="1102">
      <contour>
        <pt x="843" y="237" on="1"/>
        <pt x="780" y="101" on="0"/>
        <pt x="605" y="-20" on="0"/>
        <pt x="484" y="-20" on="1"/>
        <pt x="279" y="-20" on="0"/>
        <pt x="86" y="256" on="0"/>
        <pt x="86" y="536" on="1"/>
        <pt x="86" y="820" on="0"/>
        <pt x="303" y="1102" on="0"/>
        <pt x="512" y="1102" on="1"/>
        <pt x="638" y="1102" on="0"/>
        <pt x="817" y="968" on="0"/>
        <pt x="862" y="847" on="1"/>
        <pt x="864" y="847" on="1"/>
        <pt x="887" y="966" on="0"/>
        <pt x="937" y="1082" on="1"/>
        <pt x="1125" y="1082" on="1"/>
        <pt x="1075" y="976" on="0"/>
        <pt x="991" y="669" on="0"/>
        <pt x="983" y="571" on="1"/>
        <pt x="988" y="411" on="0"/>
        <pt x="1047" y="103" on="0"/>
        <pt x="1094" y="0" on="1"/>
        <pt x="911" y="0" on="1"/>
        <pt x="887" y="61" on="0"/>
        <pt x="852" y="204" on="0"/>
        <pt x="847" y="237" on="1"/>
      </contour>
      <contour>
        <pt x="275" y="542" on="1"/>
        <pt x="275" y="320" on="0"/>
        <pt x="389" y="119" on="0"/>
        <pt x="521" y="119" on="1"/>
        <pt x="641" y="119" on="0"/>
        <pt x="806" y="350" on="0"/>
        <pt x="832" y="546" on="1"/>
        <pt x="803" y="757" on="0"/>
        <pt x="651" y="969" on="0"/>
        <pt x="532" y="969" on="1"/>
        <pt x="396" y="969" on="0"/>
        <pt x="275" y="768" on="0"/>
      </contour>
    </TTGlyph>
    <TTGlyph name="alphatonos" xMin="86" yMin="-20" xMax="1125" yMax="1543">
      <component glyphName="alpha" x="0" y="0" flags="0x204"/>
      <component glyphName="tonos" x="289" y="0" flags="0x4"/>
    </TTGlyph>
    <TTGlyph name="alt_plussign" xMin="90" yMin="514" xMax="1063" yMax="1128">
      <contour>
        <pt x="1063" y="514" on="1"/>
        <pt x="90" y="514" on="1"/>
        <pt x="90" y="700" on="1"/>
        <pt x="481" y="700" on="1"/>
        <pt x="481" y="1128" on="1"/>
        <pt x="668" y="1128" on="1"/>
        <pt x="668" y="700" on="1"/>
        <pt x="1063" y="700" on="1"/>
      </contour>
    </TTGlyph>
    <TTGlyph name="alternativeayin" xMin="41" yMin="-33" xMax="1090" yMax="1227">
      <component glyphName="ayin" x="0" y="0" flags="0x204"/>
    </TTGlyph>
    <TTGlyph name="alternativelamed" xMin="70" yMin="-45" xMax="987" yMax="1665">
      <component glyphName="lamed" x="0" y="0" flags="0x204"/>
    </TTGlyph>
    <TTGlyph name="amacron" xMin="87" yMin="-20" xMax="1139" yMax="1363">
      <component glyphName="a" x="0" y="0" flags="0x204"/>
      <component glyphName="macron" x="233" y="0" flags="0x4"/>
    </TTGlyph>
    <TTGlyph name="ampersand" xMin="72" yMin="-20" xMax="1334" yMax="1417">
      <contour>
        <pt x="1193" y="-12" on="1"/>
        <pt x="1016" y="-12" on="0"/>
        <pt x="895" y="115" on="1"/>
        <pt x="820" y="50" on="0"/>
        <pt x="628" y="-20" on="0"/>
        <pt x="523" y="-20" on="1"/>
        <pt x="308" y="-20" on="0"/>
        <pt x="72" y="187" on="0"/>
        <pt x="72" y="371" on="1"/>
        <pt x="72" y="649" on="0"/>
        <pt x="415" y="800" on="1"/>
        <pt x="382" y="862" on="0"/>
        <pt x="334" y="1032" on="0"/>
        <pt x="334" y="1102" on="1"/>
        <pt x="334" y="1252" on="0"/>
        <pt x="517" y="1417" on="0"/>
        <pt x="685" y="1417" on="1"/>
        <pt x="836" y="1417" on="0"/>
        <pt x="1021" y="1265" on="0"/>
        <pt x="1021" y="1133" on="1"/>
        <pt x="1021" y="1015" on="0"/>
        <pt x="838" y="831" on="0"/>
        <pt x="612" y="741" on="1"/>
        <pt x="723" y="536" on="0"/>
        <pt x="905" y="329" on="1"/>
        <pt x="1018" y="495" on="0"/>
        <pt x="1076" y="739" on="1"/>
        <pt x="1221" y="696" on="1"/>
        <pt x="1158" y="447" on="0"/>
        <pt x="1009" y="227" on="1"/>
        <pt x="1105" y="129" on="0"/>
        <pt x="1217" y="129" on="1"/>
        <pt x="1288" y="129" on="0"/>
        <pt x="1334" y="145" on="1"/>
        <pt x="1334" y="10" on="1"/>
        <pt x="1278" y="-12" on="0"/>
      </contour>
      <contour>
        <pt x="869" y="1133" on="1"/>
        <pt x="869" y="1205" on="0"/>
        <pt x="769" y="1296" on="0"/>
        <pt x="683" y="1296" on="1"/>
        <pt x="587" y="1296" on="0"/>
        <pt x="487" y="1193" on="0"/>
        <pt x="487" y="1102" on="1"/>
        <pt x="487" y="988" on="0"/>
        <pt x="552" y="858" on="1"/>
        <pt x="683" y="911" on="0"/>
        <pt x="806" y="989" on="0"/>
        <pt x="869" y="1079" on="0"/>
      </contour>
      <contour>
        <pt x="795" y="217" on="1"/>
        <pt x="597" y="451" on="0"/>
        <pt x="476" y="674" on="1"/>
        <pt x="240" y="574" on="0"/>
        <pt x="240" y="373" on="1"/>
        <pt x="240" y="252" on="0"/>
        <pt x="395" y="111" on="0"/>
        <pt x="529" y="111" on="1"/>
        <pt x="600" y="111" on="0"/>
        <pt x="742" y="166" on="0"/>
      </contour>
    </TTGlyph>
    <TTGlyph name="anoteleia" xMin="187" yMin="446" xMax="382" yMax="666">
      <contour>
        <pt x="187" y="446" on="1"/>
        <pt x="187" y="666" on="1"/>
        <pt x="382" y="666" on="1"/>
        <pt x="382" y="446" on="1"/>
      </contour>
    </TTGlyph>
    <TTGlyph name="aogonek" xMin="87" yMin="-427" xMax="1139" yMax="1102">
      <component glyphName="a" x="0" y="0" flags="0x204"/>
      <component glyphName="ogonek" x="709" y="0" flags="0x4"/>
    </TTGlyph>
    <TTGlyph name="approxequal" xMin="56" yMin="336" xMax="1068" yMax="1012">
      <contour>
        <pt x="808" y="758" on="1"/>
        <pt x="739" y="758" on="0"/>
        <pt x="594" y="801" on="0"/>
        <pt x="521" y="827" on="1"/>
        <pt x="388" y="872" on="0"/>
        <pt x="304" y="872" on="1"/>
        <pt x="241" y="872" on="0"/>
        <pt x="127" y="835" on="0"/>
        <pt x="56" y="784" on="1"/>
        <pt x="56" y="928" on="1"/>
        <pt x="170" y="1012" on="0"/>
        <pt x="319" y="1012" on="1"/>
        <pt x="422" y="1012" on="0"/>
        <pt x="554" y="965" on="1"/>
        <pt x="664" y="925" on="0"/>
        <pt x="779" y="893" on="0"/>
        <pt x="824" y="893" on="1"/>
        <pt x="954" y="893" on="0"/>
        <pt x="1068" y="987" on="1"/>
        <pt x="1068" y="838" on="1"/>
        <pt x="1010" y="796" on="0"/>
        <pt x="893" y="758" on="0"/>
      </contour>
      <contour>
        <pt x="808" y="336" on="1"/>
        <pt x="739" y="336" on="0"/>
        <pt x="594" y="380" on="0"/>
        <pt x="521" y="406" on="1"/>
        <pt x="388" y="453" on="0"/>
        <pt x="304" y="453" on="1"/>
        <pt x="237" y="453" on="0"/>
        <pt x="121" y="412" on="0"/>
        <pt x="56" y="365" on="1"/>
        <pt x="56" y="506" on="1"/>
        <pt x="167" y="590" on="0"/>
        <pt x="319" y="590" on="1"/>
        <pt x="371" y="590" on="0"/>
        <pt x="498" y="564" on="0"/>
        <pt x="628" y="518" on="1"/>
        <pt x="659" y="506" on="0"/>
        <pt x="779" y="473" on="0"/>
        <pt x="824" y="473" on="1"/>
        <pt x="954" y="473" on="0"/>
        <pt x="1068" y="565" on="1"/>
        <pt x="1068" y="418" on="1"/>
        <pt x="1002" y="371" on="0"/>
        <pt x="889" y="336" on="0"/>
      </contour>
    </TTGlyph>
    <TTGlyph name="aring" xMin="87" yMin="-20" xMax="1139" yMax="1651">
      <component glyphName="a" x="0" y="0" flags="0x204"/>
      <component glyphName="ring" x="264" y="0" flags="0x4"/>
    </TTGlyph>
    <TTGlyph name="aringacute" xMin="87" yMin="-20" xMax="1139" yMax="1854">
      <component glyphName="a" x="0" y="0" flags="0x204"/>
      <component glyphName="ring" x="276" y="-171" flags="0x4"/>
      <component glyphName="acute" x="355" y="346" flags="0x4"/>
    </TTGlyph>
    <TTGlyph name="arrowboth" xMin="418" yMin="100" xMax="1630" yMax="580">
      <contour>
        <pt x="641" y="297" on="1"/>
        <pt x="698" y="230" on="0"/>
        <pt x="760" y="100" on="1"/>
        <pt x="688" y="100" on="1"/>
        <pt x="561" y="249" on="0"/>
        <pt x="418" y="322" on="1"/>
        <pt x="418" y="358" on="1"/>
        <pt x="561" y="431" on="0"/>
        <pt x="688" y="580" on="1"/>
        <pt x="760" y="580" on="1"/>
        <pt x="698" y="450" on="0"/>
        <pt x="641" y="383" on="1"/>
        <pt x="1407" y="383" on="1"/>
        <pt x="1350" y="450" on="0"/>
        <pt x="1288" y="580" on="1"/>
        <pt x="1360" y="580" on="1"/>
        <pt x="1487" y="431" on="0"/>
        <pt x="1630" y="358" on="1"/>
        <pt x="1630" y="322" on="1"/>
        <pt x="1487" y="249" on="0"/>
        <pt x="1360" y="100" on="1"/>
        <pt x="1288" y="100" on="1"/>
        <pt x="1350" y="230" on="0"/>
        <pt x="1407" y="297" on="1"/>
      </contour>
    </TTGlyph>
    <TTGlyph name="arrowdown" xMin="272" yMin="-61" xMax="752" yMax="1151">
      <contour>
        <pt x="555" y="162" on="1"/>
        <pt x="622" y="219" on="0"/>
        <pt x="752" y="281" on="1"/>
        <pt x="752" y="209" on="1"/>
        <pt x="603" y="82" on="0"/>
        <pt x="530" y="-61" on="1"/>
        <pt x="494" y="-61" on="1"/>
        <pt x="421" y="82" on="0"/>
        <pt x="272" y="209" on="1"/>
        <pt x="272" y="281" on="1"/>
        <pt x="402" y="219" on="0"/>
        <pt x="469" y="162" on="1"/>
        <pt x="469" y="1151" on="1"/>
        <pt x="555" y="1151" on="1"/>
      </contour>
    </TTGlyph>
    <TTGlyph name="arrowleft" xMin="418" yMin="100" xMax="1630" yMax="580">
      <contour>
        <pt x="641" y="297" on="1"/>
        <pt x="698" y="230" on="0"/>
        <pt x="760" y="100" on="1"/>
        <pt x="688" y="100" on="1"/>
        <pt x="561" y="249" on="0"/>
        <pt x="418" y="322" on="1"/>
        <pt x="418" y="358" on="1"/>
        <pt x="561" y="431" on="0"/>
        <pt x="688" y="580" on="1"/>
        <pt x="760" y="580" on="1"/>
        <pt x="698" y="450" on="0"/>
        <pt x="641" y="383" on="1"/>
        <pt x="1630" y="383" on="1"/>
        <pt x="1630" y="297" on="1"/>
      </contour>
    </TTGlyph>
    <TTGlyph name="arrowright" xMin="418" yMin="100" xMax="1630" yMax="580">
      <contour>
        <pt x="1407" y="383" on="1"/>
        <pt x="1350" y="450" on="0"/>
        <pt x="1288" y="580" on="1"/>
        <pt x="1360" y="580" on="1"/>
        <pt x="1487" y="431" on="0"/>
        <pt x="1630" y="358" on="1"/>
        <pt x="1630" y="322" on="1"/>
        <pt x="1487" y="249" on="0"/>
        <pt x="1360" y="100" on="1"/>
        <pt x="1288" y="100" on="1"/>
        <pt x="1350" y="230" on="0"/>
        <pt x="1407" y="297" on="1"/>
        <pt x="418" y="297" on="1"/>
        <pt x="418" y="383" on="1"/>
      </contour>
    </TTGlyph>
    <TTGlyph name="arrowup" xMin="272" yMin="-61" xMax="752" yMax="1151">
      <contour>
        <pt x="469" y="928" on="1"/>
        <pt x="402" y="871" on="0"/>
        <pt x="272" y="809" on="1"/>
        <pt x="272" y="881" on="1"/>
        <pt x="421" y="1008" on="0"/>
        <pt x="494" y="1151" on="1"/>
        <pt x="530" y="1151" on="1"/>
        <pt x="603" y="1008" on="0"/>
        <pt x="752" y="881" on="1"/>
        <pt x="752" y="809" on="1"/>
        <pt x="622" y="871" on="0"/>
        <pt x="555" y="928" on="1"/>
        <pt x="555" y="-61" on="1"/>
        <pt x="469" y="-61" on="1"/>
      </contour>
    </TTGlyph>
    <TTGlyph name="arrowupdn" xMin="272" yMin="-61" xMax="752" yMax="1151">
      <contour>
        <pt x="469" y="928" on="1"/>
        <pt x="402" y="871" on="0"/>
        <pt x="272" y="809" on="1"/>
        <pt x="272" y="881" on="1"/>
        <pt x="421" y="1008" on="0"/>
        <pt x="494" y="1151" on="1"/>
        <pt x="530" y="1151" on="1"/>
        <pt x="603" y="1008" on="0"/>
        <pt x="752" y="881" on="1"/>
        <pt x="752" y="809" on="1"/>
        <pt x="622" y="871" on="0"/>
        <pt x="555" y="928" on="1"/>
        <pt x="555" y="162" on="1"/>
        <pt x="622" y="219" on="0"/>
        <pt x="752" y="281" on="1"/>
        <pt x="752" y="209" on="1"/>
        <pt x="603" y="82" on="0"/>
        <pt x="530" y="-61" on="1"/>
        <pt x="494" y="-61" on="1"/>
        <pt x="421" y="82" on="0"/>
        <pt x="272" y="209" on="1"/>
        <pt x="272" y="281" on="1"/>
        <pt x="402" y="219" on="0"/>
        <pt x="469" y="162" on="1"/>
      </contour>
    </TTGlyph>
    <TTGlyph name="arrowupdnbse" xMin="272" yMin="-184" xMax="752" yMax="1151">
      <contour>
        <pt x="272" y="-104" on="1"/>
        <pt x="752" y="-104" on="1"/>
        <pt x="752" y="-184" on="1"/>
        <pt x="272" y="-184" on="1"/>
      </contour>
      <contour>
        <pt x="469" y="928" on="1"/>
        <pt x="402" y="871" on="0"/>
        <pt x="272" y="809" on="1"/>
        <pt x="272" y="881" on="1"/>
        <pt x="421" y="1008" on="0"/>
        <pt x="494" y="1151" on="1"/>
        <pt x="530" y="1151" on="1"/>
        <pt x="603" y="1008" on="0"/>
        <pt x="752" y="881" on="1"/>
        <pt x="752" y="809" on="1"/>
        <pt x="622" y="871" on="0"/>
        <pt x="555" y="928" on="1"/>
        <pt x="555" y="162" on="1"/>
        <pt x="622" y="219" on="0"/>
        <pt x="752" y="281" on="1"/>
        <pt x="752" y="209" on="1"/>
        <pt x="603" y="82" on="0"/>
        <pt x="530" y="-61" on="1"/>
        <pt x="494" y="-61" on="1"/>
        <pt x="421" y="82" on="0"/>
        <pt x="272" y="209" on="1"/>
        <pt x="272" y="281" on="1"/>
        <pt x="402" y="219" on="0"/>
        <pt x="469" y="162" on="1"/>
      </contour>
    </TTGlyph>
    <TTGlyph name="asciicircum" xMin="10" yMin="673" xMax="951" yMax="1409">
      <contour>
        <pt x="787" y="673" on="1"/>
        <pt x="478" y="1306" on="1"/>
        <pt x="172" y="673" on="1"/>
        <pt x="10" y="673" on="1"/>
        <pt x="378" y="1409" on="1"/>
        <pt x="581" y="1409" on="1"/>
        <pt x="951" y="673" on="1"/>
      </contour>
    </TTGlyph>
    <TTGlyph name="asciitilde" xMin="92" yMin="553" xMax="1104" yMax="807">
      <contour>
        <pt x="844" y="553" on="1"/>
        <pt x="775" y="553" on="0"/>
        <pt x="630" y="597" on="0"/>
        <pt x="557" y="623" on="1"/>
        <pt x="428" y="668" on="0"/>
        <pt x="340" y="668" on="1"/>
        <pt x="273" y="668" on="0"/>
        <pt x="157" y="627" on="0"/>
        <pt x="92" y="580" on="1"/>
        <pt x="92" y="723" on="1"/>
        <pt x="203" y="807" on="0"/>
        <pt x="355" y="807" on="1"/>
        <pt x="407" y="807" on="0"/>
        <pt x="534" y="781" on="0"/>
        <pt x="664" y="735" on="1"/>
        <pt x="695" y="723" on="0"/>
        <pt x="815" y="690" on="0"/>
        <pt x="860" y="690" on="1"/>
        <pt x="990" y="690" on="0"/>
        <pt x="1104" y="782" on="1"/>
        <pt x="1104" y="633" on="1"/>
        <pt x="1046" y="591" on="0"/>
        <pt x="929" y="553" on="0"/>
      </contour>
    </TTGlyph>
    <TTGlyph name="asterisk" xMin="33" yMin="690" xMax="765" yMax="1409">
      <contour>
        <pt x="456" y="1114" on="1"/>
        <pt x="720" y="1217" on="1"/>
        <pt x="765" y="1085" on="1"/>
        <pt x="483" y="1012" on="1"/>
        <pt x="668" y="762" on="1"/>
        <pt x="549" y="690" on="1"/>
        <pt x="399" y="948" on="1"/>
        <pt x="243" y="692" on="1"/>
        <pt x="124" y="764" on="1"/>
        <pt x="313" y="1012" on="1"/>
        <pt x="33" y="1085" on="1"/>
        <pt x="78" y="1219" on="1"/>
        <pt x="345" y="1112" on="1"/>
        <pt x="333" y="1409" on="1"/>
        <pt x="469" y="1409" on="1"/>
      </contour>
    </TTGlyph>
    <TTGlyph name="at" xMin="161" yMin="-283" xMax="1902" yMax="1484">
      <contour>
        <pt x="1902" y="755" on="1"/>
        <pt x="1902" y="569" on="0"/>
        <pt x="1787" y="268" on="0"/>
        <pt x="1582" y="104" on="0"/>
        <pt x="1455" y="104" on="1"/>
        <pt x="1356" y="104" on="0"/>
        <pt x="1248" y="192" on="0"/>
        <pt x="1248" y="280" on="1"/>
        <pt x="1251" y="350" on="1"/>
        <pt x="1245" y="350" on="1"/>
        <pt x="1179" y="227" on="0"/>
        <pt x="984" y="104" on="0"/>
        <pt x="871" y="104" on="1"/>
        <pt x="714" y="104" on="0"/>
        <pt x="541" y="308" on="0"/>
        <pt x="541" y="489" on="1"/>
        <pt x="541" y="653" on="0"/>
        <pt x="670" y="935" on="0"/>
        <pt x="902" y="1101" on="0"/>
        <pt x="1043" y="1101" on="1"/>
        <pt x="1262" y="1101" on="0"/>
        <pt x="1344" y="919" on="1"/>
        <pt x="1350" y="919" on="1"/>
        <pt x="1389" y="1079" on="1"/>
        <pt x="1545" y="1079" on="1"/>
        <pt x="1429" y="573" on="1"/>
        <pt x="1392" y="409" on="0"/>
        <pt x="1392" y="320" on="1"/>
        <pt x="1392" y="226" on="0"/>
        <pt x="1473" y="226" on="1"/>
        <pt x="1553" y="226" on="0"/>
        <pt x="1688" y="364" on="0"/>
        <pt x="1766" y="606" on="0"/>
        <pt x="1766" y="753" on="1"/>
        <pt x="1766" y="932" on="0"/>
        <pt x="1612" y="1209" on="0"/>
        <pt x="1322" y="1358" on="0"/>
        <pt x="1128" y="1358" on="1"/>
        <pt x="886" y="1358" on="0"/>
        <pt x="514" y="1144" on="0"/>
        <pt x="302" y="741" on="0"/>
        <pt x="302" y="491" on="1"/>
        <pt x="302" y="298" on="0"/>
        <pt x="459" y="3" on="0"/>
        <pt x="756" y="-155" on="0"/>
        <pt x="954" y="-155" on="1"/>
        <pt x="1099" y="-155" on="0"/>
        <pt x="1397" y="-80" on="0"/>
        <pt x="1557" y="7" on="1"/>
        <pt x="1612" y="-105" on="1"/>
        <pt x="1467" y="-192" on="0"/>
        <pt x="1128" y="-283" on="0"/>
        <pt x="954" y="-283" on="1"/>
        <pt x="713" y="-283" on="0"/>
        <pt x="352" y="-92" on="0"/>
        <pt x="161" y="261" on="0"/>
        <pt x="161" y="491" on="1"/>
        <pt x="161" y="771" on="0"/>
        <pt x="410" y="1229" on="0"/>
        <pt x="852" y="1484" on="0"/>
        <pt x="1126" y="1484" on="1"/>
        <pt x="1367" y="1484" on="0"/>
        <pt x="1717" y="1303" on="0"/>
        <pt x="1902" y="973" on="0"/>
      </contour>
      <contour>
        <pt x="1296" y="747" on="1"/>
        <pt x="1296" y="849" on="0"/>
        <pt x="1164" y="974" on="0"/>
        <pt x="1054" y="974" on="1"/>
        <pt x="953" y="974" on="0"/>
        <pt x="796" y="847" on="0"/>
        <pt x="706" y="622" on="0"/>
        <pt x="706" y="491" on="1"/>
        <pt x="706" y="371" on="0"/>
        <pt x="801" y="235" on="0"/>
        <pt x="900" y="235" on="1"/>
        <pt x="1025" y="235" on="0"/>
        <pt x="1233" y="445" on="0"/>
        <pt x="1273" y="602" on="1"/>
        <pt x="1296" y="694" on="0"/>
      </contour>
    </TTGlyph>
    <TTGlyph name="atilde" xMin="87" yMin="-20" xMax="1139" yMax="1469">
      <component glyphName="a" x="0" y="0" flags="0x204"/>
      <component glyphName="tilde" x="245" y="0" flags="0x4"/>
    </TTGlyph>
    <TTGlyph name="ayin" xMin="41" yMin="-33" xMax="1090" yMax="1227">
      <contour>
        <pt x="41" y="162" on="1"/>
        <pt x="317" y="162" on="0"/>
        <pt x="475" y="213" on="1"/>
        <pt x="104" y="1227" on="1"/>
        <pt x="307" y="1227" on="1"/>
        <pt x="635" y="291" on="1"/>
        <pt x="775" y="391" on="0"/>
        <pt x="897" y="810" on="0"/>
        <pt x="897" y="1227" on="1"/>
        <pt x="1090" y="1227" on="1"/>
        <pt x="1090" y="764" on="0"/>
        <pt x="893" y="242" on="0"/>
        <pt x="448" y="-12" on="0"/>
        <pt x="41" y="-33" on="1"/>
      </contour>
    </TTGlyph>
    <TTGlyph name="b" xMin="132" yMin="-20" xMax="1053" yMax="1484">
      <contour>
        <pt x="1053" y="546" on="1"/>
        <pt x="1053" y="-20" on="0"/>
        <pt x="655" y="-20" on="1"/>
        <pt x="532" y="-20" on="0"/>
        <pt x="369" y="69" on="0"/>
        <pt x="318" y="168" on="1"/>
        <pt x="316" y="168" on="1"/>
        <pt x="316" y="137" on="0"/>
        <pt x="308" y="10" on="0"/>
        <pt x="306" y="0" on="1"/>
        <pt x="132" y="0" on="1"/>
        <pt x="138" y="54" on="0"/>
        <pt x="138" y="223" on="1"/>
        <pt x="138" y="1484" on="1"/>
        <pt x="318" y="1484" on="1"/>
        <pt x="318" y="1061" on="1"/>
        <pt x="318" y="996" on="0"/>
        <pt x="314" y="908" on="1"/>
        <pt x="318" y="908" on="1"/>
        <pt x="368" y="1012" on="0"/>
        <pt x="533" y="1102" on="0"/>
        <pt x="655" y="1102" on="1"/>
        <pt x="860" y="1102" on="0"/>
        <pt x="1053" y="826" on="0"/>
      </contour>
      <contour>
        <pt x="864" y="540" on="1"/>
        <pt x="864" y="767" on="0"/>
        <pt x="744" y="963" on="0"/>
        <pt x="609" y="963" on="1"/>
        <pt x="457" y="963" on="0"/>
        <pt x="318" y="755" on="0"/>
        <pt x="318" y="529" on="1"/>
        <pt x="318" y="316" on="0"/>
        <pt x="454" y="113" on="0"/>
        <pt x="607" y="113" on="1"/>
        <pt x="743" y="113" on="0"/>
        <pt x="864" y="314" on="0"/>
      </contour>
    </TTGlyph>
    <TTGlyph name="backslash" xMin="0" yMin="-20" xMax="569" yMax="1484">
      <contour>
        <pt x="407" y="-20" on="1"/>
        <pt x="0" y="1484" on="1"/>
        <pt x="158" y="1484" on="1"/>
        <pt x="569" y="-20" on="1"/>
      </contour>
    </TTGlyph>
    <TTGlyph name="bar" xMin="183" yMin="-434" xMax="349" yMax="1484">
      <contour>
        <pt x="183" y="-434" on="1"/>
        <pt x="183" y="1484" on="1"/>
        <pt x="349" y="1484" on="1"/>
        <pt x="349" y="-434" on="1"/>
      </contour>
    </TTGlyph>
    <TTGlyph name="bari.dotless" xMin="26" yMin="0" xMax="429" yMax="1082">
      <contour>
        <pt x="26" y="617" on="1"/>
        <pt x="135" y="617" on="1"/>
        <pt x="135" y="1082" on="1"/>
        <pt x="315" y="1082" on="1"/>
        <pt x="315" y="617" on="1"/>
        <pt x="429" y="617" on="1"/>
        <pt x="429" y="484" on="1"/>
        <pt x="315" y="484" on="1"/>
        <pt x="315" y="0" on="1"/>
        <pt x="135" y="0" on="1"/>
        <pt x="135" y="484" on="1"/>
        <pt x="26" y="484" on="1"/>
      </contour>
    </TTGlyph>
    <TTGlyph name="bet" xMin="82" yMin="0" xMax="1153" yMax="1227">
      <contour>
        <pt x="129" y="1057" on="1"/>
        <pt x="129" y="1227" on="1"/>
        <pt x="506" y="1227" on="1"/>
        <pt x="782" y="1227" on="0"/>
        <pt x="1020" y="991" on="0"/>
        <pt x="1020" y="719" on="1"/>
        <pt x="1020" y="170" on="1"/>
        <pt x="1153" y="170" on="1"/>
        <pt x="1153" y="0" on="1"/>
        <pt x="82" y="0" on="1"/>
        <pt x="82" y="170" on="1"/>
        <pt x="836" y="170" on="1"/>
        <pt x="836" y="721" on="1"/>
        <pt x="836" y="905" on="0"/>
        <pt x="687" y="1057" on="0"/>
        <pt x="504" y="1057" on="1"/>
      </contour>
    </TTGlyph>
    <TTGlyph name="beta" xMin="142" yMin="-425" xMax="1097" yMax="1484">
      <contour>
        <pt x="1097" y="405" on="1"/>
        <pt x="1097" y="207" on="0"/>
        <pt x="860" y="-20" on="0"/>
        <pt x="640" y="-20" on="1"/>
        <pt x="457" y="-20" on="0"/>
        <pt x="322" y="74" on="1"/>
        <pt x="316" y="74" on="1"/>
        <pt x="322" y="-40" on="0"/>
        <pt x="322" y="-128" on="1"/>
        <pt x="322" y="-425" on="1"/>
        <pt x="142" y="-425" on="1"/>
        <pt x="142" y="1027" on="1"/>
        <pt x="142" y="1264" on="0"/>
        <pt x="370" y="1484" on="0"/>
        <pt x="596" y="1484" on="1"/>
        <pt x="793" y="1484" on="0"/>
        <pt x="1002" y="1301" on="0"/>
        <pt x="1002" y="1135" on="1"/>
        <pt x="1002" y="882" on="0"/>
        <pt x="779" y="795" on="1"/>
        <pt x="927" y="766" on="0"/>
        <pt x="1097" y="562" on="0"/>
      </contour>
      <contour>
        <pt x="322" y="205" on="1"/>
        <pt x="386" y="162" on="0"/>
        <pt x="551" y="113" on="0"/>
        <pt x="632" y="113" on="1"/>
        <pt x="773" y="113" on="0"/>
        <pt x="925" y="267" on="0"/>
        <pt x="925" y="402" on="1"/>
        <pt x="925" y="547" on="0"/>
        <pt x="752" y="703" on="0"/>
        <pt x="589" y="703" on="1"/>
        <pt x="589" y="845" on="1"/>
        <pt x="716" y="872" on="0"/>
        <pt x="829" y="1011" on="0"/>
        <pt x="829" y="1133" on="1"/>
        <pt x="829" y="1231" on="0"/>
        <pt x="708" y="1343" on="0"/>
        <pt x="598" y="1343" on="1"/>
        <pt x="451" y="1343" on="0"/>
        <pt x="322" y="1188" on="0"/>
        <pt x="322" y="1021" on="1"/>
      </contour>
    </TTGlyph>
    <TTGlyph name="betdagesh" xMin="82" yMin="0" xMax="1153" yMax="1227">
      <component glyphName="bet" x="0" y="0" flags="0x204"/>
      <component glyphName="dagesh" x="467" y="0" flags="0x4"/>
    </TTGlyph>
    <TTGlyph name="betrafe" xMin="82" yMin="0" xMax="1153" yMax="1579">
      <component glyphName="bet" x="0" y="0" flags="0x204"/>
      <component glyphName="rafe" x="516" y="0" flags="0x4"/>
    </TTGlyph>
    <TTGlyph name="block" xMin="0" yMin="-621" xMax="1451" yMax="1864">
      <contour>
        <pt x="1451" y="-621" on="1"/>
        <pt x="0" y="-621" on="1"/>
        <pt x="0" y="1864" on="1"/>
        <pt x="1451" y="1864" on="1"/>
      </contour>
    </TTGlyph>
    <TTGlyph name="braceleft" xMin="34" yMin="-425" xMax="648" yMax="1484">
      <contour>
        <pt x="513" y="-425" on="1"/>
        <pt x="386" y="-425" on="0"/>
        <pt x="249" y="-271" on="0"/>
        <pt x="249" y="-132" on="1"/>
        <pt x="249" y="229" on="1"/>
        <pt x="249" y="346" on="0"/>
        <pt x="144" y="461" on="0"/>
        <pt x="34" y="466" on="1"/>
        <pt x="34" y="593" on="1"/>
        <pt x="143" y="597" on="0"/>
        <pt x="249" y="712" on="0"/>
        <pt x="249" y="829" on="1"/>
        <pt x="249" y="1191" on="1"/>
        <pt x="249" y="1332" on="0"/>
        <pt x="382" y="1484" on="0"/>
        <pt x="513" y="1484" on="1"/>
        <pt x="648" y="1484" on="1"/>
        <pt x="648" y="1355" on="1"/>
        <pt x="585" y="1355" on="1"/>
        <pt x="494" y="1355" on="0"/>
        <pt x="417" y="1248" on="0"/>
        <pt x="417" y="1140" on="1"/>
        <pt x="417" y="784" on="1"/>
        <pt x="417" y="690" on="0"/>
        <pt x="311" y="553" on="0"/>
        <pt x="223" y="532" on="1"/>
        <pt x="223" y="530" on="1"/>
        <pt x="312" y="509" on="0"/>
        <pt x="417" y="373" on="0"/>
        <pt x="417" y="276" on="1"/>
        <pt x="417" y="-81" on="1"/>
        <pt x="417" y="-187" on="0"/>
        <pt x="494" y="-296" on="0"/>
        <pt x="585" y="-296" on="1"/>
        <pt x="648" y="-296" on="1"/>
        <pt x="648" y="-425" on="1"/>
      </contour>
    </TTGlyph>
    <TTGlyph name="braceright" xMin="34" yMin="-425" xMax="647" yMax="1484">
      <contour>
        <pt x="94" y="-296" on="1"/>
        <pt x="185" y="-296" on="0"/>
        <pt x="264" y="-187" on="0"/>
        <pt x="264" y="-81" on="1"/>
        <pt x="264" y="276" on="1"/>
        <pt x="264" y="374" on="0"/>
        <pt x="368" y="510" on="0"/>
        <pt x="457" y="530" on="1"/>
        <pt x="457" y="532" on="1"/>
        <pt x="371" y="552" on="0"/>
        <pt x="264" y="687" on="0"/>
        <pt x="264" y="784" on="1"/>
        <pt x="264" y="1140" on="1"/>
        <pt x="264" y="1248" on="0"/>
        <pt x="185" y="1355" on="0"/>
        <pt x="94" y="1355" on="1"/>
        <pt x="34" y="1355" on="1"/>
        <pt x="34" y="1484" on="1"/>
        <pt x="166" y="1484" on="1"/>
        <pt x="297" y="1484" on="0"/>
        <pt x="430" y="1332" on="0"/>
        <pt x="430" y="1191" on="1"/>
        <pt x="430" y="829" on="1"/>
        <pt x="430" y="713" on="0"/>
        <pt x="536" y="597" on="0"/>
        <pt x="647" y="593" on="1"/>
        <pt x="647" y="466" on="1"/>
        <pt x="535" y="462" on="0"/>
        <pt x="430" y="346" on="0"/>
        <pt x="430" y="229" on="1"/>
        <pt x="430" y="-132" on="1"/>
        <pt x="430" y="-270" on="0"/>
        <pt x="293" y="-425" on="0"/>
        <pt x="166" y="-425" on="1"/>
        <pt x="34" y="-425" on="1"/>
        <pt x="34" y="-296" on="1"/>
      </contour>
    </TTGlyph>
    <TTGlyph name="bracketleft" xMin="146" yMin="-425" xMax="553" yMax="1484">
      <contour>
        <pt x="146" y="-425" on="1"/>
        <pt x="146" y="1484" on="1"/>
        <pt x="553" y="1484" on="1"/>
        <pt x="553" y="1355" on="1"/>
        <pt x="320" y="1355" on="1"/>
        <pt x="320" y="-296" on="1"/>
        <pt x="553" y="-296" on="1"/>
        <pt x="553" y="-425" on="1"/>
      </contour>
    </TTGlyph>
    <TTGlyph name="bracketright" xMin="16" yMin="-425" xMax="423" yMax="1484">
      <contour>
        <pt x="16" y="-425" on="1"/>
        <pt x="16" y="-296" on="1"/>
        <pt x="249" y="-296" on="1"/>
        <pt x="249" y="1355" on="1"/>
        <pt x="16" y="1355" on="1"/>
        <pt x="16" y="1484" on="1"/>
        <pt x="423" y="1484" on="1"/>
        <pt x="423" y="-425" on="1"/>
      </contour>
    </TTGlyph>
    <TTGlyph name="breve" xMin="-35" yMin="1201" xMax="631" yMax="1510">
      <contour>
        <pt x="297" y="1201" on="1"/>
        <pt x="165" y="1201" on="0"/>
        <pt x="-17" y="1371" on="0"/>
        <pt x="-35" y="1510" on="1"/>
        <pt x="82" y="1510" on="1"/>
        <pt x="110" y="1357" on="0"/>
        <pt x="299" y="1357" on="1"/>
        <pt x="485" y="1357" on="0"/>
        <pt x="514" y="1510" on="1"/>
        <pt x="631" y="1510" on="1"/>
        <pt x="610" y="1368" on="0"/>
        <pt x="431" y="1201" on="0"/>
      </contour>
    </TTGlyph>
    <TTGlyph name="breve.alt1" xMin="-35" yMin="1201" xMax="631" yMax="1510">
      <component glyphName="breve" x="0" y="0" flags="0x4"/>
    </TTGlyph>
    <TTGlyph name="breve.cyr" xMin="-27" yMin="1200" xMax="707" yMax="1520">
      <contour>
        <pt x="340" y="1200" on="1"/>
        <pt x="-16" y="1200" on="0"/>
        <pt x="-27" y="1520" on="1"/>
        <pt x="137" y="1520" on="1"/>
        <pt x="149" y="1321" on="0"/>
        <pt x="340" y="1321" on="1"/>
        <pt x="531" y="1321" on="0"/>
        <pt x="543" y="1520" on="1"/>
        <pt x="707" y="1520" on="1"/>
        <pt x="696" y="1200" on="0"/>
      </contour>
    </TTGlyph>
    <TTGlyph name="breve.uc" xMin="-24" yMin="1530" xMax="642" yMax="1779">
      <contour>
        <pt x="308" y="1530" on="1"/>
        <pt x="175" y="1530" on="0"/>
        <pt x="-6" y="1668" on="0"/>
        <pt x="-24" y="1779" on="1"/>
        <pt x="93" y="1779" on="1"/>
        <pt x="110" y="1726" on="0"/>
        <pt x="219" y="1666" on="0"/>
        <pt x="310" y="1666" on="1"/>
        <pt x="401" y="1666" on="0"/>
        <pt x="508" y="1727" on="0"/>
        <pt x="525" y="1779" on="1"/>
        <pt x="642" y="1779" on="1"/>
        <pt x="621" y="1665" on="0"/>
        <pt x="441" y="1530" on="0"/>
      </contour>
    </TTGlyph>
    <TTGlyph name="breveacute" xMin="-313" yMin="1462" xMax="313" yMax="1835">
      <contour>
        <pt x="35" y="1835" on="1"/>
        <pt x="261" y="1835" on="1"/>
        <pt x="261" y="1823" on="1"/>
        <pt x="40" y="1677" on="1"/>
        <pt x="-90" y="1677" on="1"/>
        <pt x="-90" y="1687" on="1"/>
      </contour>
      <contour>
        <pt x="-1" y="1462" on="1"/>
        <pt x="-130" y="1462" on="0"/>
        <pt x="-295" y="1595" on="0"/>
        <pt x="-313" y="1711" on="1"/>
        <pt x="-206" y="1711" on="1"/>
        <pt x="-189" y="1643" on="0"/>
        <pt x="-83" y="1588" on="0"/>
        <pt x="1" y="1588" on="1"/>
        <pt x="85" y="1588" on="0"/>
        <pt x="189" y="1644" on="0"/>
        <pt x="206" y="1711" on="1"/>
        <pt x="313" y="1711" on="1"/>
        <pt x="291" y="1591" on="0"/>
        <pt x="128" y="1462" on="0"/>
      </contour>
    </TTGlyph>
    <TTGlyph name="breveacute.lc" xMin="-333" yMin="1201" xMax="333" yMax="1776">
      <contour>
        <pt x="-1" y="1201" on="1"/>
        <pt x="-133" y="1201" on="0"/>
        <pt x="-315" y="1371" on="0"/>
        <pt x="-333" y="1510" on="1"/>
        <pt x="-216" y="1510" on="1"/>
        <pt x="-188" y="1357" on="0"/>
        <pt x="1" y="1357" on="1"/>
        <pt x="187" y="1357" on="0"/>
        <pt x="216" y="1510" on="1"/>
        <pt x="333" y="1510" on="1"/>
        <pt x="312" y="1368" on="0"/>
        <pt x="133" y="1201" on="0"/>
      </contour>
      <contour>
        <pt x="-108" y="1530" on="1"/>
        <pt x="-108" y="1550" on="1"/>
        <pt x="109" y="1776" on="1"/>
        <pt x="316" y="1776" on="1"/>
        <pt x="316" y="1747" on="1"/>
        <pt x="6" y="1530" on="1"/>
      </contour>
    </TTGlyph>
    <TTGlyph name="brevegrave" xMin="-313" yMin="1462" xMax="313" yMax="1835">
      <contour>
        <pt x="92" y="1687" on="1"/>
        <pt x="92" y="1677" on="1"/>
        <pt x="-38" y="1677" on="1"/>
        <pt x="-259" y="1823" on="1"/>
        <pt x="-259" y="1835" on="1"/>
        <pt x="-33" y="1835" on="1"/>
      </contour>
      <contour>
        <pt x="-1" y="1462" on="1"/>
        <pt x="-130" y="1462" on="0"/>
        <pt x="-295" y="1595" on="0"/>
        <pt x="-313" y="1711" on="1"/>
        <pt x="-206" y="1711" on="1"/>
        <pt x="-189" y="1643" on="0"/>
        <pt x="-83" y="1588" on="0"/>
        <pt x="1" y="1588" on="1"/>
        <pt x="85" y="1588" on="0"/>
        <pt x="189" y="1644" on="0"/>
        <pt x="206" y="1711" on="1"/>
        <pt x="313" y="1711" on="1"/>
        <pt x="291" y="1591" on="0"/>
        <pt x="128" y="1462" on="0"/>
      </contour>
    </TTGlyph>
    <TTGlyph name="brevegrave.lc" xMin="-333" yMin="1201" xMax="333" yMax="1776">
      <contour>
        <pt x="1" y="1201" on="1"/>
        <pt x="-134" y="1201" on="0"/>
        <pt x="-312" y="1369" on="0"/>
        <pt x="-333" y="1510" on="1"/>
        <pt x="-216" y="1510" on="1"/>
        <pt x="-187" y="1357" on="0"/>
        <pt x="-1" y="1357" on="1"/>
        <pt x="188" y="1357" on="0"/>
        <pt x="216" y="1510" on="1"/>
        <pt x="333" y="1510" on="1"/>
        <pt x="315" y="1370" on="0"/>
        <pt x="133" y="1201" on="0"/>
      </contour>
      <contour>
        <pt x="-6" y="1530" on="1"/>
        <pt x="-316" y="1747" on="1"/>
        <pt x="-316" y="1776" on="1"/>
        <pt x="-109" y="1776" on="1"/>
        <pt x="108" y="1550" on="1"/>
        <pt x="108" y="1530" on="1"/>
      </contour>
    </TTGlyph>
    <TTGlyph name="brevehook" xMin="-313" yMin="1462" xMax="313" yMax="1835">
      <contour>
        <pt x="-1" y="1462" on="1"/>
        <pt x="-130" y="1462" on="0"/>
        <pt x="-295" y="1595" on="0"/>
        <pt x="-313" y="1711" on="1"/>
        <pt x="-206" y="1711" on="1"/>
        <pt x="-189" y="1643" on="0"/>
        <pt x="-83" y="1588" on="0"/>
        <pt x="1" y="1588" on="1"/>
        <pt x="85" y="1588" on="0"/>
        <pt x="189" y="1644" on="0"/>
        <pt x="206" y="1711" on="1"/>
        <pt x="313" y="1711" on="1"/>
        <pt x="291" y="1591" on="0"/>
        <pt x="128" y="1462" on="0"/>
      </contour>
      <contour>
        <pt x="29" y="1732" on="1"/>
        <pt x="29" y="1767" on="0"/>
        <pt x="-30" y="1767" on="1"/>
        <pt x="-81" y="1767" on="0"/>
        <pt x="-121" y="1751" on="1"/>
        <pt x="-141" y="1815" on="1"/>
        <pt x="-83" y="1835" on="0"/>
        <pt x="-16" y="1835" on="1"/>
        <pt x="136" y="1835" on="0"/>
        <pt x="136" y="1739" on="1"/>
        <pt x="136" y="1691" on="0"/>
        <pt x="62" y="1639" on="0"/>
        <pt x="-11" y="1639" on="1"/>
        <pt x="-46" y="1639" on="1"/>
        <pt x="-46" y="1694" on="1"/>
        <pt x="29" y="1694" on="0"/>
      </contour>
    </TTGlyph>
    <TTGlyph name="brevehook.lc" xMin="-333" yMin="1201" xMax="333" yMax="1835">
      <contour>
        <pt x="-1" y="1201" on="1"/>
        <pt x="-133" y="1201" on="0"/>
        <pt x="-315" y="1371" on="0"/>
        <pt x="-333" y="1510" on="1"/>
        <pt x="-216" y="1510" on="1"/>
        <pt x="-188" y="1357" on="0"/>
        <pt x="1" y="1357" on="1"/>
        <pt x="187" y="1357" on="0"/>
        <pt x="216" y="1510" on="1"/>
        <pt x="333" y="1510" on="1"/>
        <pt x="312" y="1368" on="0"/>
        <pt x="133" y="1201" on="0"/>
      </contour>
      <contour>
        <pt x="51" y="1675" on="1"/>
        <pt x="51" y="1730" on="0"/>
        <pt x="-42" y="1730" on="1"/>
        <pt x="-114" y="1730" on="0"/>
        <pt x="-184" y="1706" on="1"/>
        <pt x="-215" y="1805" on="1"/>
        <pt x="-125" y="1835" on="0"/>
        <pt x="-19" y="1835" on="1"/>
        <pt x="218" y="1835" on="0"/>
        <pt x="218" y="1696" on="1"/>
        <pt x="218" y="1637" on="0"/>
        <pt x="137" y="1552" on="0"/>
        <pt x="46" y="1541" on="1"/>
        <pt x="46" y="1501" on="1"/>
        <pt x="-66" y="1501" on="1"/>
        <pt x="-66" y="1611" on="1"/>
        <pt x="3" y="1614" on="0"/>
        <pt x="51" y="1644" on="0"/>
      </contour>
    </TTGlyph>
    <TTGlyph name="brevetilde" xMin="-318" yMin="1462" xMax="319" yMax="1835">
      <contour>
        <pt x="1" y="1462" on="1"/>
        <pt x="-101" y="1462" on="0"/>
        <pt x="-234" y="1568" on="0"/>
        <pt x="-248" y="1661" on="1"/>
        <pt x="-163" y="1661" on="1"/>
        <pt x="-134" y="1578" on="0"/>
        <pt x="3" y="1578" on="1"/>
        <pt x="138" y="1578" on="0"/>
        <pt x="167" y="1661" on="1"/>
        <pt x="252" y="1661" on="1"/>
        <pt x="231" y="1561" on="0"/>
        <pt x="102" y="1462" on="0"/>
      </contour>
      <contour>
        <pt x="127" y="1681" on="1"/>
        <pt x="92" y="1681" on="0"/>
        <pt x="24" y="1700" on="0"/>
        <pt x="-41" y="1722" on="0"/>
        <pt x="-102" y="1741" on="0"/>
        <pt x="-129" y="1741" on="1"/>
        <pt x="-210" y="1741" on="0"/>
        <pt x="-227" y="1681" on="1"/>
        <pt x="-318" y="1681" on="1"/>
        <pt x="-306" y="1746" on="0"/>
        <pt x="-264" y="1803" on="0"/>
        <pt x="-189" y="1835" on="0"/>
        <pt x="-125" y="1835" on="1"/>
        <pt x="-89" y="1835" on="0"/>
        <pt x="-19" y="1816" on="0"/>
        <pt x="45" y="1794" on="0"/>
        <pt x="104" y="1775" on="0"/>
        <pt x="130" y="1775" on="1"/>
        <pt x="178" y="1775" on="0"/>
        <pt x="221" y="1806" on="0"/>
        <pt x="227" y="1835" on="1"/>
        <pt x="319" y="1835" on="1"/>
        <pt x="308" y="1771" on="0"/>
        <pt x="266" y="1712" on="0"/>
        <pt x="190" y="1681" on="0"/>
      </contour>
    </TTGlyph>
    <TTGlyph name="brevetilde.lc" xMin="-333" yMin="1201" xMax="333" yMax="1775">
      <contour>
        <pt x="-1" y="1201" on="1"/>
        <pt x="-133" y="1201" on="0"/>
        <pt x="-315" y="1371" on="0"/>
        <pt x="-333" y="1510" on="1"/>
        <pt x="-216" y="1510" on="1"/>
        <pt x="-188" y="1357" on="0"/>
        <pt x="1" y="1357" on="1"/>
        <pt x="187" y="1357" on="0"/>
        <pt x="216" y="1510" on="1"/>
        <pt x="333" y="1510" on="1"/>
        <pt x="312" y="1368" on="0"/>
        <pt x="133" y="1201" on="0"/>
      </contour>
      <contour>
        <pt x="124" y="1581" on="1"/>
        <pt x="73" y="1581" on="0"/>
        <pt x="-11" y="1619" on="1"/>
        <pt x="-96" y="1656" on="0"/>
        <pt x="-132" y="1656" on="1"/>
        <pt x="-177" y="1656" on="0"/>
        <pt x="-222" y="1621" on="0"/>
        <pt x="-230" y="1581" on="1"/>
        <pt x="-321" y="1581" on="1"/>
        <pt x="-310" y="1663" on="0"/>
        <pt x="-267" y="1735" on="0"/>
        <pt x="-191" y="1775" on="0"/>
        <pt x="-128" y="1775" on="1"/>
        <pt x="-73" y="1775" on="0"/>
        <pt x="10" y="1738" on="1"/>
        <pt x="93" y="1700" on="0"/>
        <pt x="127" y="1700" on="1"/>
        <pt x="175" y="1700" on="0"/>
        <pt x="218" y="1738" on="0"/>
        <pt x="224" y="1775" on="1"/>
        <pt x="316" y="1775" on="1"/>
        <pt x="304" y="1694" on="0"/>
        <pt x="262" y="1620" on="0"/>
        <pt x="187" y="1581" on="0"/>
      </contour>
    </TTGlyph>
    <TTGlyph name="brokenbar" xMin="183" yMin="-434" xMax="349" yMax="1484">
      <contour>
        <pt x="183" y="706" on="1"/>
        <pt x="183" y="1484" on="1"/>
        <pt x="349" y="1484" on="1"/>
        <pt x="349" y="706" on="1"/>
      </contour>
      <contour>
        <pt x="183" y="-434" on="1"/>
        <pt x="183" y="345" on="1"/>
        <pt x="349" y="345" on="1"/>
        <pt x="349" y="-434" on="1"/>
      </contour>
    </TTGlyph>
    <TTGlyph name="bullet" xMin="81" yMin="401" xMax="636" yMax="956">
      <contour>
        <pt x="636" y="682" on="1"/>
        <pt x="636" y="569" on="0"/>
        <pt x="473" y="401" on="0"/>
        <pt x="355" y="401" on="1"/>
        <pt x="242" y="401" on="0"/>
        <pt x="81" y="567" on="0"/>
        <pt x="81" y="682" on="1"/>
        <pt x="81" y="797" on="0"/>
        <pt x="243" y="956" on="0"/>
        <pt x="355" y="956" on="1"/>
        <pt x="471" y="956" on="0"/>
        <pt x="636" y="795" on="0"/>
      </contour>
    </TTGlyph>
    <TTGlyph name="c" xMin="87" yMin="-20" xMax="970" yMax="1102">
      <contour>
        <pt x="275" y="546" on="1"/>
        <pt x="275" y="330" on="0"/>
        <pt x="411" y="122" on="0"/>
        <pt x="548" y="122" on="1"/>
        <pt x="644" y="122" on="0"/>
        <pt x="773" y="226" on="0"/>
        <pt x="788" y="334" on="1"/>
        <pt x="970" y="322" on="1"/>
        <pt x="949" y="166" on="0"/>
        <pt x="725" y="-20" on="0"/>
        <pt x="553" y="-20" on="1"/>
        <pt x="326" y="-20" on="0"/>
        <pt x="87" y="267" on="0"/>
        <pt x="87" y="542" on="1"/>
        <pt x="87" y="815" on="0"/>
        <pt x="327" y="1102" on="0"/>
        <pt x="551" y="1102" on="1"/>
        <pt x="717" y="1102" on="0"/>
        <pt x="936" y="930" on="0"/>
        <pt x="964" y="779" on="1"/>
        <pt x="779" y="765" on="1"/>
        <pt x="765" y="855" on="0"/>
        <pt x="651" y="961" on="0"/>
        <pt x="546" y="961" on="1"/>
        <pt x="403" y="961" on="0"/>
        <pt x="275" y="771" on="0"/>
      </contour>
    </TTGlyph>
    <TTGlyph name="cacute" xMin="87" yMin="-20" xMax="970" yMax="1508">
      <component glyphName="c" x="0" y="0" flags="0x204"/>
      <component glyphName="acute" x="359" y="0" flags="0x4"/>
    </TTGlyph>
    <TTGlyph name="caron" xMin="0" yMin="1201" xMax="662" yMax="1491">
      <contour>
        <pt x="438" y="1201" on="1"/>
        <pt x="234" y="1201" on="1"/>
        <pt x="0" y="1471" on="1"/>
        <pt x="0" y="1491" on="1"/>
        <pt x="104" y="1491" on="1"/>
        <pt x="336" y="1322" on="1"/>
        <pt x="338" y="1322" on="1"/>
        <pt x="557" y="1491" on="1"/>
        <pt x="662" y="1491" on="1"/>
        <pt x="662" y="1471" on="1"/>
      </contour>
    </TTGlyph>
    <TTGlyph name="caron.uc" xMin="0" yMin="1530" xMax="662" yMax="1790">
      <contour>
        <pt x="438" y="1530" on="1"/>
        <pt x="234" y="1530" on="1"/>
        <pt x="0" y="1769" on="1"/>
        <pt x="0" y="1790" on="1"/>
        <pt x="104" y="1790" on="1"/>
        <pt x="336" y="1651" on="1"/>
        <pt x="338" y="1651" on="1"/>
        <pt x="557" y="1790" on="1"/>
        <pt x="662" y="1790" on="1"/>
        <pt x="662" y="1769" on="1"/>
      </contour>
    </TTGlyph>
    <TTGlyph name="caroncommaaccent" xMin="124" yMin="1052" xMax="325" yMax="1409">
      <contour>
        <pt x="325" y="1303" on="1"/>
        <pt x="325" y="1216" on="0"/>
        <pt x="281" y="1099" on="0"/>
        <pt x="241" y="1052" on="1"/>
        <pt x="124" y="1052" on="1"/>
        <pt x="218" y="1152" on="0"/>
        <pt x="218" y="1242" on="1"/>
        <pt x="130" y="1242" on="1"/>
        <pt x="130" y="1409" on="1"/>
        <pt x="325" y="1409" on="1"/>
      </contour>
    </TTGlyph>
    <TTGlyph name="ccaron" xMin="87" yMin="-20" xMax="970" yMax="1491">
      <component glyphName="c" x="0" y="0" flags="0x204"/>
      <component glyphName="caron" x="214" y="0" flags="0x4"/>
    </TTGlyph>
    <TTGlyph name="ccedilla" xMin="87" yMin="-434" xMax="970" yMax="1102">
      <component glyphName="c" x="0" y="0" flags="0x204"/>
      <component glyphName="cedilla" x="268" y="0" flags="0x4"/>
    </TTGlyph>
    <TTGlyph name="ccircumflex" xMin="87" yMin="-20" xMax="970" yMax="1491">
      <component glyphName="c" x="0" y="0" flags="0x204"/>
      <component glyphName="circumflex" x="208" y="0" flags="0x4"/>
    </TTGlyph>
    <TTGlyph name="cdotaccent" xMin="87" yMin="-20" xMax="970" yMax="1484">
      <component glyphName="c" x="0" y="0" flags="0x204"/>
      <component glyphName="dotaccent" x="300" y="0" flags="0x4"/>
    </TTGlyph>
    <TTGlyph name="cedilla" xMin="119" yMin="-434" xMax="483" yMax="0">
      <contour>
        <pt x="483" y="-253" on="1"/>
        <pt x="483" y="-434" on="0"/>
        <pt x="209" y="-434" on="1"/>
        <pt x="152" y="-434" on="0"/>
        <pt x="119" y="-430" on="1"/>
        <pt x="119" y="-332" on="1"/>
        <pt x="168" y="-338" on="0"/>
        <pt x="205" y="-338" on="1"/>
        <pt x="352" y="-338" on="0"/>
        <pt x="352" y="-257" on="1"/>
        <pt x="352" y="-180" on="0"/>
        <pt x="219" y="-180" on="1"/>
        <pt x="176" y="-180" on="0"/>
        <pt x="162" y="-182" on="1"/>
        <pt x="227" y="0" on="1"/>
        <pt x="334" y="0" on="1"/>
        <pt x="295" y="-100" on="1"/>
        <pt x="389" y="-103" on="0"/>
        <pt x="483" y="-184" on="0"/>
      </contour>
    </TTGlyph>
    <TTGlyph name="cent" xMin="135" yMin="-31" xMax="1018" yMax="1409">
      <contour>
        <pt x="596" y="277" on="1"/>
        <pt x="692" y="277" on="0"/>
        <pt x="821" y="381" on="0"/>
        <pt x="836" y="489" on="1"/>
        <pt x="1018" y="477" on="1"/>
        <pt x="999" y="333" on="0"/>
        <pt x="809" y="151" on="0"/>
        <pt x="662" y="137" on="1"/>
        <pt x="662" y="-31" on="1"/>
        <pt x="538" y="-31" on="1"/>
        <pt x="538" y="137" on="1"/>
        <pt x="339" y="155" on="0"/>
        <pt x="135" y="440" on="0"/>
        <pt x="135" y="697" on="1"/>
        <pt x="135" y="950" on="0"/>
        <pt x="339" y="1237" on="0"/>
        <pt x="538" y="1254" on="1"/>
        <pt x="538" y="1409" on="1"/>
        <pt x="662" y="1409" on="1"/>
        <pt x="662" y="1254" on="1"/>
        <pt x="805" y="1239" on="0"/>
        <pt x="985" y="1073" on="0"/>
        <pt x="1012" y="934" on="1"/>
        <pt x="827" y="920" on="1"/>
        <pt x="813" y="1010" on="0"/>
        <pt x="699" y="1116" on="0"/>
        <pt x="594" y="1116" on="1"/>
        <pt x="451" y="1116" on="0"/>
        <pt x="323" y="926" on="0"/>
        <pt x="323" y="701" on="1"/>
        <pt x="323" y="485" on="0"/>
        <pt x="459" y="277" on="0"/>
      </contour>
    </TTGlyph>
    <TTGlyph name="chi" xMin="21" yMin="-424" xMax="1051" yMax="1104">
      <contour>
        <pt x="542" y="239" on="1"/>
        <pt x="209" y="-424" on="1"/>
        <pt x="21" y="-424" on="1"/>
        <pt x="461" y="401" on="1"/>
        <pt x="291" y="744" on="1"/>
        <pt x="218" y="889" on="0"/>
        <pt x="151" y="963" on="0"/>
        <pt x="113" y="963" on="1"/>
        <pt x="86" y="963" on="0"/>
        <pt x="63" y="953" on="1"/>
        <pt x="29" y="1084" on="1"/>
        <pt x="82" y="1104" on="0"/>
        <pt x="147" y="1104" on="1"/>
        <pt x="233" y="1104" on="0"/>
        <pt x="340" y="1004" on="0"/>
        <pt x="420" y="838" on="1"/>
        <pt x="562" y="543" on="1"/>
        <pt x="826" y="1082" on="1"/>
        <pt x="1013" y="1082" on="1"/>
        <pt x="645" y="385" on="1"/>
        <pt x="1051" y="-424" on="1"/>
        <pt x="861" y="-424" on="1"/>
      </contour>
    </TTGlyph>
    <TTGlyph name="circle" xMin="167" yMin="162" xMax="1070" yMax="1065">
      <contour>
        <pt x="167" y="612" on="1"/>
        <pt x="167" y="734" on="0"/>
        <pt x="287" y="944" on="0"/>
        <pt x="496" y="1065" on="0"/>
        <pt x="617" y="1065" on="1"/>
        <pt x="739" y="1065" on="0"/>
        <pt x="949" y="944" on="0"/>
        <pt x="1070" y="733" on="0"/>
        <pt x="1070" y="612" on="1"/>
        <pt x="1070" y="491" on="0"/>
        <pt x="949" y="282" on="0"/>
        <pt x="740" y="162" on="0"/>
        <pt x="617" y="162" on="1"/>
        <pt x="495" y="162" on="0"/>
        <pt x="287" y="282" on="0"/>
        <pt x="167" y="490" on="0"/>
      </contour>
      <contour>
        <pt x="253" y="612" on="1"/>
        <pt x="253" y="514" on="0"/>
        <pt x="351" y="345" on="0"/>
        <pt x="518" y="248" on="0"/>
        <pt x="617" y="248" on="1"/>
        <pt x="715" y="248" on="0"/>
        <pt x="884" y="344" on="0"/>
        <pt x="984" y="514" on="0"/>
        <pt x="984" y="612" on="1"/>
        <pt x="984" y="710" on="0"/>
        <pt x="886" y="881" on="0"/>
        <pt x="715" y="979" on="0"/>
        <pt x="617" y="979" on="1"/>
        <pt x="520" y="979" on="0"/>
        <pt x="351" y="881" on="0"/>
        <pt x="253" y="712" on="0"/>
      </contour>
    </TTGlyph>
    <TTGlyph name="circumflex" xMin="0" yMin="1201" xMax="662" yMax="1491">
      <contour>
        <pt x="662" y="1221" on="1"/>
        <pt x="662" y="1201" on="1"/>
        <pt x="557" y="1201" on="1"/>
        <pt x="338" y="1370" on="1"/>
        <pt x="336" y="1370" on="1"/>
        <pt x="104" y="1201" on="1"/>
        <pt x="0" y="1201" on="1"/>
        <pt x="0" y="1221" on="1"/>
        <pt x="234" y="1491" on="1"/>
        <pt x="438" y="1491" on="1"/>
      </contour>
    </TTGlyph>
    <TTGlyph name="circumflex.alt1" xMin="0" yMin="1201" xMax="662" yMax="1491">
      <component glyphName="circumflex" x="0" y="0" flags="0x4"/>
    </TTGlyph>
    <TTGlyph name="circumflex.uc" xMin="0" yMin="1530" xMax="662" yMax="1790">
      <contour>
        <pt x="662" y="1550" on="1"/>
        <pt x="662" y="1530" on="1"/>
        <pt x="557" y="1530" on="1"/>
        <pt x="338" y="1669" on="1"/>
        <pt x="336" y="1669" on="1"/>
        <pt x="104" y="1530" on="1"/>
        <pt x="0" y="1530" on="1"/>
        <pt x="0" y="1550" on="1"/>
        <pt x="234" y="1790" on="1"/>
        <pt x="438" y="1790" on="1"/>
      </contour>
    </TTGlyph>
    <TTGlyph name="circumflexacute" xMin="-329" yMin="1462" xMax="529" yMax="1835">
      <contour>
        <pt x="312" y="1835" on="1"/>
        <pt x="529" y="1835" on="1"/>
        <pt x="529" y="1823" on="1"/>
        <pt x="303" y="1647" on="1"/>
        <pt x="207" y="1647" on="1"/>
        <pt x="207" y="1657" on="1"/>
      </contour>
      <contour>
        <pt x="323" y="1482" on="1"/>
        <pt x="323" y="1462" on="1"/>
        <pt x="218" y="1462" on="1"/>
        <pt x="-1" y="1631" on="1"/>
        <pt x="-3" y="1631" on="1"/>
        <pt x="-225" y="1462" on="1"/>
        <pt x="-329" y="1462" on="1"/>
        <pt x="-329" y="1482" on="1"/>
        <pt x="-105" y="1752" on="1"/>
        <pt x="99" y="1752" on="1"/>
      </contour>
    </TTGlyph>
    <TTGlyph name="circumflexacute.lc" xMin="-329" yMin="1201" xMax="529" yMax="1574">
      <contour>
        <pt x="312" y="1574" on="1"/>
        <pt x="529" y="1574" on="1"/>
        <pt x="529" y="1562" on="1"/>
        <pt x="303" y="1386" on="1"/>
        <pt x="207" y="1386" on="1"/>
        <pt x="207" y="1396" on="1"/>
      </contour>
      <contour>
        <pt x="323" y="1221" on="1"/>
        <pt x="323" y="1201" on="1"/>
        <pt x="218" y="1201" on="1"/>
        <pt x="-1" y="1370" on="1"/>
        <pt x="-3" y="1370" on="1"/>
        <pt x="-225" y="1201" on="1"/>
        <pt x="-329" y="1201" on="1"/>
        <pt x="-329" y="1221" on="1"/>
        <pt x="-105" y="1491" on="1"/>
        <pt x="99" y="1491" on="1"/>
      </contour>
    </TTGlyph>
    <TTGlyph name="circumflexgrave" xMin="-532" yMin="1462" xMax="323" yMax="1835">
      <contour>
        <pt x="-210" y="1657" on="1"/>
        <pt x="-210" y="1647" on="1"/>
        <pt x="-306" y="1647" on="1"/>
        <pt x="-532" y="1823" on="1"/>
        <pt x="-532" y="1835" on="1"/>
        <pt x="-315" y="1835" on="1"/>
      </contour>
      <contour>
        <pt x="323" y="1482" on="1"/>
        <pt x="323" y="1462" on="1"/>
        <pt x="218" y="1462" on="1"/>
        <pt x="-1" y="1631" on="1"/>
        <pt x="-3" y="1631" on="1"/>
        <pt x="-225" y="1462" on="1"/>
        <pt x="-329" y="1462" on="1"/>
        <pt x="-329" y="1482" on="1"/>
        <pt x="-105" y="1752" on="1"/>
        <pt x="99" y="1752" on="1"/>
      </contour>
    </TTGlyph>
    <TTGlyph name="circumflexgrave.lc" xMin="-532" yMin="1201" xMax="326" yMax="1574">
      <contour>
        <pt x="-210" y="1396" on="1"/>
        <pt x="-210" y="1386" on="1"/>
        <pt x="-306" y="1386" on="1"/>
        <pt x="-532" y="1562" on="1"/>
        <pt x="-532" y="1574" on="1"/>
        <pt x="-315" y="1574" on="1"/>
      </contour>
      <contour>
        <pt x="-102" y="1491" on="1"/>
        <pt x="102" y="1491" on="1"/>
        <pt x="326" y="1221" on="1"/>
        <pt x="326" y="1201" on="1"/>
        <pt x="222" y="1201" on="1"/>
        <pt x="0" y="1370" on="1"/>
        <pt x="-2" y="1370" on="1"/>
        <pt x="-221" y="1201" on="1"/>
        <pt x="-326" y="1201" on="1"/>
        <pt x="-326" y="1221" on="1"/>
      </contour>
    </TTGlyph>
    <TTGlyph name="circumflexhook" xMin="-329" yMin="1462" xMax="447" yMax="1835">
      <contour>
        <pt x="340" y="1732" on="1"/>
        <pt x="340" y="1767" on="0"/>
        <pt x="281" y="1767" on="1"/>
        <pt x="230" y="1767" on="0"/>
        <pt x="190" y="1751" on="1"/>
        <pt x="170" y="1815" on="1"/>
        <pt x="228" y="1835" on="0"/>
        <pt x="295" y="1835" on="1"/>
        <pt x="447" y="1835" on="0"/>
        <pt x="447" y="1739" on="1"/>
        <pt x="447" y="1695" on="0"/>
        <pt x="380" y="1639" on="0"/>
        <pt x="326" y="1639" on="1"/>
        <pt x="326" y="1616" on="1"/>
        <pt x="265" y="1616" on="1"/>
        <pt x="265" y="1694" on="1"/>
        <pt x="340" y="1694" on="0"/>
      </contour>
      <contour>
        <pt x="323" y="1482" on="1"/>
        <pt x="323" y="1462" on="1"/>
        <pt x="218" y="1462" on="1"/>
        <pt x="-1" y="1631" on="1"/>
        <pt x="-3" y="1631" on="1"/>
        <pt x="-225" y="1462" on="1"/>
        <pt x="-329" y="1462" on="1"/>
        <pt x="-329" y="1482" on="1"/>
        <pt x="-105" y="1752" on="1"/>
        <pt x="99" y="1752" on="1"/>
      </contour>
    </TTGlyph>
    <TTGlyph name="circumflexhook.lc" xMin="-329" yMin="1201" xMax="480" yMax="1653">
      <contour>
        <pt x="345" y="1524" on="1"/>
        <pt x="345" y="1568" on="0"/>
        <pt x="269" y="1568" on="1"/>
        <pt x="208" y="1568" on="0"/>
        <pt x="155" y="1549" on="1"/>
        <pt x="129" y="1629" on="1"/>
        <pt x="199" y="1653" on="0"/>
        <pt x="288" y="1653" on="1"/>
        <pt x="480" y="1653" on="0"/>
        <pt x="480" y="1541" on="1"/>
        <pt x="480" y="1493" on="0"/>
        <pt x="414" y="1424" on="0"/>
        <pt x="341" y="1415" on="1"/>
        <pt x="341" y="1377" on="1"/>
        <pt x="250" y="1377" on="1"/>
        <pt x="250" y="1471" on="1"/>
        <pt x="292" y="1473" on="0"/>
        <pt x="345" y="1491" on="0"/>
      </contour>
      <contour>
        <pt x="323" y="1221" on="1"/>
        <pt x="323" y="1201" on="1"/>
        <pt x="218" y="1201" on="1"/>
        <pt x="-1" y="1370" on="1"/>
        <pt x="-3" y="1370" on="1"/>
        <pt x="-225" y="1201" on="1"/>
        <pt x="-329" y="1201" on="1"/>
        <pt x="-329" y="1221" on="1"/>
        <pt x="-105" y="1491" on="1"/>
        <pt x="99" y="1491" on="1"/>
      </contour>
    </TTGlyph>
    <TTGlyph name="circumflextilde" xMin="-318" yMin="1462" xMax="319" yMax="1835">
      <contour>
        <pt x="127" y="1641" on="1"/>
        <pt x="76" y="1641" on="0"/>
        <pt x="-8" y="1679" on="1"/>
        <pt x="-93" y="1716" on="0"/>
        <pt x="-129" y="1716" on="1"/>
        <pt x="-174" y="1716" on="0"/>
        <pt x="-219" y="1681" on="0"/>
        <pt x="-227" y="1641" on="1"/>
        <pt x="-318" y="1641" on="1"/>
        <pt x="-307" y="1723" on="0"/>
        <pt x="-264" y="1795" on="0"/>
        <pt x="-188" y="1835" on="0"/>
        <pt x="-125" y="1835" on="1"/>
        <pt x="-70" y="1835" on="0"/>
        <pt x="13" y="1798" on="1"/>
        <pt x="96" y="1760" on="0"/>
        <pt x="130" y="1760" on="1"/>
        <pt x="178" y="1760" on="0"/>
        <pt x="221" y="1798" on="0"/>
        <pt x="227" y="1835" on="1"/>
        <pt x="319" y="1835" on="1"/>
        <pt x="307" y="1754" on="0"/>
        <pt x="265" y="1680" on="0"/>
        <pt x="190" y="1641" on="0"/>
      </contour>
      <contour>
        <pt x="1" y="1529" on="1"/>
        <pt x="-150" y="1462" on="1"/>
        <pt x="-305" y="1462" on="1"/>
        <pt x="-305" y="1474" on="1"/>
        <pt x="-96" y="1615" on="1"/>
        <pt x="99" y="1615" on="1"/>
        <pt x="307" y="1472" on="1"/>
        <pt x="307" y="1462" on="1"/>
        <pt x="152" y="1462" on="1"/>
      </contour>
    </TTGlyph>
    <TTGlyph name="circumflextilde.lc" xMin="-331" yMin="1201" xMax="326" yMax="1775">
      <contour>
        <pt x="-102" y="1491" on="1"/>
        <pt x="102" y="1491" on="1"/>
        <pt x="326" y="1221" on="1"/>
        <pt x="326" y="1201" on="1"/>
        <pt x="222" y="1201" on="1"/>
        <pt x="0" y="1370" on="1"/>
        <pt x="-2" y="1370" on="1"/>
        <pt x="-221" y="1201" on="1"/>
        <pt x="-326" y="1201" on="1"/>
        <pt x="-326" y="1221" on="1"/>
      </contour>
      <contour>
        <pt x="114" y="1581" on="1"/>
        <pt x="63" y="1581" on="0"/>
        <pt x="-21" y="1619" on="1"/>
        <pt x="-106" y="1656" on="0"/>
        <pt x="-142" y="1656" on="1"/>
        <pt x="-187" y="1656" on="0"/>
        <pt x="-232" y="1621" on="0"/>
        <pt x="-240" y="1581" on="1"/>
        <pt x="-331" y="1581" on="1"/>
        <pt x="-320" y="1663" on="0"/>
        <pt x="-277" y="1735" on="0"/>
        <pt x="-201" y="1775" on="0"/>
        <pt x="-138" y="1775" on="1"/>
        <pt x="-83" y="1775" on="0"/>
        <pt x="0" y="1738" on="1"/>
        <pt x="83" y="1700" on="0"/>
        <pt x="117" y="1700" on="1"/>
        <pt x="165" y="1700" on="0"/>
        <pt x="208" y="1738" on="0"/>
        <pt x="214" y="1775" on="1"/>
        <pt x="306" y="1775" on="1"/>
        <pt x="294" y="1694" on="0"/>
        <pt x="252" y="1620" on="0"/>
        <pt x="177" y="1581" on="0"/>
      </contour>
    </TTGlyph>
    <TTGlyph name="club" xMin="60" yMin="0" xMax="1284" yMax="1223">
      <contour>
        <pt x="1094" y="0" on="1"/>
        <pt x="252" y="0" on="1"/>
        <pt x="260" y="35" on="1"/>
        <pt x="395" y="62" on="0"/>
        <pt x="514" y="116" on="0"/>
        <pt x="609" y="236" on="0"/>
        <pt x="662" y="385" on="0"/>
        <pt x="662" y="461" on="1"/>
        <pt x="660" y="508" on="1"/>
        <pt x="603" y="388" on="0"/>
        <pt x="425" y="270" on="0"/>
        <pt x="336" y="270" on="1"/>
        <pt x="259" y="270" on="0"/>
        <pt x="130" y="346" on="0"/>
        <pt x="60" y="472" on="0"/>
        <pt x="60" y="549" on="1"/>
        <pt x="60" y="664" on="0"/>
        <pt x="206" y="822" on="0"/>
        <pt x="299" y="823" on="1"/>
        <pt x="361" y="823" on="0"/>
        <pt x="461" y="772" on="1"/>
        <pt x="423" y="837" on="0"/>
        <pt x="406" y="877" on="1"/>
        <pt x="395" y="914" on="0"/>
        <pt x="395" y="952" on="1"/>
        <pt x="395" y="1073" on="0"/>
        <pt x="557" y="1223" on="0"/>
        <pt x="670" y="1223" on="1"/>
        <pt x="786" y="1223" on="0"/>
        <pt x="946" y="1063" on="0"/>
        <pt x="946" y="956" on="1"/>
        <pt x="946" y="870" on="0"/>
        <pt x="877" y="772" on="1"/>
        <pt x="961" y="812" on="0"/>
        <pt x="977" y="815" on="1"/>
        <pt x="999" y="823" on="0"/>
        <pt x="1038" y="823" on="1"/>
        <pt x="1143" y="823" on="0"/>
        <pt x="1211" y="745" on="1"/>
        <pt x="1284" y="669" on="0"/>
        <pt x="1284" y="553" on="1"/>
        <pt x="1284" y="437" on="0"/>
        <pt x="1128" y="272" on="0"/>
        <pt x="1012" y="272" on="1"/>
        <pt x="956" y="272" on="0"/>
        <pt x="838" y="321" on="0"/>
        <pt x="743" y="403" on="0"/>
        <pt x="682" y="508" on="1"/>
        <pt x="687" y="382" on="0"/>
        <pt x="736" y="229" on="0"/>
        <pt x="845" y="109" on="0"/>
        <pt x="972" y="56" on="0"/>
        <pt x="1086" y="35" on="1"/>
      </contour>
    </TTGlyph>
    <TTGlyph name="colon" xMin="187" yMin="0" xMax="382" yMax="1082">
      <contour>
        <pt x="187" y="875" on="1"/>
        <pt x="187" y="1082" on="1"/>
        <pt x="382" y="1082" on="1"/>
        <pt x="382" y="875" on="1"/>
      </contour>
      <contour>
        <pt x="187" y="0" on="1"/>
        <pt x="187" y="207" on="1"/>
        <pt x="382" y="207" on="1"/>
        <pt x="382" y="0" on="1"/>
      </contour>
    </TTGlyph>
    <TTGlyph name="comma" xMin="184" yMin="-262" xMax="385" yMax="219">
      <contour>
        <pt x="385" y="219" on="1"/>
        <pt x="385" y="51" on="1"/>
        <pt x="385" y="-55" on="0"/>
        <pt x="347" y="-197" on="0"/>
        <pt x="307" y="-262" on="1"/>
        <pt x="184" y="-262" on="1"/>
        <pt x="278" y="-126" on="0"/>
        <pt x="278" y="0" on="1"/>
        <pt x="190" y="0" on="1"/>
        <pt x="190" y="219" on="1"/>
      </contour>
    </TTGlyph>
    <TTGlyph name="commaaccent" xMin="127" yMin="-434" xMax="328" yMax="-98">
      <contour>
        <pt x="328" y="-193" on="1"/>
        <pt x="328" y="-280" on="0"/>
        <pt x="284" y="-387" on="0"/>
        <pt x="244" y="-434" on="1"/>
        <pt x="127" y="-434" on="1"/>
        <pt x="172" y="-386" on="0"/>
        <pt x="221" y="-300" on="0"/>
        <pt x="221" y="-254" on="1"/>
        <pt x="133" y="-254" on="1"/>
        <pt x="133" y="-98" on="1"/>
        <pt x="328" y="-98" on="1"/>
      </contour>
    </TTGlyph>
    <TTGlyph name="commaaccentrotate" xMin="130" yMin="1211" xMax="331" yMax="1568">
      <contour>
        <pt x="130" y="1317" on="1"/>
        <pt x="130" y="1404" on="0"/>
        <pt x="174" y="1521" on="0"/>
        <pt x="214" y="1568" on="1"/>
        <pt x="331" y="1568" on="1"/>
        <pt x="237" y="1468" on="0"/>
        <pt x="237" y="1378" on="1"/>
        <pt x="325" y="1378" on="1"/>
        <pt x="325" y="1211" on="1"/>
        <pt x="130" y="1211" on="1"/>
      </contour>
    </TTGlyph>
    <TTGlyph name="copyright" xMin="31" yMin="-16" xMax="1477" yMax="1430">
      <contour>
        <pt x="1477" y="707" on="1"/>
        <pt x="1477" y="514" on="0"/>
        <pt x="1284" y="177" on="0"/>
        <pt x="947" y="-16" on="0"/>
        <pt x="754" y="-16" on="1"/>
        <pt x="557" y="-16" on="0"/>
        <pt x="218" y="185" on="0"/>
        <pt x="31" y="518" on="0"/>
        <pt x="31" y="707" on="1"/>
        <pt x="31" y="900" on="0"/>
        <pt x="225" y="1236" on="0"/>
        <pt x="561" y="1430" on="0"/>
        <pt x="754" y="1430" on="1"/>
        <pt x="948" y="1430" on="0"/>
        <pt x="1285" y="1235" on="0"/>
        <pt x="1477" y="901" on="0"/>
      </contour>
      <contour>
        <pt x="1385" y="707" on="1"/>
        <pt x="1385" y="876" on="0"/>
        <pt x="1217" y="1165" on="0"/>
        <pt x="924" y="1335" on="0"/>
        <pt x="754" y="1335" on="1"/>
        <pt x="586" y="1335" on="0"/>
        <pt x="294" y="1166" on="0"/>
        <pt x="126" y="874" on="0"/>
        <pt x="126" y="707" on="1"/>
        <pt x="126" y="538" on="0"/>
        <pt x="295" y="246" on="0"/>
        <pt x="585" y="78" on="0"/>
        <pt x="754" y="78" on="1"/>
        <pt x="923" y="78" on="0"/>
        <pt x="1217" y="246" on="0"/>
        <pt x="1385" y="538" on="0"/>
      </contour>
      <contour>
        <pt x="498" y="709" on="1"/>
        <pt x="498" y="554" on="0"/>
        <pt x="640" y="383" on="0"/>
        <pt x="765" y="383" on="1"/>
        <pt x="923" y="383" on="0"/>
        <pt x="998" y="539" on="1"/>
        <pt x="1113" y="504" on="1"/>
        <pt x="1051" y="383" on="0"/>
        <pt x="882" y="279" on="0"/>
        <pt x="765" y="279" on="1"/>
        <pt x="577" y="279" on="0"/>
        <pt x="369" y="505" on="0"/>
        <pt x="369" y="709" on="1"/>
        <pt x="369" y="912" on="0"/>
        <pt x="569" y="1133" on="0"/>
        <pt x="758" y="1133" on="1"/>
        <pt x="1002" y="1133" on="0"/>
        <pt x="1098" y="924" on="1"/>
        <pt x="984" y="891" on="1"/>
        <pt x="952" y="960" on="0"/>
        <pt x="836" y="1028" on="0"/>
        <pt x="760" y="1028" on="1"/>
        <pt x="633" y="1028" on="0"/>
        <pt x="498" y="867" on="0"/>
      </contour>
    </TTGlyph>
    <TTGlyph name="currency" xMin="113" yMin="225" xMax="1026" yMax="1139">
      <contour>
        <pt x="137" y="684" on="1"/>
        <pt x="137" y="822" on="0"/>
        <pt x="215" y="936" on="1"/>
        <pt x="115" y="1036" on="1"/>
        <pt x="219" y="1139" on="1"/>
        <pt x="318" y="1038" on="1"/>
        <pt x="432" y="1120" on="0"/>
        <pt x="572" y="1120" on="1"/>
        <pt x="709" y="1120" on="0"/>
        <pt x="823" y="1040" on="1"/>
        <pt x="920" y="1137" on="1"/>
        <pt x="1024" y="1032" on="1"/>
        <pt x="928" y="936" on="1"/>
        <pt x="1008" y="819" on="0"/>
        <pt x="1008" y="684" on="1"/>
        <pt x="1008" y="546" on="0"/>
        <pt x="926" y="432" on="1"/>
        <pt x="1026" y="332" on="1"/>
        <pt x="924" y="227" on="1"/>
        <pt x="823" y="328" on="1"/>
        <pt x="709" y="250" on="0"/>
        <pt x="572" y="250" on="1"/>
        <pt x="429" y="250" on="0"/>
        <pt x="320" y="330" on="1"/>
        <pt x="215" y="225" on="1"/>
        <pt x="113" y="330" on="1"/>
        <pt x="215" y="432" on="1"/>
        <pt x="137" y="546" on="0"/>
      </contour>
      <contour>
        <pt x="291" y="686" on="1"/>
        <pt x="291" y="569" on="0"/>
        <pt x="457" y="406" on="0"/>
        <pt x="572" y="406" on="1"/>
        <pt x="686" y="406" on="0"/>
        <pt x="852" y="568" on="0"/>
        <pt x="852" y="686" on="1"/>
        <pt x="852" y="803" on="0"/>
        <pt x="685" y="967" on="0"/>
        <pt x="572" y="967" on="1"/>
        <pt x="459" y="967" on="0"/>
        <pt x="291" y="804" on="0"/>
      </contour>
    </TTGlyph>
    <TTGlyph name="cyrillic_otmark" xMin="-457" yMin="1214" xMax="457" yMax="1409">
      <contour>
        <pt x="457" y="1409" on="1"/>
        <pt x="367" y="1214" on="1"/>
        <pt x="327" y="1214" on="1"/>
        <pt x="280" y="1315" on="1"/>
        <pt x="67" y="1315" on="1"/>
        <pt x="20" y="1214" on="1"/>
        <pt x="-20" y="1214" on="1"/>
        <pt x="-67" y="1315" on="1"/>
        <pt x="-280" y="1315" on="1"/>
        <pt x="-327" y="1214" on="1"/>
        <pt x="-367" y="1214" on="1"/>
        <pt x="-457" y="1409" on="1"/>
      </contour>
    </TTGlyph>
    <TTGlyph name="d" xMin="86" yMin="-20" xMax="1007" yMax="1484">
      <contour>
        <pt x="821" y="174" on="1"/>
        <pt x="771" y="70" on="0"/>
        <pt x="606" y="-20" on="0"/>
        <pt x="484" y="-20" on="1"/>
        <pt x="279" y="-20" on="0"/>
        <pt x="86" y="256" on="0"/>
        <pt x="86" y="536" on="1"/>
        <pt x="86" y="1102" on="0"/>
        <pt x="484" y="1102" on="1"/>
        <pt x="607" y="1102" on="0"/>
        <pt x="771" y="1012" on="0"/>
        <pt x="821" y="914" on="1"/>
        <pt x="823" y="914" on="1"/>
        <pt x="821" y="1035" on="1"/>
        <pt x="821" y="1484" on="1"/>
        <pt x="1001" y="1484" on="1"/>
        <pt x="1001" y="223" on="1"/>
        <pt x="1001" y="54" on="0"/>
        <pt x="1007" y="0" on="1"/>
        <pt x="835" y="0" on="1"/>
        <pt x="832" y="16" on="0"/>
        <pt x="825" y="132" on="0"/>
        <pt x="825" y="174" on="1"/>
      </contour>
      <contour>
        <pt x="275" y="542" on="1"/>
        <pt x="275" y="315" on="0"/>
        <pt x="395" y="119" on="0"/>
        <pt x="530" y="119" on="1"/>
        <pt x="683" y="119" on="0"/>
        <pt x="821" y="331" on="0"/>
        <pt x="821" y="554" on="1"/>
        <pt x="821" y="769" on="0"/>
        <pt x="683" y="969" on="0"/>
        <pt x="532" y="969" on="1"/>
        <pt x="396" y="969" on="0"/>
        <pt x="275" y="768" on="0"/>
      </contour>
    </TTGlyph>
    <TTGlyph name="dagesh" xMin="-80" yMin="625" xMax="80" yMax="782">
      <contour>
        <pt x="-80" y="702" on="1"/>
        <pt x="-80" y="737" on="0"/>
        <pt x="-32" y="782" on="0"/>
        <pt x="0" y="782" on="1"/>
        <pt x="32" y="782" on="0"/>
        <pt x="80" y="737" on="0"/>
        <pt x="80" y="702" on="1"/>
        <pt x="80" y="670" on="0"/>
        <pt x="32" y="625" on="0"/>
        <pt x="0" y="625" on="1"/>
        <pt x="-32" y="625" on="0"/>
        <pt x="-80" y="670" on="0"/>
      </contour>
    </TTGlyph>
    <TTGlyph name="dagger" xMin="138" yMin="-138" xMax="1002" yMax="1484">
      <contour>
        <pt x="649" y="1000" on="1"/>
        <pt x="627" y="-138" on="1"/>
        <pt x="512" y="-138" on="1"/>
        <pt x="490" y="1000" on="1"/>
        <pt x="138" y="973" on="1"/>
        <pt x="138" y="1137" on="1"/>
        <pt x="490" y="1108" on="1"/>
        <pt x="462" y="1484" on="1"/>
        <pt x="677" y="1484" on="1"/>
        <pt x="649" y="1108" on="1"/>
        <pt x="1002" y="1137" on="1"/>
        <pt x="1002" y="973" on="1"/>
      </contour>
    </TTGlyph>
    <TTGlyph name="daggerdbl" xMin="136" yMin="-141" xMax="1001" yMax="1484">
      <contour>
        <pt x="497" y="1000" on="1"/>
        <pt x="137" y="973" on="1"/>
        <pt x="137" y="1137" on="1"/>
        <pt x="497" y="1108" on="1"/>
        <pt x="481" y="1484" on="1"/>
        <pt x="656" y="1484" on="1"/>
        <pt x="640" y="1108" on="1"/>
        <pt x="1001" y="1137" on="1"/>
        <pt x="1001" y="973" on="1"/>
        <pt x="640" y="1000" on="1"/>
        <pt x="614" y="670" on="1"/>
        <pt x="640" y="343" on="1"/>
        <pt x="1000" y="370" on="1"/>
        <pt x="1000" y="206" on="1"/>
        <pt x="640" y="235" on="1"/>
        <pt x="656" y="-141" on="1"/>
        <pt x="481" y="-141" on="1"/>
        <pt x="497" y="235" on="1"/>
        <pt x="136" y="206" on="1"/>
        <pt x="136" y="370" on="1"/>
        <pt x="497" y="343" on="1"/>
        <pt x="523" y="670" on="1"/>
      </contour>
    </TTGlyph>
    <TTGlyph name="dalet" xMin="41" yMin="0" xMax="1079" yMax="1227">
      <contour>
        <pt x="926" y="0" on="1"/>
        <pt x="741" y="0" on="1"/>
        <pt x="741" y="1057" on="1"/>
        <pt x="41" y="1057" on="1"/>
        <pt x="41" y="1227" on="1"/>
        <pt x="1079" y="1227" on="1"/>
        <pt x="1079" y="1057" on="1"/>
        <pt x="926" y="1057" on="1"/>
      </contour>
    </TTGlyph>
    <TTGlyph name="daletdagesh" xMin="41" yMin="0" xMax="1079" yMax="1227">
      <component glyphName="dalet" x="0" y="0" flags="0x204"/>
      <component glyphName="dagesh" x="383" y="0" flags="0x4"/>
    </TTGlyph>
    <TTGlyph name="daletwide" xMin="41" yMin="0" xMax="1079" yMax="1227">
      <component glyphName="dalet" x="0" y="0" flags="0x204"/>
    </TTGlyph>
    <TTGlyph name="dcaron" xMin="86" yMin="-20" xMax="1279" yMax="1484">
      <component glyphName="d" x="0" y="0" flags="0x4"/>
      <component glyphName="caroncommaaccent" x="954" y="75" flags="0x4"/>
    </TTGlyph>
    <TTGlyph name="dcroat" xMin="86" yMin="-20" xMax="1133" yMax="1484">
      <contour>
        <pt x="821" y="174" on="1"/>
        <pt x="771" y="70" on="0"/>
        <pt x="606" y="-20" on="0"/>
        <pt x="484" y="-20" on="1"/>
        <pt x="279" y="-20" on="0"/>
        <pt x="86" y="256" on="0"/>
        <pt x="86" y="536" on="1"/>
        <pt x="86" y="1102" on="0"/>
        <pt x="484" y="1102" on="1"/>
        <pt x="607" y="1102" on="0"/>
        <pt x="771" y="1012" on="0"/>
        <pt x="821" y="914" on="1"/>
        <pt x="823" y="914" on="1"/>
        <pt x="821" y="1035" on="1"/>
        <pt x="821" y="1206" on="1"/>
        <pt x="521" y="1206" on="1"/>
        <pt x="521" y="1337" on="1"/>
        <pt x="821" y="1337" on="1"/>
        <pt x="821" y="1484" on="1"/>
        <pt x="1001" y="1484" on="1"/>
        <pt x="1001" y="1337" on="1"/>
        <pt x="1133" y="1337" on="1"/>
        <pt x="1133" y="1206" on="1"/>
        <pt x="1001" y="1206" on="1"/>
        <pt x="1001" y="223" on="1"/>
        <pt x="1001" y="54" on="0"/>
        <pt x="1007" y="0" on="1"/>
        <pt x="835" y="0" on="1"/>
        <pt x="832" y="16" on="0"/>
        <pt x="825" y="132" on="0"/>
        <pt x="825" y="174" on="1"/>
      </contour>
      <contour>
        <pt x="275" y="542" on="1"/>
        <pt x="275" y="315" on="0"/>
        <pt x="395" y="119" on="0"/>
        <pt x="530" y="119" on="1"/>
        <pt x="683" y="119" on="0"/>
        <pt x="821" y="331" on="0"/>
        <pt x="821" y="554" on="1"/>
        <pt x="821" y="769" on="0"/>
        <pt x="683" y="969" on="0"/>
        <pt x="532" y="969" on="1"/>
        <pt x="396" y="969" on="0"/>
        <pt x="275" y="768" on="0"/>
      </contour>
    </TTGlyph>
    <TTGlyph name="degree" xMin="122" yMin="860" xMax="696" yMax="1430">
      <contour>
        <pt x="696" y="1145" on="1"/>
        <pt x="696" y="1026" on="0"/>
        <pt x="527" y="860" on="0"/>
        <pt x="409" y="860" on="1"/>
        <pt x="291" y="860" on="0"/>
        <pt x="122" y="1028" on="0"/>
        <pt x="122" y="1145" on="1"/>
        <pt x="122" y="1262" on="0"/>
        <pt x="289" y="1430" on="0"/>
        <pt x="409" y="1430" on="1"/>
        <pt x="529" y="1430" on="0"/>
        <pt x="696" y="1264" on="0"/>
      </contour>
      <contour>
        <pt x="587" y="1145" on="1"/>
        <pt x="587" y="1221" on="0"/>
        <pt x="484" y="1325" on="0"/>
        <pt x="409" y="1325" on="1"/>
        <pt x="334" y="1325" on="0"/>
        <pt x="231" y="1219" on="0"/>
        <pt x="231" y="1145" on="1"/>
        <pt x="231" y="1071" on="0"/>
        <pt x="336" y="965" on="0"/>
        <pt x="409" y="965" on="1"/>
        <pt x="483" y="965" on="0"/>
        <pt x="587" y="1070" on="0"/>
      </contour>
    </TTGlyph>
    <TTGlyph name="delta" xMin="86" yMin="-20" xMax="1053" yMax="1484">
      <contour>
        <pt x="864" y="471" on="1"/>
        <pt x="864" y="558" on="0"/>
        <pt x="811" y="711" on="0"/>
        <pt x="728" y="842" on="0"/>
        <pt x="644" y="929" on="1"/>
        <pt x="465" y="865" on="0"/>
        <pt x="275" y="627" on="0"/>
        <pt x="275" y="471" on="1"/>
        <pt x="275" y="302" on="0"/>
        <pt x="432" y="113" on="0"/>
        <pt x="571" y="113" on="1"/>
        <pt x="715" y="113" on="0"/>
        <pt x="864" y="293" on="0"/>
      </contour>
      <contour>
        <pt x="607" y="1352" on="1"/>
        <pt x="453" y="1360" on="1"/>
        <pt x="769" y="1036" on="1"/>
        <pt x="890" y="912" on="0"/>
        <pt x="995" y="753" on="0"/>
        <pt x="1053" y="578" on="0"/>
        <pt x="1053" y="475" on="1"/>
        <pt x="1053" y="248" on="0"/>
        <pt x="795" y="-20" on="0"/>
        <pt x="571" y="-20" on="1"/>
        <pt x="345" y="-20" on="0"/>
        <pt x="86" y="242" on="0"/>
        <pt x="86" y="473" on="1"/>
        <pt x="86" y="667" on="0"/>
        <pt x="320" y="946" on="0"/>
        <pt x="551" y="1026" on="1"/>
        <pt x="232" y="1365" on="1"/>
        <pt x="232" y="1484" on="1"/>
        <pt x="965" y="1484" on="1"/>
        <pt x="965" y="1352" on="1"/>
      </contour>
    </TTGlyph>
    <TTGlyph name="diamond" xMin="66" yMin="-25" xMax="978" yMax="1223">
      <contour>
        <pt x="519" y="1223" on="1"/>
        <pt x="591" y="1098" on="0"/>
        <pt x="856" y="737" on="0"/>
        <pt x="978" y="600" on="1"/>
        <pt x="910" y="530" on="0"/>
        <pt x="604" y="123" on="0"/>
        <pt x="521" y="-25" on="1"/>
        <pt x="484" y="46" on="0"/>
        <pt x="299" y="307" on="0"/>
        <pt x="151" y="498" on="0"/>
        <pt x="66" y="600" on="1"/>
        <pt x="182" y="737" on="0"/>
        <pt x="441" y="1082" on="0"/>
      </contour>
    </TTGlyph>
    <TTGlyph name="dieresis" xMin="45" yMin="1219" xMax="602" yMax="1403">
      <contour>
        <pt x="439" y="1219" on="1"/>
        <pt x="439" y="1403" on="1"/>
        <pt x="602" y="1403" on="1"/>
        <pt x="602" y="1219" on="1"/>
      </contour>
      <contour>
        <pt x="45" y="1219" on="1"/>
        <pt x="45" y="1403" on="1"/>
        <pt x="210" y="1403" on="1"/>
        <pt x="210" y="1219" on="1"/>
      </contour>
    </TTGlyph>
    <TTGlyph name="dieresis.uc" xMin="45" yMin="1530" xMax="602" yMax="1714">
      <contour>
        <pt x="439" y="1530" on="1"/>
        <pt x="439" y="1714" on="1"/>
        <pt x="602" y="1714" on="1"/>
        <pt x="602" y="1530" on="1"/>
      </contour>
      <contour>
        <pt x="45" y="1530" on="1"/>
        <pt x="45" y="1714" on="1"/>
        <pt x="210" y="1714" on="1"/>
        <pt x="210" y="1530" on="1"/>
      </contour>
    </TTGlyph>
    <TTGlyph name="dieresistonos" xMin="29" yMin="1200" xMax="651" yMax="1601">
      <contour>
        <pt x="250" y="1200" on="1"/>
        <pt x="250" y="1233" on="1"/>
        <pt x="319" y="1601" on="1"/>
        <pt x="506" y="1601" on="1"/>
        <pt x="506" y="1564" on="1"/>
        <pt x="325" y="1200" on="1"/>
      </contour>
      <contour>
        <pt x="29" y="1231" on="1"/>
        <pt x="29" y="1403" on="1"/>
        <pt x="179" y="1403" on="1"/>
        <pt x="179" y="1231" on="1"/>
      </contour>
      <contour>
        <pt x="501" y="1231" on="1"/>
        <pt x="501" y="1403" on="1"/>
        <pt x="651" y="1403" on="1"/>
        <pt x="651" y="1231" on="1"/>
      </contour>
    </TTGlyph>
    <TTGlyph name="divide" xMin="65" yMin="223" xMax="1060" yMax="1141">
      <contour>
        <pt x="478" y="958" on="1"/>
        <pt x="478" y="1141" on="1"/>
        <pt x="646" y="1141" on="1"/>
        <pt x="646" y="958" on="1"/>
      </contour>
      <contour>
        <pt x="65" y="608" on="1"/>
        <pt x="65" y="754" on="1"/>
        <pt x="1060" y="754" on="1"/>
        <pt x="1060" y="608" on="1"/>
      </contour>
      <contour>
        <pt x="478" y="223" on="1"/>
        <pt x="478" y="406" on="1"/>
        <pt x="646" y="406" on="1"/>
        <pt x="646" y="223" on="1"/>
      </contour>
    </TTGlyph>
    <TTGlyph name="dkshade" xMin="0" yMin="-621" xMax="1493" yMax="1699">
      <contour>
        <pt x="1493" y="-621" on="1"/>
        <pt x="0" y="-621" on="1"/>
        <pt x="0" y="-331" on="1"/>
        <pt x="106" y="-331" on="1"/>
        <pt x="106" y="-234" on="1"/>
        <pt x="0" y="-234" on="1"/>
        <pt x="0" y="56" on="1"/>
        <pt x="106" y="56" on="1"/>
        <pt x="106" y="153" on="1"/>
        <pt x="0" y="153" on="1"/>
        <pt x="0" y="444" on="1"/>
        <pt x="106" y="444" on="1"/>
        <pt x="106" y="540" on="1"/>
        <pt x="0" y="540" on="1"/>
        <pt x="0" y="829" on="1"/>
        <pt x="106" y="829" on="1"/>
        <pt x="106" y="927" on="1"/>
        <pt x="0" y="927" on="1"/>
        <pt x="0" y="1216" on="1"/>
        <pt x="106" y="1216" on="1"/>
        <pt x="106" y="1314" on="1"/>
        <pt x="0" y="1314" on="1"/>
        <pt x="0" y="1603" on="1"/>
        <pt x="106" y="1603" on="1"/>
        <pt x="106" y="1699" on="1"/>
        <pt x="213" y="1699" on="1"/>
        <pt x="213" y="1603" on="1"/>
        <pt x="319" y="1603" on="1"/>
        <pt x="319" y="1699" on="1"/>
        <pt x="426" y="1699" on="1"/>
        <pt x="426" y="1603" on="1"/>
        <pt x="532" y="1603" on="1"/>
        <pt x="532" y="1699" on="1"/>
        <pt x="639" y="1699" on="1"/>
        <pt x="639" y="1603" on="1"/>
        <pt x="746" y="1603" on="1"/>
        <pt x="746" y="1699" on="1"/>
        <pt x="853" y="1699" on="1"/>
        <pt x="853" y="1603" on="1"/>
        <pt x="960" y="1603" on="1"/>
        <pt x="960" y="1699" on="1"/>
        <pt x="1067" y="1699" on="1"/>
        <pt x="1067" y="1603" on="1"/>
        <pt x="1173" y="1603" on="1"/>
        <pt x="1173" y="1699" on="1"/>
        <pt x="1280" y="1699" on="1"/>
        <pt x="1280" y="1603" on="1"/>
        <pt x="1386" y="1603" on="1"/>
        <pt x="1386" y="1699" on="1"/>
        <pt x="1493" y="1699" on="1"/>
        <pt x="1493" y="1506" on="1"/>
        <pt x="1386" y="1506" on="1"/>
        <pt x="1386" y="1408" on="1"/>
        <pt x="1493" y="1408" on="1"/>
        <pt x="1493" y="1119" on="1"/>
        <pt x="1386" y="1119" on="1"/>
        <pt x="1386" y="1023" on="1"/>
        <pt x="1493" y="1023" on="1"/>
        <pt x="1493" y="732" on="1"/>
        <pt x="1386" y="732" on="1"/>
        <pt x="1386" y="636" on="1"/>
        <pt x="1493" y="636" on="1"/>
        <pt x="1493" y="345" on="1"/>
        <pt x="1386" y="345" on="1"/>
        <pt x="1386" y="249" on="1"/>
        <pt x="1493" y="249" on="1"/>
        <pt x="1493" y="-42" on="1"/>
        <pt x="1386" y="-42" on="1"/>
        <pt x="1386" y="-136" on="1"/>
        <pt x="1493" y="-136" on="1"/>
        <pt x="1493" y="-427" on="1"/>
        <pt x="1386" y="-427" on="1"/>
        <pt x="1386" y="-523" on="1"/>
        <pt x="1493" y="-523" on="1"/>
      </contour>
      <contour>
        <pt x="106" y="1119" on="1"/>
        <pt x="106" y="1023" on="1"/>
        <pt x="213" y="1023" on="1"/>
        <pt x="213" y="1119" on="1"/>
      </contour>
      <contour>
        <pt x="319" y="1119" on="1"/>
        <pt x="319" y="1023" on="1"/>
        <pt x="426" y="1023" on="1"/>
        <pt x="426" y="1119" on="1"/>
      </contour>
      <contour>
        <pt x="532" y="1119" on="1"/>
        <pt x="532" y="1023" on="1"/>
        <pt x="639" y="1023" on="1"/>
        <pt x="639" y="1119" on="1"/>
      </contour>
      <contour>
        <pt x="746" y="1119" on="1"/>
        <pt x="746" y="1023" on="1"/>
        <pt x="853" y="1023" on="1"/>
        <pt x="853" y="1119" on="1"/>
      </contour>
      <contour>
        <pt x="960" y="927" on="1"/>
        <pt x="853" y="927" on="1"/>
        <pt x="853" y="829" on="1"/>
        <pt x="960" y="829" on="1"/>
      </contour>
      <contour>
        <pt x="746" y="927" on="1"/>
        <pt x="639" y="927" on="1"/>
        <pt x="639" y="829" on="1"/>
        <pt x="746" y="829" on="1"/>
      </contour>
      <contour>
        <pt x="532" y="927" on="1"/>
        <pt x="426" y="927" on="1"/>
        <pt x="426" y="829" on="1"/>
        <pt x="532" y="829" on="1"/>
      </contour>
      <contour>
        <pt x="319" y="927" on="1"/>
        <pt x="213" y="927" on="1"/>
        <pt x="213" y="829" on="1"/>
        <pt x="319" y="829" on="1"/>
      </contour>
      <contour>
        <pt x="106" y="732" on="1"/>
        <pt x="106" y="636" on="1"/>
        <pt x="213" y="636" on="1"/>
        <pt x="213" y="732" on="1"/>
      </contour>
      <contour>
        <pt x="319" y="732" on="1"/>
        <pt x="319" y="636" on="1"/>
        <pt x="426" y="636" on="1"/>
        <pt x="426" y="732" on="1"/>
      </contour>
      <contour>
        <pt x="532" y="732" on="1"/>
        <pt x="532" y="636" on="1"/>
        <pt x="639" y="636" on="1"/>
        <pt x="639" y="732" on="1"/>
      </contour>
      <contour>
        <pt x="746" y="732" on="1"/>
        <pt x="746" y="636" on="1"/>
        <pt x="853" y="636" on="1"/>
        <pt x="853" y="732" on="1"/>
      </contour>
      <contour>
        <pt x="319" y="540" on="1"/>
        <pt x="213" y="540" on="1"/>
        <pt x="213" y="444" on="1"/>
        <pt x="319" y="444" on="1"/>
      </contour>
      <contour>
        <pt x="426" y="540" on="1"/>
        <pt x="426" y="444" on="1"/>
        <pt x="532" y="444" on="1"/>
        <pt x="532" y="540" on="1"/>
      </contour>
      <contour>
        <pt x="639" y="540" on="1"/>
        <pt x="639" y="444" on="1"/>
        <pt x="746" y="444" on="1"/>
        <pt x="746" y="540" on="1"/>
      </contour>
      <contour>
        <pt x="853" y="540" on="1"/>
        <pt x="853" y="444" on="1"/>
        <pt x="960" y="444" on="1"/>
        <pt x="960" y="540" on="1"/>
      </contour>
      <contour>
        <pt x="106" y="345" on="1"/>
        <pt x="106" y="249" on="1"/>
        <pt x="213" y="249" on="1"/>
        <pt x="213" y="345" on="1"/>
      </contour>
      <contour>
        <pt x="532" y="345" on="1"/>
        <pt x="532" y="249" on="1"/>
        <pt x="639" y="249" on="1"/>
        <pt x="639" y="345" on="1"/>
      </contour>
      <contour>
        <pt x="426" y="249" on="1"/>
        <pt x="426" y="345" on="1"/>
        <pt x="319" y="345" on="1"/>
        <pt x="319" y="249" on="1"/>
      </contour>
      <contour>
        <pt x="746" y="345" on="1"/>
        <pt x="746" y="249" on="1"/>
        <pt x="853" y="249" on="1"/>
        <pt x="853" y="345" on="1"/>
      </contour>
      <contour>
        <pt x="960" y="56" on="1"/>
        <pt x="960" y="153" on="1"/>
        <pt x="853" y="153" on="1"/>
        <pt x="853" y="56" on="1"/>
      </contour>
      <contour>
        <pt x="746" y="56" on="1"/>
        <pt x="746" y="153" on="1"/>
        <pt x="639" y="153" on="1"/>
        <pt x="639" y="56" on="1"/>
      </contour>
      <contour>
        <pt x="532" y="56" on="1"/>
        <pt x="532" y="153" on="1"/>
        <pt x="426" y="153" on="1"/>
        <pt x="426" y="56" on="1"/>
      </contour>
      <contour>
        <pt x="319" y="56" on="1"/>
        <pt x="319" y="153" on="1"/>
        <pt x="213" y="153" on="1"/>
        <pt x="213" y="56" on="1"/>
      </contour>
      <contour>
        <pt x="106" y="-42" on="1"/>
        <pt x="106" y="-136" on="1"/>
        <pt x="213" y="-136" on="1"/>
        <pt x="213" y="-42" on="1"/>
      </contour>
      <contour>
        <pt x="319" y="-42" on="1"/>
        <pt x="319" y="-136" on="1"/>
        <pt x="426" y="-136" on="1"/>
        <pt x="426" y="-42" on="1"/>
      </contour>
      <contour>
        <pt x="532" y="-42" on="1"/>
        <pt x="532" y="-136" on="1"/>
        <pt x="639" y="-136" on="1"/>
        <pt x="639" y="-42" on="1"/>
      </contour>
      <contour>
        <pt x="746" y="-42" on="1"/>
        <pt x="746" y="-136" on="1"/>
        <pt x="853" y="-136" on="1"/>
        <pt x="853" y="-42" on="1"/>
      </contour>
      <contour>
        <pt x="960" y="-331" on="1"/>
        <pt x="960" y="-234" on="1"/>
        <pt x="853" y="-234" on="1"/>
        <pt x="853" y="-331" on="1"/>
      </contour>
      <contour>
        <pt x="746" y="-331" on="1"/>
        <pt x="746" y="-234" on="1"/>
        <pt x="639" y="-234" on="1"/>
        <pt x="639" y="-331" on="1"/>
      </contour>
      <contour>
        <pt x="532" y="-331" on="1"/>
        <pt x="532" y="-234" on="1"/>
        <pt x="426" y="-234" on="1"/>
        <pt x="426" y="-331" on="1"/>
      </contour>
      <contour>
        <pt x="319" y="-331" on="1"/>
        <pt x="319" y="-234" on="1"/>
        <pt x="213" y="-234" on="1"/>
        <pt x="213" y="-331" on="1"/>
      </contour>
      <contour>
        <pt x="106" y="-427" on="1"/>
        <pt x="106" y="-523" on="1"/>
        <pt x="213" y="-523" on="1"/>
        <pt x="213" y="-427" on="1"/>
      </contour>
      <contour>
        <pt x="319" y="-427" on="1"/>
        <pt x="319" y="-523" on="1"/>
        <pt x="426" y="-523" on="1"/>
        <pt x="426" y="-427" on="1"/>
      </contour>
      <contour>
        <pt x="532" y="-427" on="1"/>
        <pt x="532" y="-523" on="1"/>
        <pt x="639" y="-523" on="1"/>
        <pt x="639" y="-427" on="1"/>
      </contour>
      <contour>
        <pt x="746" y="-427" on="1"/>
        <pt x="746" y="-523" on="1"/>
        <pt x="853" y="-523" on="1"/>
        <pt x="853" y="-427" on="1"/>
      </contour>
      <contour>
        <pt x="960" y="1314" on="1"/>
        <pt x="853" y="1314" on="1"/>
        <pt x="853" y="1216" on="1"/>
        <pt x="960" y="1216" on="1"/>
      </contour>
      <contour>
        <pt x="746" y="1314" on="1"/>
        <pt x="639" y="1314" on="1"/>
        <pt x="639" y="1216" on="1"/>
        <pt x="746" y="1216" on="1"/>
      </contour>
      <contour>
        <pt x="532" y="1314" on="1"/>
        <pt x="426" y="1314" on="1"/>
        <pt x="426" y="1216" on="1"/>
        <pt x="532" y="1216" on="1"/>
      </contour>
      <contour>
        <pt x="319" y="1314" on="1"/>
        <pt x="213" y="1314" on="1"/>
        <pt x="213" y="1216" on="1"/>
        <pt x="319" y="1216" on="1"/>
      </contour>
      <contour>
        <pt x="853" y="1506" on="1"/>
        <pt x="746" y="1506" on="1"/>
        <pt x="746" y="1408" on="1"/>
        <pt x="853" y="1408" on="1"/>
      </contour>
      <contour>
        <pt x="639" y="1506" on="1"/>
        <pt x="532" y="1506" on="1"/>
        <pt x="532" y="1408" on="1"/>
        <pt x="639" y="1408" on="1"/>
      </contour>
      <contour>
        <pt x="426" y="1506" on="1"/>
        <pt x="319" y="1506" on="1"/>
        <pt x="319" y="1408" on="1"/>
        <pt x="426" y="1408" on="1"/>
      </contour>
      <contour>
        <pt x="213" y="1506" on="1"/>
        <pt x="106" y="1506" on="1"/>
        <pt x="106" y="1408" on="1"/>
        <pt x="213" y="1408" on="1"/>
      </contour>
      <contour>
        <pt x="960" y="1119" on="1"/>
        <pt x="960" y="1023" on="1"/>
        <pt x="1067" y="1023" on="1"/>
        <pt x="1067" y="1119" on="1"/>
      </contour>
      <contour>
        <pt x="1173" y="1119" on="1"/>
        <pt x="1173" y="1023" on="1"/>
        <pt x="1280" y="1023" on="1"/>
        <pt x="1280" y="1119" on="1"/>
      </contour>
      <contour>
        <pt x="1386" y="927" on="1"/>
        <pt x="1280" y="927" on="1"/>
        <pt x="1280" y="829" on="1"/>
        <pt x="1386" y="829" on="1"/>
      </contour>
      <contour>
        <pt x="1173" y="927" on="1"/>
        <pt x="1067" y="927" on="1"/>
        <pt x="1067" y="829" on="1"/>
        <pt x="1173" y="829" on="1"/>
      </contour>
      <contour>
        <pt x="960" y="732" on="1"/>
        <pt x="960" y="636" on="1"/>
        <pt x="1067" y="636" on="1"/>
        <pt x="1067" y="732" on="1"/>
      </contour>
      <contour>
        <pt x="1173" y="732" on="1"/>
        <pt x="1173" y="636" on="1"/>
        <pt x="1280" y="636" on="1"/>
        <pt x="1280" y="732" on="1"/>
      </contour>
      <contour>
        <pt x="1173" y="540" on="1"/>
        <pt x="1067" y="540" on="1"/>
        <pt x="1067" y="444" on="1"/>
        <pt x="1173" y="444" on="1"/>
      </contour>
      <contour>
        <pt x="1280" y="540" on="1"/>
        <pt x="1280" y="444" on="1"/>
        <pt x="1386" y="444" on="1"/>
        <pt x="1386" y="540" on="1"/>
      </contour>
      <contour>
        <pt x="960" y="345" on="1"/>
        <pt x="960" y="249" on="1"/>
        <pt x="1067" y="249" on="1"/>
        <pt x="1067" y="345" on="1"/>
      </contour>
      <contour>
        <pt x="1280" y="249" on="1"/>
        <pt x="1280" y="345" on="1"/>
        <pt x="1173" y="345" on="1"/>
        <pt x="1173" y="249" on="1"/>
      </contour>
      <contour>
        <pt x="1386" y="56" on="1"/>
        <pt x="1386" y="153" on="1"/>
        <pt x="1280" y="153" on="1"/>
        <pt x="1280" y="56" on="1"/>
      </contour>
      <contour>
        <pt x="1173" y="56" on="1"/>
        <pt x="1173" y="153" on="1"/>
        <pt x="1067" y="153" on="1"/>
        <pt x="1067" y="56" on="1"/>
      </contour>
      <contour>
        <pt x="960" y="-42" on="1"/>
        <pt x="960" y="-136" on="1"/>
        <pt x="1067" y="-136" on="1"/>
        <pt x="1067" y="-42" on="1"/>
      </contour>
      <contour>
        <pt x="1173" y="-42" on="1"/>
        <pt x="1173" y="-136" on="1"/>
        <pt x="1280" y="-136" on="1"/>
        <pt x="1280" y="-42" on="1"/>
      </contour>
      <contour>
        <pt x="1386" y="-331" on="1"/>
        <pt x="1386" y="-234" on="1"/>
        <pt x="1280" y="-234" on="1"/>
        <pt x="1280" y="-331" on="1"/>
      </contour>
      <contour>
        <pt x="1173" y="-331" on="1"/>
        <pt x="1173" y="-234" on="1"/>
        <pt x="1067" y="-234" on="1"/>
        <pt x="1067" y="-331" on="1"/>
      </contour>
      <contour>
        <pt x="960" y="-427" on="1"/>
        <pt x="960" y="-523" on="1"/>
        <pt x="1067" y="-523" on="1"/>
        <pt x="1067" y="-427" on="1"/>
      </contour>
      <contour>
        <pt x="1173" y="-427" on="1"/>
        <pt x="1173" y="-523" on="1"/>
        <pt x="1280" y="-523" on="1"/>
        <pt x="1280" y="-427" on="1"/>
      </contour>
      <contour>
        <pt x="1386" y="1314" on="1"/>
        <pt x="1280" y="1314" on="1"/>
        <pt x="1280" y="1216" on="1"/>
        <pt x="1386" y="1216" on="1"/>
      </contour>
      <contour>
        <pt x="1173" y="1314" on="1"/>
        <pt x="1067" y="1314" on="1"/>
        <pt x="1067" y="1216" on="1"/>
        <pt x="1173" y="1216" on="1"/>
      </contour>
      <contour>
        <pt x="1280" y="1506" on="1"/>
        <pt x="1173" y="1506" on="1"/>
        <pt x="1173" y="1408" on="1"/>
        <pt x="1280" y="1408" on="1"/>
      </contour>
      <contour>
        <pt x="1067" y="1506" on="1"/>
        <pt x="960" y="1506" on="1"/>
        <pt x="960" y="1408" on="1"/>
        <pt x="1067" y="1408" on="1"/>
      </contour>
    </TTGlyph>
    <TTGlyph name="dnblock" xMin="0" yMin="-621" xMax="1451" yMax="621">
      <contour>
        <pt x="1451" y="-621" on="1"/>
        <pt x="0" y="-621" on="1"/>
        <pt x="0" y="621" on="1"/>
        <pt x="1451" y="621" on="1"/>
      </contour>
    </TTGlyph>
    <TTGlyph name="dollar" xMin="22" yMin="-142" xMax="1106" yMax="1516">
      <contour>
        <pt x="518" y="20" on="1"/>
        <pt x="92" y="38" on="0"/>
        <pt x="22" y="379" on="1"/>
        <pt x="192" y="416" on="1"/>
        <pt x="217" y="297" on="0"/>
        <pt x="376" y="177" on="0"/>
        <pt x="518" y="168" on="1"/>
        <pt x="518" y="664" on="1"/>
        <pt x="341" y="708" on="0"/>
        <pt x="206" y="778" on="0"/>
        <pt x="123" y="869" on="0"/>
        <pt x="86" y="973" on="0"/>
        <pt x="86" y="1046" on="1"/>
        <pt x="86" y="1201" on="0"/>
        <pt x="311" y="1376" on="0"/>
        <pt x="518" y="1385" on="1"/>
        <pt x="518" y="1516" on="1"/>
        <pt x="642" y="1516" on="1"/>
        <pt x="642" y="1385" on="1"/>
        <pt x="829" y="1376" on="0"/>
        <pt x="1033" y="1225" on="0"/>
        <pt x="1075" y="1065" on="1"/>
        <pt x="901" y="1032" on="1"/>
        <pt x="881" y="1126" on="0"/>
        <pt x="759" y="1231" on="0"/>
        <pt x="642" y="1242" on="1"/>
        <pt x="642" y="797" on="1"/>
        <pt x="821" y="755" on="0"/>
        <pt x="972" y="685" on="0"/>
        <pt x="1060" y="597" on="0"/>
        <pt x="1106" y="477" on="0"/>
        <pt x="1106" y="396" on="1"/>
        <pt x="1106" y="231" on="0"/>
        <pt x="864" y="31" on="0"/>
        <pt x="642" y="20" on="1"/>
        <pt x="642" y="-142" on="1"/>
        <pt x="518" y="-142" on="1"/>
      </contour>
      <contour>
        <pt x="934" y="394" on="1"/>
        <pt x="934" y="459" on="0"/>
        <pt x="882" y="543" on="0"/>
        <pt x="784" y="598" on="0"/>
        <pt x="642" y="635" on="1"/>
        <pt x="642" y="167" on="1"/>
        <pt x="783" y="176" on="0"/>
        <pt x="934" y="292" on="0"/>
      </contour>
      <contour>
        <pt x="258" y="1048" on="1"/>
        <pt x="258" y="989" on="0"/>
        <pt x="308" y="907" on="0"/>
        <pt x="407" y="851" on="0"/>
        <pt x="518" y="823" on="1"/>
        <pt x="518" y="1244" on="1"/>
        <pt x="258" y="1230" on="0"/>
      </contour>
    </TTGlyph>
</ttFont>
